<svg width="487" height="480" viewBox="0 0 487 480" fill="none" xmlns="http://www.w3.org/2000/svg">
<g clip-path="url(#clip0_13_132)">
<path d="M400.767 131.604C401.289 118.554 392.734 107.617 381.66 107.174C370.585 106.731 361.184 116.951 360.662 130C360.14 143.049 368.695 153.986 379.77 154.429C390.844 154.872 400.245 144.653 400.767 131.604Z" fill="#EBEBEB"/>
<path d="M394.674 131.456C394.105 143.346 386.176 152.795 376.395 153.952C377.43 154.201 378.49 154.361 379.576 154.418C390.649 154.987 400.13 144.866 400.757 131.826C401.383 118.779 392.917 107.752 381.844 107.183C380.867 107.132 379.896 107.17 378.944 107.279C388.406 109.573 395.236 119.699 394.668 131.456H394.674Z" fill="#E0E0E0"/>
<path d="M237.99 362.779C250.984 361.508 261.017 355.366 260.4 349.063C259.783 342.759 248.75 338.68 235.756 339.951C222.762 341.223 212.728 347.364 213.345 353.668C213.962 359.972 224.996 364.051 237.99 362.779Z" fill="#EBEBEB"/>
<path d="M237.078 359.345C225.22 360.278 215.342 356.777 213.604 351.339C213.419 351.953 213.323 352.572 213.336 353.199C213.445 359.549 224.076 363.862 237.085 362.84C250.093 361.818 260.552 355.837 260.443 349.486C260.437 348.924 260.341 348.381 260.169 347.851C258.463 353.467 248.802 358.419 237.078 359.345Z" fill="#E0E0E0"/>
<path d="M70.6377 327.944C77.2516 322.404 77.3232 311.598 70.7977 303.807C64.2721 296.017 53.6205 294.192 47.0066 299.732C40.3927 305.272 40.321 316.078 46.8466 323.869C53.3721 331.66 64.0237 333.484 70.6377 327.944Z" fill="#EBEBEB"/>
<path d="M50.546 320.869C56.5518 327.923 65.9311 329.974 72.5056 326.032C71.9881 326.677 71.4067 327.278 70.7677 327.834C64.2188 333.45 53.568 331.725 46.9744 323.987C40.3871 316.25 40.3552 305.427 46.9041 299.811C47.4855 299.312 48.0989 298.878 48.7378 298.494C43.997 304.404 44.6104 313.892 50.546 320.869Z" fill="#E0E0E0"/>
<path d="M48.0697 234.324C48.1669 227.698 44.5731 222.272 40.0428 222.206C35.5125 222.139 31.7612 227.457 31.6641 234.083C31.5669 240.709 35.1607 246.135 39.691 246.201C44.2213 246.268 47.9726 240.95 48.0697 234.324Z" fill="#EBEBEB"/>
<path d="M34.1641 234.015C34.0363 240.052 36.9753 245.138 40.9303 246.097C40.5022 246.186 40.0613 246.224 39.6205 246.212C35.0905 246.077 31.5382 240.596 31.6787 233.97C31.8193 227.344 35.6081 222.08 40.138 222.214C40.5405 222.227 40.9303 222.278 41.3136 222.374C37.3843 223.179 34.2919 228.041 34.1641 234.015Z" fill="#E0E0E0"/>
<path d="M424.684 288.016C421.247 294.501 422.933 302.104 428.441 305.005C433.955 307.906 441.206 304.999 444.644 298.514C448.081 292.029 446.394 284.425 440.88 281.525C435.367 278.624 428.115 281.531 424.678 288.016H424.684Z" fill="#EBEBEB"/>
<path d="M441.602 296.948C444.733 291.038 443.609 284.195 439.213 280.841C439.782 281.014 440.344 281.244 440.887 281.531C446.401 284.432 448.081 292.035 444.65 298.52C441.213 305.005 433.961 307.906 428.447 305.011C427.962 304.756 427.502 304.462 427.073 304.136C432.306 305.74 438.504 302.801 441.602 296.961V296.948Z" fill="#E0E0E0"/>
<path d="M136.713 130.555C140.077 120.966 136.204 110.877 128.063 108.021C119.922 105.165 110.595 110.624 107.232 120.214C103.868 129.803 107.74 139.892 115.882 142.748C124.023 145.604 133.35 140.145 136.713 130.555Z" fill="#EBEBEB"/>
<path d="M110.521 121.265C107.525 130.031 110.553 139.142 117.3 142.784C116.482 142.669 115.665 142.477 114.866 142.209C106.694 139.442 102.733 129.405 106.023 119.789C109.307 110.173 118.597 104.615 126.769 107.381C127.491 107.624 128.181 107.931 128.839 108.282C121.338 107.228 113.492 112.595 110.528 121.265H110.521Z" fill="#E0E0E0"/>
<path d="M335.171 124.542L337.855 126.14C338.2 126.344 338.174 126.862 337.804 127.047L334.954 128.472C334.865 128.516 334.788 128.587 334.737 128.67L333.069 131.385C332.852 131.737 332.341 131.724 332.162 131.36L330.801 128.548C330.756 128.459 330.693 128.389 330.61 128.338L327.926 126.74C327.581 126.536 327.607 126.018 327.977 125.833L330.827 124.408C330.916 124.364 330.993 124.293 331.044 124.21L332.712 121.495C332.929 121.143 333.44 121.156 333.619 121.52L334.98 124.332C335.024 124.421 335.088 124.491 335.171 124.542Z" fill="#E0E0E0"/>
<path d="M75.2018 355.754L77.8853 357.352C78.2367 357.556 78.2047 358.074 77.8341 358.259L74.9846 359.684C74.8951 359.728 74.8185 359.799 74.7673 359.882L73.0998 362.597C72.8825 362.948 72.3714 362.936 72.1925 362.572L70.8316 359.76C70.7869 359.671 70.723 359.601 70.6399 359.549L67.9565 357.952C67.6051 357.748 67.637 357.23 68.0076 357.045L70.8572 355.62C70.9466 355.575 71.0233 355.505 71.0744 355.422L72.742 352.707C72.9592 352.355 73.4703 352.368 73.6492 352.732L75.0101 355.543C75.0549 355.633 75.1187 355.703 75.2018 355.754Z" fill="#E0E0E0"/>
<path d="M312.33 353.863L315.014 355.46C315.359 355.665 315.333 356.182 314.962 356.368L312.113 357.792C312.023 357.837 311.947 357.907 311.896 357.991L310.228 360.706C310.011 361.057 309.5 361.045 309.321 360.68L307.96 357.869C307.915 357.78 307.851 357.709 307.768 357.658L305.085 356.061C304.74 355.857 304.765 355.339 305.136 355.154L307.985 353.729C308.075 353.684 308.152 353.614 308.203 353.531L309.87 350.815C310.087 350.464 310.599 350.477 310.778 350.841L312.138 353.652C312.183 353.742 312.247 353.812 312.33 353.863Z" fill="#E0E0E0"/>
<path d="M429.354 351.557L432.038 353.154C432.383 353.358 432.357 353.876 431.987 354.061L429.137 355.486C429.048 355.531 428.971 355.601 428.92 355.684L427.252 358.399C427.035 358.751 426.524 358.738 426.345 358.374L424.984 355.563C424.939 355.473 424.876 355.403 424.792 355.352L422.109 353.754C421.764 353.55 421.79 353.032 422.16 352.847L425.01 351.422C425.099 351.378 425.176 351.307 425.227 351.224L426.895 348.509C427.112 348.158 427.623 348.17 427.802 348.534L429.163 351.346C429.207 351.435 429.271 351.505 429.354 351.557Z" fill="#E0E0E0"/>
<path d="M142.665 155.498L145.349 157.095C145.7 157.3 145.668 157.817 145.298 158.003L142.448 159.427C142.359 159.472 142.282 159.542 142.231 159.625L140.563 162.341C140.346 162.692 139.835 162.679 139.656 162.315L138.295 159.504C138.25 159.415 138.186 159.344 138.103 159.293L135.42 157.696C135.075 157.491 135.1 156.974 135.471 156.789L138.321 155.364C138.41 155.319 138.487 155.249 138.538 155.166L140.205 152.45C140.423 152.099 140.934 152.112 141.113 152.476L142.474 155.287C142.518 155.377 142.582 155.447 142.665 155.498Z" fill="#E0E0E0"/>
<path d="M159.82 101.548L162.504 103.145C162.849 103.349 162.823 103.867 162.453 104.052L159.603 105.477C159.514 105.522 159.437 105.592 159.386 105.675L157.718 108.391C157.501 108.742 156.99 108.729 156.811 108.365L155.45 105.554C155.405 105.464 155.341 105.394 155.258 105.343L152.575 103.746C152.23 103.541 152.255 103.024 152.626 102.838L155.476 101.414C155.565 101.369 155.642 101.299 155.693 101.215L157.36 98.5001C157.578 98.1487 158.089 98.1615 158.268 98.5256L159.629 101.337C159.673 101.426 159.737 101.497 159.82 101.548Z" fill="#E0E0E0"/>
<path d="M72.8123 125.054L74.1732 125.865C74.3521 125.967 74.3329 126.229 74.1476 126.325L72.7036 127.047C72.6589 127.073 72.6206 127.104 72.595 127.149L71.7517 128.529C71.643 128.708 71.3811 128.702 71.2916 128.516L70.6016 127.092C70.5824 127.047 70.5441 127.009 70.5058 126.983L69.1449 126.172C68.966 126.069 68.9851 125.807 69.1704 125.712L70.6144 124.99C70.6591 124.964 70.6974 124.932 70.723 124.887L71.5664 123.507C71.675 123.328 71.9369 123.335 72.0264 123.52L72.7164 124.945C72.7356 124.99 72.7739 125.028 72.8123 125.054Z" fill="#E0E0E0"/>
<path d="M224.753 117.182L226.114 117.993C226.293 118.096 226.274 118.358 226.089 118.454L224.645 119.175C224.6 119.201 224.562 119.233 224.536 119.278L223.693 120.658C223.584 120.837 223.322 120.83 223.233 120.645L222.543 119.22C222.524 119.175 222.485 119.137 222.447 119.112L221.086 118.3C220.907 118.198 220.926 117.936 221.112 117.84L222.556 117.118C222.6 117.093 222.639 117.061 222.664 117.016L223.508 115.636C223.616 115.457 223.878 115.463 223.968 115.649L224.658 117.073C224.677 117.118 224.715 117.157 224.753 117.182Z" fill="#E0E0E0"/>
<path d="M351.144 108.199L352.505 109.01C352.684 109.113 352.665 109.374 352.48 109.47L351.036 110.192C350.991 110.218 350.953 110.25 350.927 110.295L350.084 111.675C349.975 111.853 349.713 111.847 349.624 111.662L348.934 110.237C348.915 110.192 348.876 110.154 348.838 110.128L347.477 109.317C347.298 109.215 347.317 108.953 347.503 108.857L348.946 108.135C348.991 108.109 349.03 108.077 349.055 108.033L349.898 106.653C350.007 106.474 350.269 106.48 350.359 106.665L351.049 108.09C351.068 108.135 351.106 108.173 351.144 108.199Z" fill="#E0E0E0"/>
<path d="M438.433 112.646L439.794 113.457C439.973 113.559 439.954 113.821 439.769 113.917L438.325 114.639C438.28 114.665 438.242 114.697 438.216 114.741L437.373 116.121C437.264 116.3 437.002 116.294 436.913 116.109L436.223 114.684C436.204 114.639 436.165 114.601 436.127 114.575L434.766 113.764C434.587 113.662 434.606 113.4 434.792 113.304L436.236 112.582C436.28 112.556 436.319 112.524 436.344 112.48L437.188 111.1C437.296 110.921 437.558 110.927 437.648 111.112L438.338 112.537C438.357 112.582 438.395 112.62 438.433 112.646Z" fill="#E0E0E0"/>
<path d="M282.41 367.53L284.007 368.462C284.211 368.584 284.199 368.89 283.981 368.999L282.301 369.862C282.25 369.887 282.205 369.932 282.173 369.983L281.202 371.599C281.074 371.81 280.768 371.804 280.665 371.587L279.841 369.925C279.816 369.874 279.777 369.83 279.726 369.804L278.129 368.871C277.924 368.75 277.937 368.443 278.154 368.335L279.835 367.472C279.886 367.446 279.931 367.402 279.963 367.351L280.934 365.734C281.061 365.523 281.368 365.53 281.47 365.747L282.295 367.408C282.32 367.459 282.358 367.504 282.41 367.53Z" fill="#E0E0E0"/>
<path d="M449.487 251.713L451.084 252.646C451.288 252.767 451.276 253.074 451.058 253.182L449.378 254.045C449.327 254.07 449.282 254.115 449.25 254.166L448.279 255.783C448.151 255.994 447.845 255.987 447.742 255.77L446.918 254.109C446.893 254.058 446.854 254.013 446.803 253.987L445.206 253.054C445.002 252.933 445.014 252.626 445.232 252.518L446.912 251.655C446.963 251.63 447.008 251.585 447.04 251.534L448.011 249.917C448.139 249.707 448.445 249.713 448.548 249.93L449.372 251.591C449.397 251.642 449.436 251.687 449.487 251.713Z" fill="#E0E0E0"/>
<path d="M37.1414 265.929L38.4257 266.695C38.5918 266.798 38.579 267.04 38.4001 267.13L37.0328 267.814C36.9881 267.833 36.9561 267.871 36.9306 267.909L36.1319 269.213C36.0297 269.379 35.7805 269.372 35.6975 269.2L35.0458 267.852C35.0266 267.807 34.9947 267.775 34.9499 267.75L33.6657 266.983C33.4996 266.881 33.5124 266.638 33.6913 266.548L35.0586 265.865C35.1033 265.846 35.1352 265.807 35.1608 265.769L35.9594 264.466C36.0617 264.299 36.3108 264.306 36.3939 264.478L37.0456 265.826C37.0648 265.871 37.0967 265.903 37.1414 265.929Z" fill="#E0E0E0"/>
<path d="M173.001 360.942L174.285 361.709C174.451 361.811 174.439 362.054 174.26 362.144L172.892 362.827C172.848 362.846 172.816 362.885 172.79 362.923L171.992 364.226C171.889 364.393 171.64 364.386 171.557 364.214L170.905 362.865C170.886 362.821 170.854 362.789 170.81 362.763L169.525 361.997C169.359 361.894 169.372 361.652 169.551 361.562L170.918 360.878C170.963 360.859 170.995 360.821 171.02 360.783L171.819 359.479C171.921 359.313 172.171 359.319 172.254 359.492L172.905 360.84C172.924 360.885 172.956 360.917 173.001 360.942Z" fill="#E0E0E0"/>
<path d="M417.956 329.686L419.24 330.453C419.406 330.555 419.394 330.798 419.215 330.888L417.848 331.571C417.803 331.59 417.771 331.629 417.745 331.667L416.947 332.97C416.844 333.137 416.595 333.13 416.512 332.958L415.86 331.61C415.841 331.565 415.809 331.533 415.765 331.507L414.48 330.741C414.314 330.638 414.327 330.396 414.506 330.306L415.873 329.622C415.918 329.603 415.95 329.565 415.975 329.527L416.774 328.223C416.876 328.057 417.126 328.064 417.209 328.236L417.86 329.584C417.879 329.629 417.911 329.661 417.956 329.686Z" fill="#E0E0E0"/>
<path d="M390.777 360.035L392.061 360.802C392.227 360.904 392.214 361.147 392.035 361.236L390.668 361.92C390.623 361.939 390.591 361.977 390.566 362.016L389.767 363.319C389.665 363.485 389.416 363.479 389.333 363.306L388.681 361.958C388.662 361.913 388.63 361.881 388.585 361.856L387.301 361.089C387.135 360.987 387.147 360.744 387.326 360.655L388.694 359.971C388.738 359.952 388.77 359.914 388.796 359.875L389.595 358.572C389.697 358.406 389.946 358.412 390.029 358.585L390.681 359.933C390.7 359.977 390.732 360.009 390.777 360.035Z" fill="#E0E0E0"/>
<path d="M418.256 164.564L419.649 165.395C419.828 165.503 419.815 165.772 419.624 165.868L418.141 166.609C418.097 166.634 418.058 166.666 418.026 166.711L417.164 168.123C417.049 168.308 416.787 168.296 416.691 168.11L415.982 166.654C415.963 166.609 415.924 166.57 415.88 166.545L414.487 165.714C414.308 165.606 414.321 165.337 414.512 165.242L415.995 164.5C416.039 164.475 416.078 164.443 416.11 164.398L416.972 162.986C417.087 162.801 417.349 162.814 417.445 162.999L418.154 164.456C418.173 164.5 418.212 164.539 418.256 164.564Z" fill="#E0E0E0"/>
<path d="M373.666 188.875L374.331 189.284C374.414 189.335 374.414 189.463 374.331 189.508L373.647 189.833C373.647 189.833 373.609 189.859 373.596 189.878L373.213 190.53C373.162 190.613 373.04 190.607 372.989 190.517L372.638 189.821C372.638 189.821 372.612 189.782 372.586 189.77L371.922 189.361C371.839 189.31 371.839 189.182 371.922 189.137L372.606 188.811C372.606 188.811 372.644 188.786 372.657 188.766L373.04 188.115C373.091 188.032 373.213 188.038 373.264 188.128L373.615 188.824C373.615 188.824 373.641 188.862 373.666 188.875Z" fill="#B9D7FF"/>
<path d="M374.19 285.454L374.855 285.863C374.938 285.914 374.938 286.042 374.855 286.087L374.171 286.412C374.171 286.412 374.133 286.438 374.12 286.457L373.736 287.109C373.685 287.192 373.564 287.186 373.513 287.096L373.161 286.4C373.161 286.4 373.136 286.361 373.11 286.349L372.446 285.94C372.363 285.889 372.363 285.761 372.446 285.716L373.13 285.39C373.13 285.39 373.168 285.365 373.181 285.345L373.564 284.694C373.615 284.611 373.737 284.617 373.788 284.707L374.139 285.403C374.139 285.403 374.165 285.441 374.19 285.454Z" fill="#B9D7FF"/>
<path d="M400.724 241.196L402.009 241.963C402.175 242.065 402.162 242.308 401.983 242.397L400.616 243.081C400.571 243.1 400.539 243.138 400.514 243.177L399.715 244.48C399.613 244.646 399.364 244.64 399.281 244.467L398.629 243.119C398.61 243.075 398.578 243.043 398.533 243.017L397.249 242.25C397.083 242.148 397.095 241.905 397.274 241.816L398.642 241.132C398.686 241.113 398.718 241.075 398.744 241.036L399.543 239.733C399.645 239.567 399.894 239.573 399.977 239.746L400.629 241.094C400.648 241.139 400.68 241.171 400.724 241.196Z" fill="#B9D7FF"/>
<path d="M366.536 196.101L367.827 196.9C367.993 197.002 367.986 197.245 367.82 197.328L366.498 197.961C366.453 197.98 366.421 198.012 366.395 198.05L365.648 199.315C365.552 199.481 365.309 199.462 365.22 199.289L364.536 197.935C364.517 197.89 364.479 197.858 364.44 197.833L363.15 197.034C362.984 196.932 362.99 196.689 363.163 196.606L364.485 195.973C364.523 195.954 364.562 195.922 364.587 195.884L365.335 194.619C365.431 194.453 365.673 194.472 365.763 194.645L366.447 195.999C366.466 196.044 366.504 196.076 366.542 196.101H366.536Z" fill="#B9D7FF"/>
<path d="M62.9985 233.682L63.976 234.302C64.1038 234.385 64.0974 234.571 63.9633 234.628L62.9474 235.094C62.9474 235.094 62.8899 235.133 62.8707 235.165L62.2893 236.123C62.2126 236.245 62.0273 236.232 61.9634 236.098L61.4523 235.056C61.4395 235.024 61.414 234.999 61.382 234.979L60.4045 234.36C60.2767 234.277 60.2831 234.091 60.4173 234.034L61.4331 233.567C61.4331 233.567 61.4906 233.529 61.5098 233.497L62.0912 232.539C62.1679 232.417 62.3532 232.43 62.4171 232.564L62.9282 233.606C62.941 233.638 62.9665 233.663 62.9985 233.682Z" fill="#B9D7FF"/>
<path d="M84.1594 255.795L85.105 256.339C85.2264 256.409 85.2264 256.581 85.105 256.645L84.1722 257.131C84.1722 257.131 84.1211 257.169 84.1019 257.201L83.5972 258.128C83.5333 258.249 83.3544 258.243 83.2905 258.121L82.7666 257.169C82.7666 257.169 82.7283 257.112 82.6963 257.099L81.7507 256.556C81.6293 256.486 81.6293 256.313 81.7507 256.249L82.6835 255.764C82.6835 255.764 82.7346 255.725 82.7538 255.693L83.2586 254.767C83.3225 254.645 83.5014 254.652 83.5652 254.773L84.0892 255.725C84.0892 255.725 84.1275 255.783 84.1594 255.795Z" fill="#B9D7FF"/>
<path d="M112.464 182.55L113.409 183.093C113.531 183.163 113.531 183.336 113.409 183.4L112.476 183.885C112.476 183.885 112.425 183.923 112.406 183.955L111.901 184.882C111.837 185.003 111.659 184.997 111.595 184.875L111.071 183.923C111.071 183.923 111.032 183.866 111 183.853L110.055 183.31C109.933 183.24 109.933 183.067 110.055 183.003L110.988 182.518C110.988 182.518 111.039 182.48 111.058 182.448L111.563 181.521C111.627 181.4 111.805 181.406 111.869 181.528L112.393 182.48C112.393 182.48 112.432 182.537 112.464 182.55Z" fill="#B9D7FF"/>
<path d="M185.901 167.024L186.846 167.567C186.968 167.637 186.968 167.81 186.846 167.874L185.914 168.359C185.914 168.359 185.863 168.398 185.843 168.43L185.339 169.356C185.275 169.478 185.096 169.471 185.032 169.35L184.508 168.398C184.508 168.398 184.47 168.34 184.438 168.327L183.492 167.784C183.371 167.714 183.371 167.542 183.492 167.478L184.425 166.992C184.425 166.992 184.476 166.954 184.495 166.922L185 165.995C185.064 165.874 185.243 165.88 185.307 166.002L185.831 166.954C185.831 166.954 185.869 167.011 185.901 167.024Z" fill="#B9D7FF"/>
<path d="M77.2591 259.354L79.1312 260.428C79.3739 260.568 79.3803 260.913 79.1375 261.041L77.2847 262.006C77.2272 262.038 77.1761 262.082 77.1505 262.14L76.1538 263.974C76.026 264.21 75.6746 264.204 75.5404 263.954L74.499 262.063C74.4671 262.006 74.4159 261.955 74.3584 261.923L72.4864 260.849C72.2436 260.709 72.2372 260.364 72.48 260.236L74.3329 259.271C74.3904 259.239 74.4351 259.195 74.467 259.137L75.4638 257.303C75.5915 257.067 75.943 257.073 76.0771 257.322L77.1186 259.214C77.1505 259.271 77.2016 259.322 77.2591 259.354Z" fill="#B9D7FF"/>
<path d="M199.146 157.21L201.018 158.284C201.26 158.424 201.267 158.769 201.024 158.897L199.171 159.862C199.114 159.894 199.063 159.939 199.037 159.996L198.04 161.83C197.913 162.066 197.561 162.06 197.427 161.811L196.386 159.919C196.354 159.862 196.302 159.811 196.245 159.779L194.373 158.705C194.13 158.565 194.124 158.22 194.367 158.092L196.219 157.127C196.277 157.095 196.322 157.051 196.354 156.993L197.35 155.159C197.478 154.923 197.829 154.929 197.964 155.179L199.005 157.07C199.037 157.127 199.088 157.178 199.146 157.21Z" fill="#B9D7FF"/>
<path d="M172.356 339.519L174.228 340.593C174.471 340.733 174.477 341.078 174.234 341.206L172.381 342.171C172.324 342.203 172.273 342.248 172.247 342.305L171.25 344.139C171.123 344.375 170.771 344.369 170.637 344.12L169.596 342.228C169.564 342.171 169.513 342.12 169.455 342.088L167.583 341.014C167.34 340.874 167.334 340.529 167.577 340.401L169.43 339.436C169.487 339.404 169.532 339.36 169.564 339.302L170.56 337.468C170.688 337.232 171.04 337.238 171.174 337.488L172.215 339.379C172.247 339.436 172.298 339.487 172.356 339.519Z" fill="#B9D7FF"/>
<path d="M346.774 306.212L348.646 307.286C348.889 307.426 348.895 307.771 348.653 307.899L346.8 308.864C346.742 308.896 346.691 308.941 346.666 308.998L345.669 310.832C345.541 311.068 345.19 311.062 345.056 310.813L344.014 308.921C343.982 308.864 343.931 308.813 343.874 308.781L342.001 307.708C341.759 307.567 341.752 307.222 341.995 307.094L343.848 306.129C343.905 306.097 343.957 306.053 343.982 305.995L344.979 304.162C345.107 303.925 345.458 303.932 345.592 304.181L346.634 306.072C346.666 306.129 346.717 306.181 346.774 306.212Z" fill="#B9D7FF"/>
<path d="M320.994 167.459L322.214 168.155C322.374 168.244 322.374 168.474 322.214 168.551L321.007 169.177C320.968 169.196 320.936 169.228 320.917 169.267L320.265 170.462C320.182 170.615 319.952 170.608 319.869 170.449L319.192 169.216C319.173 169.177 319.141 169.145 319.103 169.12L317.882 168.423C317.723 168.334 317.723 168.104 317.882 168.027L319.09 167.401C319.128 167.382 319.16 167.35 319.179 167.312L319.831 166.117C319.914 165.964 320.144 165.97 320.227 166.13L320.904 167.363C320.924 167.401 320.956 167.433 320.994 167.459Z" fill="#B9D7FF"/>
<path d="M185.829 138.04C193.487 135.667 198.714 130.579 197.504 126.676C196.295 122.773 189.106 121.533 181.449 123.906C173.791 126.279 168.564 131.367 169.773 135.27C170.983 139.173 178.172 140.413 185.829 138.04Z" fill="#263238"/>
<path d="M181.844 126.14C188.795 123.891 195.485 124.613 197.676 127.673C197.657 127.277 197.587 126.881 197.446 126.504C196.047 122.658 188.731 121.546 181.103 124.018C173.48 126.491 168.433 131.609 169.832 135.449C169.953 135.787 170.126 136.107 170.343 136.407C170.19 132.752 174.969 128.369 181.844 126.146V126.14Z" fill="#455A64"/>
<path d="M377.485 347.24C388.531 336.925 392.115 322.811 385.489 315.717C378.864 308.622 364.538 311.232 353.493 321.547C342.447 331.862 338.863 345.975 345.488 353.07C352.114 360.165 366.439 357.555 377.485 347.24Z" fill="#263238"/>
<path d="M373.915 343.263C363.859 352.675 351.061 355.697 343.841 350.803C344.302 351.627 344.851 352.387 345.509 353.084C352.154 360.163 366.485 357.524 377.519 347.199C388.553 336.874 392.105 322.761 385.461 315.688C384.873 315.062 384.221 314.512 383.518 314.039C387.722 321.572 383.857 333.954 373.909 343.27L373.915 343.263Z" fill="#455A64"/>
<path d="M305.056 164.471C306.241 156.788 290.938 148.051 270.875 144.956C250.812 141.86 233.587 145.579 232.401 153.262C231.216 160.945 246.52 169.682 266.583 172.777C286.646 175.872 303.871 172.153 305.056 164.471Z" fill="#263238"/>
<path d="M271.171 149.326C289.399 152.431 303.123 160.085 303.89 167.133C304.382 166.475 304.733 165.772 304.931 165.031C306.938 157.479 292.357 148.598 272.359 145.186C252.361 141.78 234.523 145.135 232.51 152.687C232.331 153.358 232.286 154.035 232.363 154.719C236.861 148.674 253.134 146.246 271.171 149.32V149.326Z" fill="#455A64"/>
<path d="M267.171 157.664C271.752 160.06 274.832 164.583 279.074 167.529C281.886 169.478 285.291 170.826 287.189 173.675C287.003 172.008 285.86 170.621 284.722 169.395C281.515 165.932 277.912 162.833 274.008 160.175C272.002 158.808 269.778 157.523 267.357 157.536" fill="#455A64"/>
<g opacity="0.2">
<path d="M267.171 157.664C271.752 160.06 274.832 164.583 279.074 167.529C281.886 169.478 285.291 170.826 287.189 173.675C287.003 172.008 285.86 170.621 284.722 169.395C281.515 165.932 277.912 162.833 274.008 160.175C272.002 158.808 269.778 157.523 267.357 157.536" fill="black"/>
</g>
<path d="M288.971 95.8294C288.888 95.0882 288.754 94.296 288.249 93.7465C287.559 92.9926 286.403 92.9159 285.38 92.9926C281.023 93.3184 275.477 99.7779 272.813 103.241L273.26 122.466C285.195 116.211 289.993 105.062 288.971 95.8294Z" fill="#455A64"/>
<g opacity="0.2">
<path d="M288.971 95.8294C288.888 95.0882 288.754 94.296 288.249 93.7465C287.559 92.9926 286.403 92.9159 285.38 92.9926C281.023 93.3184 275.477 99.7779 272.813 103.241L273.26 122.466C285.195 116.211 289.993 105.062 288.971 95.8294Z" fill="black"/>
</g>
<path d="M270.098 135.308C272.379 134.548 274.666 133.851 276.934 133.481C279.202 133.11 281.49 132.158 283.726 131.634C286.626 130.951 289.342 129.641 292.128 128.574C294.913 127.507 297.884 126.664 300.849 126.989C298.657 125.884 296.166 125.482 293.712 125.488C291.259 125.488 288.824 125.878 286.403 126.261C283.042 126.798 279.618 127.354 276.57 128.874C273.522 130.395 270.724 131.96 270.091 135.308" fill="#455A64"/>
<g opacity="0.2">
<path d="M270.098 135.308C272.379 134.548 274.666 133.851 276.934 133.481C279.202 133.11 281.49 132.158 283.726 131.634C286.626 130.951 289.342 129.641 292.128 128.574C294.913 127.507 297.884 126.664 300.849 126.989C298.657 125.884 296.166 125.482 293.712 125.488C291.259 125.488 288.824 125.878 286.403 126.261C283.042 126.798 279.618 127.354 276.57 128.874C273.522 130.395 270.724 131.96 270.091 135.308" fill="black"/>
</g>
<path d="M254.617 135.966C251.665 131.647 245.761 130.382 240.682 129.123C247.435 134.944 254.412 142.304 259.626 149.531C260.801 146.016 258.341 141.423 254.61 135.96L254.617 135.966Z" fill="#455A64"/>
<g opacity="0.2">
<path d="M254.617 135.966C251.665 131.647 245.761 130.382 240.682 129.123C247.435 134.944 254.412 142.304 259.626 149.531C260.801 146.016 258.341 141.423 254.61 135.96L254.617 135.966Z" fill="black"/>
</g>
<path d="M258.425 162.794C252.348 161.037 247.339 154.099 241.353 152.137C248.266 151.811 256.91 155.958 258.425 162.794Z" fill="#455A64"/>
<g opacity="0.2">
<path d="M258.425 162.794C252.348 161.037 247.339 154.099 241.353 152.137C248.266 151.811 256.91 155.958 258.425 162.794Z" fill="black"/>
</g>
<path d="M264.475 148.77C267.874 148.495 271.292 149.364 274.41 150.757C277.528 152.15 280.384 154.041 283.227 155.932C283.489 153.728 282.205 151.671 280.978 149.824C280.052 148.438 279.125 147.039 277.956 145.844C276.787 144.656 275.349 143.672 273.72 143.307C271.759 142.86 269.638 143.365 267.964 144.483C266.29 145.608 265.21 146.898 264.469 148.77" fill="#455A64"/>
<path d="M258.885 171.158C258.885 171.158 261.9 150.553 265.242 139.193C268.583 127.833 271.823 114.907 271.823 114.907L273.139 115.265C273.139 115.265 266.085 137.704 263.338 151.652C260.59 165.586 261.504 171.848 261.504 171.848L258.885 171.164" fill="#455A64"/>
<path d="M287.744 94.3854C287.744 94.3854 287.7 94.4621 287.604 94.5963C287.489 94.7496 287.348 94.9413 287.169 95.1713C286.786 95.6697 286.243 96.3916 285.579 97.2989C284.25 99.107 282.493 101.663 280.742 104.608C278.998 107.554 277.592 110.32 276.634 112.352C276.155 113.368 275.778 114.192 275.528 114.767C275.407 115.035 275.305 115.253 275.228 115.425C275.158 115.572 275.119 115.649 275.107 115.649C275.094 115.649 275.126 115.566 275.183 115.406C275.254 115.227 275.337 115.003 275.445 114.729C275.675 114.141 276.027 113.304 276.487 112.282C277.407 110.231 278.793 107.445 280.544 104.493C282.301 101.541 284.083 98.992 285.444 97.2095C286.122 96.315 286.69 95.5994 287.093 95.1202C287.284 94.8966 287.438 94.7113 287.559 94.5707C287.668 94.4429 287.725 94.3854 287.732 94.3854H287.744Z" fill="#455A64"/>
<path d="M269.612 125.36C265.683 121.009 264.558 114.984 266.194 109.362C267.337 105.426 269.829 102.04 272.43 98.8706C272.653 98.5959 272.909 98.302 273.26 98.2381C273.746 98.1487 274.187 98.5256 274.513 98.8962C277.349 102.116 278.167 106.678 277.963 110.959C277.829 113.809 277.279 116.677 276.008 119.233C274.736 121.789 272.206 124.172 269.612 125.36Z" fill="#455A64"/>
<path d="M269.612 125.36C269.612 125.36 269.625 125.277 269.676 125.117C269.733 124.939 269.804 124.715 269.893 124.447C270.091 123.865 270.36 123.015 270.666 121.961C271.286 119.853 271.995 116.901 272.538 113.598C273.075 110.288 273.382 107.266 273.599 105.081C273.701 104.008 273.784 103.132 273.848 102.487C273.88 102.199 273.906 101.969 273.925 101.784C273.944 101.624 273.957 101.541 273.963 101.541C273.969 101.541 273.969 101.624 273.963 101.79C273.957 101.976 273.944 102.212 273.931 102.5C273.899 103.113 273.842 104.001 273.752 105.1C273.58 107.292 273.292 110.32 272.755 113.636C272.212 116.952 271.478 119.91 270.813 122.012C270.481 123.06 270.193 123.903 269.97 124.479C269.868 124.747 269.778 124.964 269.714 125.137C269.65 125.284 269.618 125.367 269.612 125.36Z" fill="#263238"/>
<g opacity="0.2">
<path d="M264.475 148.77C267.874 148.495 271.292 149.364 274.41 150.757C277.528 152.15 280.384 154.041 283.227 155.932C283.489 153.728 282.205 151.671 280.978 149.824C280.052 148.438 279.125 147.039 277.956 145.844C276.787 144.656 275.349 143.672 273.72 143.307C271.759 142.86 269.638 143.365 267.964 144.483C266.29 145.608 265.21 146.898 264.469 148.77" fill="black"/>
</g>
<path d="M279.375 165.548C279.375 165.548 279.311 165.51 279.202 165.414C279.081 165.299 278.928 165.158 278.742 164.992C278.352 164.622 277.79 164.079 277.068 163.44C276.717 163.114 276.321 162.763 275.893 162.392C275.471 162.015 275.005 161.632 274.506 161.236C273.509 160.45 272.391 159.606 271.107 158.903C269.829 158.194 268.488 157.753 267.223 157.741C266.59 157.721 265.989 157.715 265.427 157.785C264.871 157.849 264.36 157.971 263.9 158.111C262.986 158.392 262.296 158.763 261.843 159.044C261.389 159.325 261.153 159.51 261.14 159.498C261.14 159.498 261.191 159.44 261.3 159.351C261.408 159.255 261.574 159.127 261.798 158.974C262.245 158.667 262.929 158.265 263.855 157.964C264.315 157.811 264.839 157.683 265.408 157.606C265.977 157.523 266.59 157.53 267.229 157.543C268.526 157.543 269.925 157.996 271.216 158.712C272.519 159.421 273.644 160.277 274.64 161.076C275.139 161.478 275.599 161.868 276.02 162.251C276.449 162.628 276.838 162.986 277.183 163.318C277.886 163.976 278.436 164.539 278.806 164.928C278.979 165.107 279.119 165.254 279.234 165.382C279.33 165.484 279.381 165.542 279.375 165.548Z" fill="#455A64"/>
<path d="M254.693 158.533C254.693 158.533 254.827 158.597 255.045 158.75C255.262 158.897 255.569 159.14 255.92 159.453C256.629 160.079 257.524 161.063 258.271 162.309C259.019 163.561 259.466 164.807 259.683 165.733C259.792 166.193 259.862 166.57 259.888 166.839C259.92 167.101 259.926 167.248 259.913 167.248C259.875 167.248 259.786 166.673 259.53 165.772C259.274 164.871 258.808 163.651 258.08 162.424C257.345 161.197 256.489 160.213 255.811 159.568C255.134 158.916 254.668 158.565 254.693 158.533Z" fill="#455A64"/>
<path d="M246.688 133.935C246.688 133.935 246.777 133.979 246.924 134.081C247.097 134.203 247.314 134.35 247.589 134.541C247.882 134.752 248.227 134.995 248.63 135.283C249.032 135.57 249.454 135.953 249.94 136.343C251.863 137.934 254.336 140.407 256.508 143.563C257.568 145.154 258.495 146.726 259.223 148.214C259.945 149.703 260.527 151.083 260.948 152.259C261.376 153.434 261.683 154.399 261.888 155.07C261.983 155.383 262.066 155.639 262.13 155.837C262.181 156.016 262.207 156.105 262.201 156.111C262.194 156.111 262.156 156.028 262.086 155.856C262.015 155.683 261.919 155.428 261.804 155.102C261.568 154.444 261.242 153.485 260.795 152.323C260.354 151.153 259.76 149.792 259.032 148.317C258.297 146.841 257.377 145.275 256.316 143.697C254.157 140.566 251.722 138.094 249.831 136.471C249.352 136.068 248.943 135.685 248.547 135.385C248.157 135.091 247.819 134.835 247.531 134.618C247.269 134.414 247.058 134.254 246.898 134.126C246.752 134.011 246.681 133.947 246.688 133.941V133.935Z" fill="#455A64"/>
<path d="M274.557 147.831C274.557 147.831 274.385 147.774 274.091 147.639C273.931 147.563 273.752 147.48 273.56 147.384C273.356 147.282 273.1 147.211 272.832 147.109C271.759 146.732 270.136 146.387 268.417 146.796C267.555 146.975 266.782 147.32 266.123 147.69C265.459 148.061 264.916 148.489 264.488 148.872C263.619 149.646 263.248 150.272 263.216 150.246C263.204 150.246 263.287 150.08 263.472 149.805C263.664 149.543 263.951 149.16 264.386 148.757C264.807 148.349 265.35 147.901 266.028 147.512C266.698 147.115 267.491 146.758 268.372 146.572C270.149 146.151 271.816 146.534 272.896 146.956C273.164 147.071 273.42 147.154 273.624 147.269C273.816 147.377 273.989 147.473 274.142 147.563C274.423 147.729 274.576 147.825 274.57 147.837L274.557 147.831Z" fill="#455A64"/>
<path d="M286.697 127.807C286.697 127.807 286.607 127.839 286.428 127.884C286.224 127.929 285.968 127.993 285.649 128.069C284.972 128.229 283.994 128.465 282.793 128.798C281.598 129.136 280.173 129.564 278.634 130.139C277.094 130.714 275.42 131.417 273.791 132.376C272.986 132.861 272.219 133.391 271.612 134.024C271.005 134.682 270.423 135.321 269.874 135.934C268.781 137.167 267.849 138.317 267.133 139.333C266.411 140.349 265.9 141.212 265.568 141.825C265.235 142.438 265.076 142.79 265.057 142.777C265.05 142.777 265.082 142.681 265.152 142.515C265.223 142.343 265.331 142.093 265.485 141.787C265.791 141.161 266.29 140.273 266.993 139.244C267.702 138.215 268.622 137.04 269.708 135.8C270.251 135.18 270.832 134.535 271.439 133.877C272.072 133.213 272.851 132.676 273.669 132.184C275.318 131.213 277.004 130.516 278.557 129.948C280.11 129.385 281.541 128.97 282.748 128.651C283.956 128.344 284.946 128.127 285.63 127.993C285.956 127.935 286.218 127.884 286.422 127.852C286.601 127.82 286.697 127.807 286.703 127.82L286.697 127.807Z" fill="#455A64"/>
<path d="M264.296 145.601C264.296 145.601 264.277 145.403 264.277 145.052C264.277 144.656 264.29 144.157 264.296 143.563C264.303 142.311 264.277 140.573 264.066 138.675C263.855 136.778 263.478 135.085 263.197 133.858C263.063 133.283 262.948 132.797 262.859 132.407C262.782 132.062 262.744 131.871 262.763 131.871C262.782 131.871 262.839 132.05 262.948 132.388C263.05 132.727 263.191 133.213 263.357 133.819C263.676 135.033 264.085 136.733 264.296 138.65C264.513 140.56 264.513 142.311 264.462 143.563C264.437 144.189 264.405 144.7 264.373 145.052C264.341 145.403 264.315 145.595 264.303 145.595L264.296 145.601Z" fill="#455A64"/>
<path d="M266.692 131.411C267.012 129.04 266.705 126.606 266.028 124.312C264.168 118.019 259.37 112.658 253.313 110.128C256.54 117.949 259.773 125.763 262.999 133.583L264.047 137.634C265.67 135.877 266.379 133.788 266.692 131.417V131.411Z" fill="#455A64"/>
<g opacity="0.2">
<path d="M266.692 131.411C267.012 129.04 266.705 126.606 266.028 124.312C264.168 118.019 259.37 112.658 253.313 110.128C256.54 117.949 259.773 125.763 262.999 133.583L264.047 137.634C265.67 135.877 266.379 133.788 266.692 131.417V131.411Z" fill="black"/>
</g>
<path d="M146.142 354.166C153.393 346.935 150.145 331.922 138.888 320.633C127.63 309.345 112.626 306.055 105.376 313.286C98.1245 320.516 101.372 335.53 112.63 346.818C123.887 358.107 138.891 361.397 146.142 354.166Z" fill="#263238"/>
<path d="M116.687 342.912C106.413 332.638 102.784 319.253 107.697 311.471C106.847 311.982 106.062 312.595 105.346 313.305C98.1135 320.556 101.391 335.577 112.662 346.848C123.932 358.125 138.928 361.383 146.16 354.131C146.799 353.486 147.355 352.783 147.834 352.029C140.039 356.725 126.846 353.077 116.687 342.912Z" fill="#455A64"/>
<path d="M128.181 329.06L137.286 319.368L138.372 320.448C138.372 320.448 130.673 329.392 130.545 331.526L128.181 329.054V329.06Z" fill="#455A64"/>
<path d="M113.345 323.476L100.88 342.088L119.766 360.981L138.538 346.656L113.345 323.476Z" fill="#B9D7FF"/>
<path d="M119.888 360.872C118.182 362.546 112.617 359.633 107.454 354.368C102.292 349.103 99.4935 343.481 101.199 341.807C102.905 340.133 108.47 343.046 113.633 348.311C118.795 353.576 121.594 359.198 119.888 360.872Z" fill="#B9D7FF"/>
<g opacity="0.3">
<path d="M119.888 360.872C118.182 362.546 112.617 359.633 107.454 354.368C102.292 349.103 99.4935 343.481 101.199 341.807C102.905 340.133 108.47 343.046 113.633 348.311C118.795 353.576 121.594 359.198 119.888 360.872Z" fill="black"/>
</g>
<path d="M139.1 348.081C137.541 349.499 129.65 348.292 121.038 340.369C112.425 332.447 107.544 326.485 111.94 321.84C115.549 318.026 122.756 320.927 131.369 328.849C139.982 336.772 144.224 343.423 139.1 348.081Z" fill="#B9D7FF"/>
<path d="M119.766 360.981C119.766 360.981 119.862 360.885 120.067 360.712C120.29 360.533 120.591 360.291 120.974 359.978C121.792 359.326 122.955 358.399 124.424 357.23C127.421 354.873 131.657 351.544 136.691 347.589L136.672 347.608C137.062 347.174 137.062 346.484 136.941 345.857C136.819 345.219 136.576 344.586 136.289 343.973C135.707 342.739 134.947 341.538 134.091 340.369C132.379 338.031 130.309 335.782 128.028 333.641C125.542 331.316 122.929 329.258 120.258 327.616C118.923 326.805 117.569 326.083 116.195 325.572C115.511 325.323 114.815 325.112 114.125 325.029C113.447 324.946 112.706 324.99 112.272 325.431L112.285 325.412C108.892 330.396 106.055 334.568 104.049 337.513C103.052 338.957 102.266 340.101 101.717 340.899C101.455 341.276 101.244 341.57 101.091 341.788C100.95 341.986 100.867 342.088 100.861 342.081C100.854 342.075 100.918 341.966 101.052 341.762C101.199 341.538 101.391 341.238 101.64 340.848C102.177 340.037 102.944 338.88 103.908 337.417C105.889 334.459 108.694 330.261 112.042 325.252L112.048 325.233C112.317 324.946 112.687 324.799 113.045 324.735C113.409 324.671 113.78 324.677 114.144 324.722C114.872 324.805 115.581 325.022 116.291 325.271C117.696 325.789 119.064 326.511 120.412 327.329C123.108 328.977 125.734 331.047 128.238 333.386C130.532 335.539 132.615 337.794 134.34 340.165C135.196 341.347 135.969 342.561 136.557 343.826C136.851 344.458 137.094 345.11 137.222 345.787C137.343 346.445 137.369 347.225 136.87 347.793H136.864L136.851 347.813C131.791 351.729 127.529 355.026 124.514 357.358C123.025 358.502 121.836 359.402 121.012 360.035C120.616 360.329 120.309 360.565 120.079 360.731C119.869 360.885 119.754 360.968 119.747 360.961L119.766 360.981Z" fill="#263238"/>
<path d="M177.678 321.751V324.85H166.305V310.685H177.416V313.784H170.273V316.173H176.566V319.17H170.273V321.758H177.678V321.751Z" fill="#263238"/>
<path d="M186.099 321.08H183.914V324.843H179.908V310.679H186.386C190.252 310.679 192.68 312.685 192.68 315.918C192.68 318.001 191.67 319.54 189.907 320.39L192.961 324.843H188.667L186.099 321.08ZM186.137 313.835H183.914V317.981H186.137C187.798 317.981 188.629 317.215 188.629 315.918C188.629 314.621 187.798 313.835 186.137 313.835Z" fill="#263238"/>
<path d="M201.069 321.08H198.884V324.843H194.878V310.679H201.356C205.222 310.679 207.65 312.685 207.65 315.918C207.65 318.001 206.64 319.54 204.877 320.39L207.931 324.843H203.637L201.069 321.08ZM201.114 313.835H198.89V317.981H201.114C202.775 317.981 203.605 317.215 203.605 315.918C203.605 314.621 202.775 313.835 201.114 313.835Z" fill="#263238"/>
<path d="M209.126 317.764C209.126 313.515 212.467 310.398 216.997 310.398C221.527 310.398 224.869 313.515 224.869 317.764C224.869 322.013 221.527 325.131 216.997 325.131C212.467 325.131 209.126 322.013 209.126 317.764ZM220.824 317.764C220.824 315.317 219.144 313.714 216.997 313.714C214.85 313.714 213.17 315.311 213.17 317.764C213.17 320.218 214.85 321.809 216.997 321.809C219.144 321.809 220.824 320.211 220.824 317.764Z" fill="#263238"/>
<path d="M233.168 321.08H230.983V324.843H226.977V310.679H233.456C237.321 310.679 239.749 312.685 239.749 315.918C239.749 318.001 238.739 319.54 236.976 320.39L240.03 324.843H235.737L233.168 321.08ZM233.206 313.835H230.983V317.981H233.206C234.868 317.981 235.698 317.215 235.698 315.918C235.698 314.621 234.868 313.835 233.206 313.835Z" fill="#263238"/>
<path d="M266.5 315.918C266.5 319.138 264.073 321.138 260.207 321.138H257.741V324.843H253.735V310.679H260.213C264.079 310.679 266.507 312.685 266.507 315.918H266.5ZM262.45 315.918C262.45 314.602 261.619 313.835 259.958 313.835H257.734V317.981H259.958C261.619 317.981 262.45 317.215 262.45 315.918Z" fill="#263238"/>
<path d="M277.228 322.096H271.235L270.123 324.85H266.034L272.289 310.685H276.238L282.512 324.85H278.34L277.228 322.096ZM276.052 319.138L274.231 314.602L272.41 319.138H276.052Z" fill="#263238"/>
<path d="M292.933 317.458H296.472V323.329C294.83 324.505 292.588 325.131 290.524 325.131C286.013 325.131 282.71 322.077 282.71 317.764C282.71 313.452 286.007 310.398 290.6 310.398C293.252 310.398 295.399 311.305 296.792 312.985L294.242 315.292C293.271 314.218 292.159 313.714 290.805 313.714C288.377 313.714 286.754 315.311 286.754 317.764C286.754 320.218 288.371 321.809 290.76 321.809C291.508 321.809 292.217 321.668 292.926 321.342V317.458H292.933Z" fill="#263238"/>
<path d="M310.394 321.751V324.85H299.021V310.685H310.132V313.784H302.989V316.173H309.282V319.17H302.989V321.758H310.394V321.751Z" fill="#263238"/>
<path d="M176.994 277.992H142.665V261.175L175.365 181.643H194.986V261.175H203.49V277.992H194.986V299.344H177.001V277.992H176.994ZM176.994 261.182V215.275H176.669L159.015 261.182H177.001H176.994Z" fill="#B9D7FF"/>
<g opacity="0.3">
<path d="M176.994 277.992H142.665V261.175L175.365 181.643H194.986V261.175H203.49V277.992H194.986V299.344H177.001V277.992H176.994ZM176.994 261.182V215.275H176.669L159.015 261.182H177.001H176.994Z" fill="black"/>
</g>
<path d="M168.81 277.992H134.481V261.175L167.181 181.643H186.802V261.175H195.306V277.992H186.802V299.344H168.816V277.992H168.81ZM168.81 261.182V215.275H168.484L150.831 261.182H168.816H168.81Z" fill="#B9D7FF"/>
<path d="M217.853 293.294C213.164 288.138 210.825 280.854 210.825 271.436V209.557C210.825 200.139 213.17 192.856 217.853 187.7C222.536 182.543 229.296 179.962 238.126 179.962C246.956 179.962 253.709 182.543 258.399 187.7C263.082 192.856 265.427 200.139 265.427 209.557V271.436C265.427 280.854 263.082 288.138 258.399 293.294C253.709 298.45 246.956 301.031 238.126 301.031C229.296 301.031 222.536 298.456 217.853 293.294ZM247.441 272.612V208.381C247.441 200.644 244.336 196.779 238.126 196.779C231.916 196.779 228.811 200.644 228.811 208.381V272.612C228.811 280.349 231.916 284.215 238.126 284.215C244.336 284.215 247.441 280.349 247.441 272.612Z" fill="#B9D7FF"/>
<g opacity="0.3">
<path d="M258.399 187.7C253.709 182.543 246.956 179.962 238.126 179.962C229.296 179.962 222.536 182.543 217.853 187.7C213.164 192.856 210.825 200.139 210.825 209.557V271.436C210.825 280.854 213.17 288.138 217.853 293.294C222.536 298.45 229.296 301.031 238.126 301.031C246.956 301.031 253.709 298.456 258.399 293.294C263.082 288.138 265.427 280.854 265.427 271.436V209.557C265.427 200.139 263.082 192.856 258.399 187.7ZM247.441 272.612C247.441 280.349 244.336 284.215 238.126 284.215C231.916 284.215 228.811 279.359 228.811 272.612V208.381C228.811 201.366 231.916 196.779 238.126 196.779C244.336 196.779 247.441 200.644 247.441 208.381V272.612Z" fill="black"/>
</g>
<path d="M209.669 293.294C204.979 288.138 202.641 280.854 202.641 271.436V209.557C202.641 200.139 204.985 192.856 209.669 187.7C214.352 182.543 221.112 179.962 229.941 179.962C238.771 179.962 245.525 182.543 250.214 187.7C254.898 192.856 257.242 200.139 257.242 209.557V271.436C257.242 280.854 254.898 288.138 250.214 293.294C245.525 298.45 238.771 301.031 229.941 301.031C221.112 301.031 214.352 298.456 209.669 293.294ZM239.257 272.612V208.381C239.257 200.644 236.152 196.779 229.941 196.779C223.731 196.779 220.626 200.644 220.626 208.381V272.612C220.626 280.349 223.731 284.215 229.941 284.215C236.152 284.215 239.257 280.349 239.257 272.612Z" fill="#B9D7FF"/>
<path d="M305.583 277.992H271.248V261.175L303.947 181.643H323.569V261.175H332.073V277.992H323.569V299.344H305.583V277.992ZM305.583 261.182V215.275H305.257L287.598 261.182H305.583Z" fill="#B9D7FF"/>
<g opacity="0.3">
<path d="M305.583 277.992H271.248V261.175L303.947 181.643H323.569V261.175H332.073V277.992H323.569V299.344H305.583V277.992ZM305.583 261.182V215.275H305.257L287.598 261.182H305.583Z" fill="black"/>
</g>
<path d="M297.399 277.992H263.063V261.175L295.763 181.643H315.384V261.175H323.888V277.992H315.384V299.344H297.399V277.992ZM297.399 261.182V215.275H297.073L279.413 261.182H297.399Z" fill="#B9D7FF"/>
<path d="M362.774 280.502C371.21 278.8 373.725 255.991 368.39 229.558C363.055 203.125 351.892 183.077 343.455 184.78C335.019 186.483 332.505 209.291 337.839 235.724C343.174 262.157 354.338 282.205 362.774 280.502Z" fill="#263238"/>
<path d="M363.776 230.635C358.914 206.541 349.215 187.757 341.145 185.911C341.861 185.348 342.628 184.978 343.458 184.812C351.892 183.112 363.054 203.155 368.389 229.593C373.724 256.025 371.206 278.835 362.773 280.534C362.025 280.688 361.258 280.662 360.473 280.483C367.009 275.359 368.587 254.473 363.776 230.641V230.635Z" fill="#455A64"/>
<path d="M448.081 185.074L457.122 171.88C457.122 171.88 473.568 176.633 475.472 174.359L450.522 155.913L435.597 175.886L448.081 185.061V185.074Z" fill="#263238"/>
<path d="M448.605 167.26C448.222 166.769 448.286 165.983 448.758 165.58C449.231 165.178 450.036 165.235 450.426 165.721C450.822 166.2 450.765 167.152 450.254 167.503C449.736 167.855 448.797 167.727 448.535 167.165" fill="#E0E0E0"/>
<path d="M450.522 155.92L449.097 157.99L473.548 174.896C473.548 174.896 475.018 175.234 475.472 174.359L450.522 155.913V155.92Z" fill="#455A64"/>
<path d="M457.428 172.308C457.512 172.18 456.949 171.675 456.636 170.845C456.304 170.021 456.387 169.26 456.24 169.228C456.112 169.171 455.755 170.033 456.144 171.037C456.528 172.046 457.371 172.442 457.428 172.314V172.308Z" fill="white"/>
<path d="M460.847 173.164C460.962 173.068 460.585 172.468 460.553 171.65C460.495 170.832 460.802 170.193 460.681 170.11C460.578 170.008 459.971 170.66 460.029 171.675C460.08 172.698 460.757 173.279 460.847 173.164Z" fill="white"/>
<path d="M464.648 171.126C464.559 171.017 463.939 171.503 463.754 172.397C463.568 173.292 463.945 173.982 464.073 173.918C464.214 173.867 464.112 173.241 464.271 172.5C464.412 171.758 464.757 171.222 464.648 171.12V171.126Z" fill="white"/>
<path d="M455.033 175.087C455.064 174.94 454.381 174.691 453.729 174.135C453.065 173.592 452.7 172.966 452.56 173.024C452.426 173.062 452.611 173.899 453.391 174.544C454.164 175.196 455.02 175.228 455.033 175.087Z" fill="white"/>
<path d="M439.411 238.692L448.528 225.555C448.528 225.555 464.942 230.411 466.865 228.143L442.024 209.557L426.984 229.446L439.411 238.698V238.692Z" fill="#263238"/>
<path d="M440.044 220.879C439.66 220.387 439.731 219.601 440.21 219.198C440.682 218.796 441.488 218.86 441.877 219.345C442.267 219.831 442.21 220.776 441.692 221.128C441.174 221.473 440.235 221.345 439.973 220.783" fill="#E0E0E0"/>
<path d="M442.024 209.551L440.587 211.614L464.936 228.667C464.936 228.667 466.399 229.012 466.859 228.143L442.018 209.557L442.024 209.551Z" fill="#455A64"/>
<path d="M448.835 225.984C448.924 225.862 448.356 225.351 448.049 224.514C447.723 223.683 447.806 222.93 447.659 222.891C447.532 222.834 447.167 223.69 447.557 224.699C447.934 225.709 448.778 226.111 448.835 225.984Z" fill="white"/>
<path d="M452.247 226.852C452.362 226.757 451.991 226.156 451.966 225.332C451.915 224.514 452.228 223.881 452.1 223.792C451.998 223.69 451.384 224.335 451.442 225.357C451.487 226.38 452.164 226.961 452.253 226.846L452.247 226.852Z" fill="white"/>
<path d="M456.061 224.84C455.972 224.731 455.346 225.21 455.16 226.111C454.969 227.006 455.346 227.696 455.473 227.632C455.614 227.581 455.518 226.955 455.678 226.22C455.825 225.485 456.17 224.942 456.061 224.84Z" fill="white"/>
<path d="M446.426 228.744C446.458 228.597 445.775 228.347 445.123 227.785C444.458 227.236 444.101 226.61 443.96 226.667C443.826 226.705 444.011 227.542 444.784 228.188C445.557 228.839 446.414 228.884 446.426 228.744Z" fill="white"/>
<path d="M345.317 248.211C346.167 248.211 421.93 226.386 427.195 221.645C432.466 216.904 453.985 179.362 453.985 179.362L438.702 166.896L412.136 201.513L365.482 205.723C365.482 205.723 345.816 204.382 342.385 211.416L342.059 221.946L345.311 248.211H345.317Z" fill="#263238"/>
<path d="M345.317 248.212C346.435 248.243 380.279 285.901 390.885 288.042C401.485 290.182 406.82 282.873 410.442 278.49C415.055 272.906 446.465 232.826 446.465 232.826L430.709 219.792L396.163 256.549L375.391 227.945L357.284 226.246L346.276 235.995L345.324 248.212H345.317Z" fill="#263238"/>
<path d="M393.089 260.063C393.089 260.063 393.128 260.006 393.211 259.91C393.307 259.795 393.434 259.654 393.588 259.476C393.939 259.079 394.431 258.53 395.057 257.834C396.361 256.402 398.22 254.358 400.507 251.841C402.82 249.317 405.574 246.314 408.621 242.985C410.155 241.324 411.759 239.58 413.426 237.772C415.119 235.989 416.87 234.136 418.659 232.245C422.984 227.689 427.067 223.396 430.6 219.677L430.702 219.575L430.811 219.665C435.475 223.556 439.398 226.827 442.171 229.146C443.526 230.29 444.605 231.197 445.359 231.836C445.711 232.136 445.985 232.379 446.196 232.558C446.382 232.724 446.477 232.814 446.471 232.82C446.471 232.826 446.362 232.75 446.164 232.596C445.953 232.43 445.666 232.2 445.302 231.913C444.535 231.287 443.436 230.405 442.056 229.287C439.264 226.993 435.315 223.76 430.613 219.907L430.824 219.895C427.303 223.619 423.234 227.919 418.914 232.488C417.119 234.379 415.368 236.225 413.675 238.008C412.001 239.81 410.391 241.548 408.851 243.209C405.778 246.518 403.012 249.502 400.686 252.013C398.367 254.498 396.482 256.511 395.159 257.929C394.514 258.607 394.009 259.143 393.645 259.527C393.479 259.693 393.351 259.827 393.243 259.936C393.153 260.025 393.102 260.07 393.096 260.07L393.089 260.063Z" fill="#455A64"/>
<path d="M392.655 234.206C392.655 234.206 392.31 234.353 391.671 234.558C390.975 234.775 390.067 235.063 388.962 235.408C386.675 236.117 383.506 237.069 380.03 238.193C379.161 238.481 378.318 238.768 377.5 239.043C376.682 239.311 375.896 239.567 375.193 239.899C373.781 240.557 372.829 241.682 372.337 242.742C371.839 243.809 371.66 244.774 371.526 245.426C371.404 246.084 371.347 246.448 371.321 246.448C371.309 246.448 371.309 246.352 371.321 246.18C371.328 246.001 371.353 245.745 371.398 245.407C371.494 244.742 371.634 243.765 372.12 242.646C372.599 241.535 373.583 240.327 375.053 239.624C375.781 239.267 376.573 239.005 377.391 238.736C378.209 238.462 379.052 238.174 379.921 237.88C383.403 236.749 386.585 235.836 388.885 235.184C390.042 234.858 390.975 234.609 391.626 234.436C392.278 234.27 392.636 234.187 392.642 234.213L392.655 234.206Z" fill="#455A64"/>
<path d="M335.114 215.806C335.114 215.806 335.159 215.697 335.267 215.505C335.331 215.397 335.401 215.282 335.478 215.147C335.58 215.013 335.695 214.86 335.817 214.694C336.341 214.023 337.222 213.148 338.475 212.285C340.96 210.528 344.857 208.86 349.304 207.627C353.758 206.401 357.911 205.787 360.933 205.589C362.441 205.487 363.667 205.493 364.517 205.544C364.939 205.57 365.265 205.602 365.488 205.634C365.712 205.666 365.827 205.685 365.82 205.698C365.82 205.73 365.354 205.679 364.511 205.679C363.667 205.672 362.453 205.698 360.952 205.832C357.955 206.088 353.828 206.733 349.394 207.953C344.972 209.174 341.094 210.796 338.609 212.483C337.357 213.314 336.468 214.144 335.919 214.783C335.791 214.937 335.67 215.084 335.561 215.211C335.472 215.333 335.395 215.448 335.325 215.544C335.197 215.722 335.12 215.818 335.114 215.812V215.806Z" fill="#455A64"/>
<path d="M366.478 269.213C366.478 269.213 366.383 269.162 366.216 269.04C366.025 268.893 365.788 268.708 365.501 268.484C364.843 267.967 363.961 267.27 362.888 266.427C360.683 264.689 357.546 262.415 354.064 259.916C350.576 257.412 347.566 254.946 345.49 253.054C344.455 252.109 343.624 251.329 343.068 250.774C342.813 250.518 342.602 250.307 342.43 250.135C342.289 249.988 342.212 249.905 342.225 249.892C342.231 249.885 342.321 249.949 342.481 250.084C342.666 250.243 342.89 250.441 343.164 250.678C343.746 251.202 344.602 251.956 345.656 252.876C347.771 254.722 350.793 257.15 354.275 259.648C357.757 262.146 360.882 264.459 363.054 266.248C364.14 267.136 365.015 267.865 365.603 268.389C365.871 268.631 366.095 268.829 366.28 268.989C366.434 269.13 366.51 269.206 366.504 269.219L366.478 269.213Z" fill="#455A64"/>
<path d="M132.36 242.717C142.305 216.146 143.492 192.034 135.012 188.86C126.532 185.686 111.596 204.653 101.651 231.223C91.7066 257.793 90.5192 281.905 98.9992 285.079C107.479 288.253 122.415 269.287 132.36 242.717Z" fill="#263238"/>
<path d="M106.272 233.082C115.339 208.867 128.551 190.964 137.241 190.389C136.595 189.687 135.854 189.169 135.017 188.862C126.539 185.687 111.601 204.656 101.653 231.223C91.705 257.795 90.5167 281.908 99.0015 285.083C99.7554 285.365 100.554 285.467 101.397 285.416C95.4555 279.001 97.302 257.048 106.272 233.088V233.082Z" fill="#455A64"/>
<path d="M17.4947 173.279C17.4947 173.279 15.2329 167.51 14.2554 165.42C13.2778 163.331 13.4887 156.955 14.1403 155.798C14.792 154.642 14.1915 153.76 14.1915 153.76C14.1915 153.76 10.8563 147.543 12.4153 146.01L13.3225 145.908C13.3225 145.908 16.6641 152.578 16.7727 152.712C16.8877 152.846 17.6161 152.878 17.8461 151.716C18.0761 150.553 17.5138 147.103 17.5138 147.103C17.5138 147.103 16.2488 144.905 16.1593 143.397C16.1274 142.828 16.6321 142.03 17.0858 141.685L17.5394 141.34C17.5394 141.34 20.3442 146.413 20.4976 147.652C20.6509 148.892 21.1685 151.581 21.1685 151.581L21.5582 151.268L21.5901 145.045C21.5901 145.045 20.1845 139.781 21.2515 138.631C22.3185 137.481 22.4207 138.445 22.4207 138.445C22.4207 138.445 24.4205 143.819 24.5739 145.186C24.6378 145.742 24.6953 151.083 24.6953 151.083L25.5578 150.725L25.8581 145.729C25.8581 145.729 24.8486 140.771 26.3629 140.266L27.5768 140.228C27.5768 140.228 28.7269 146.751 28.8546 147.058C28.9824 147.365 27.9729 154.808 27.9729 154.808L28.2796 155.511L29.1549 154.322C29.1549 154.322 29.5447 153.179 31.2889 152.227C33.0268 151.268 33.7935 151.965 33.7935 151.965L31.6084 155.849C31.6084 155.849 29.6213 160.392 28.8035 161.434C27.9857 162.475 25.2128 164.935 24.772 165.171C24.3311 165.414 24.8231 167.427 24.8231 167.427L25.5131 168.832L17.4947 173.273V173.279Z" fill="#FFBF9D"/>
<path d="M26.2415 158.073C26.2415 158.137 25.5387 158.124 24.4525 158.386C23.3791 158.642 21.916 159.242 20.6765 160.386C19.437 161.536 18.7214 162.941 18.3828 163.989C18.0378 165.05 17.9994 165.753 17.9291 165.746C17.8908 165.746 17.8333 165.031 18.1272 163.913C18.4083 162.807 19.1175 161.312 20.4209 160.105C22.2163 158.673 23.6794 158.124 24.395 158.124C25.5259 157.92 26.2415 158.035 26.2351 158.073H26.2415Z" fill="#FF9A6C"/>
<path d="M26.5418 150.943C26.5418 151.07 23.9158 150.642 20.8298 151.454C17.7311 152.227 15.6354 153.862 15.5715 153.754C15.546 153.722 16.0252 153.268 16.926 152.706C17.8205 152.144 19.1623 151.498 20.734 151.089C22.3121 150.687 23.7944 150.61 24.8486 150.674C25.9092 150.738 26.5482 150.904 26.5418 150.943Z" fill="#FF9A6C"/>
<path d="M17.4947 173.279C17.7119 173.803 28.7141 207.103 33.4677 210.681C38.2276 214.259 69.6432 223.492 69.6432 223.492L74.5821 206.752L43.8501 197.111L24.772 165.184L17.4947 173.286V173.279Z" fill="#FFBF9D"/>
<path d="M76.6139 202.152L52.8844 198.101L47.8114 218.738L75.2657 225.019L76.6139 202.152Z" fill="#B9D7FF"/>
<path d="M91.5198 203.794L90.127 167.388C90.0758 158.322 84.7536 150.796 75.6938 151.096L74.8568 151.173C66.4486 151.946 60.0339 159.044 60.1297 167.49C60.2192 175.349 60.4172 184.032 60.8517 188.211C61.7526 196.862 70.5441 197.417 70.5441 197.417C70.5633 197.417 73.2339 208.19 73.2339 208.19L76.3008 209.205L91.5134 203.787L91.5198 203.794Z" fill="#FFBF9D"/>
<path d="M70.5441 197.417C70.5441 197.417 76.0324 197.239 81.5143 193.047C81.5143 193.047 79.917 200.018 71.2022 200.037L70.5377 197.424L70.5441 197.417Z" fill="#FF9A6C"/>
<path d="M64.4999 174.544C64.5383 175.202 65.1197 175.707 65.8097 175.681C66.4934 175.656 67.0173 175.106 66.9853 174.448C66.947 173.79 66.3656 173.285 65.6819 173.311C64.9983 173.337 64.468 173.892 64.5063 174.544H64.4999Z" fill="#263238"/>
<path d="M62.3212 171.152C62.4873 171.298 63.3626 170.519 64.6916 170.398C66.0205 170.257 67.0619 170.858 67.1897 170.679C67.2536 170.602 67.0683 170.321 66.6147 170.053C66.1675 169.784 65.4263 169.548 64.5957 169.631C63.7651 169.714 63.0943 170.078 62.7237 170.43C62.3403 170.781 62.2317 171.088 62.3148 171.152H62.3212Z" fill="#263238"/>
<path d="M75.0229 174.308C75.1891 174.455 76.0644 173.675 77.3997 173.554C78.7287 173.413 79.7701 174.014 79.8979 173.835C79.9618 173.758 79.7829 173.477 79.3229 173.209C78.8756 172.94 78.1345 172.704 77.3039 172.787C76.4733 172.87 75.8024 173.241 75.4318 173.586C75.0549 173.937 74.9399 174.244 75.0229 174.308Z" fill="#263238"/>
<path d="M71.5663 180.927C71.5663 180.85 70.723 180.786 69.3685 180.735C69.0234 180.735 68.6976 180.691 68.6209 180.467C68.5187 180.231 68.6209 179.847 68.7551 179.438C68.9979 178.589 69.2535 177.694 69.5218 176.755C70.576 172.941 71.3108 169.816 71.1574 169.778C71.0041 169.74 70.0202 172.794 68.9659 176.608C68.7104 177.547 68.474 178.442 68.244 179.298C68.1481 179.694 67.9692 180.154 68.1928 180.646C68.3079 180.889 68.5762 181.055 68.7998 181.093C69.0234 181.138 69.2151 181.125 69.3876 181.119C70.7421 181.068 71.5791 180.997 71.5791 180.921L71.5663 180.927Z" fill="#263238"/>
<path d="M73.9112 170.8C74.122 171.126 75.3807 170.647 76.9524 170.468C78.5178 170.257 79.8531 170.41 79.9809 170.046C80.032 169.874 79.7445 169.593 79.1631 169.369C78.5881 169.145 77.7255 169.005 76.7863 169.12C75.8471 169.235 75.0421 169.58 74.5373 169.938C74.0326 170.295 73.8154 170.64 73.9112 170.794V170.8Z" fill="#263238"/>
<path d="M62.0082 167.772C62.3085 168.053 63.3691 167.657 64.6725 167.542C65.9695 167.388 67.1004 167.561 67.3304 167.222C67.4326 167.062 67.2345 166.768 66.7298 166.519C66.2314 166.27 65.42 166.098 64.5255 166.187C63.631 166.283 62.8771 166.615 62.4426 166.96C62.0082 167.305 61.8804 167.631 62.0146 167.772H62.0082Z" fill="#263238"/>
<path d="M90.0056 173.873C90.1461 173.797 95.7942 171.567 96.152 177.502C96.5098 183.444 90.472 182.575 90.4528 182.403C90.4336 182.23 90.0119 173.867 90.0119 173.867L90.0056 173.873Z" fill="#FFBF9D"/>
<path d="M92.1331 180.045C92.1331 180.045 92.2418 180.109 92.4207 180.179C92.5932 180.25 92.8935 180.282 93.1938 180.147C93.8071 179.879 94.2735 178.85 94.2416 177.777C94.2224 177.234 94.0819 176.729 93.8646 176.314C93.6602 175.892 93.3599 175.605 93.0404 175.566C92.7209 175.515 92.5101 175.713 92.4462 175.886C92.3759 176.058 92.4207 176.173 92.3887 176.186C92.3759 176.199 92.2545 176.097 92.2865 175.848C92.3057 175.726 92.3632 175.586 92.4973 175.464C92.6315 175.343 92.836 175.266 93.0596 175.279C93.5196 175.279 93.9541 175.681 94.1968 176.135C94.4588 176.589 94.6377 177.164 94.6569 177.771C94.6888 178.972 94.1457 180.128 93.3024 180.429C92.8935 180.563 92.5357 180.461 92.344 180.326C92.1523 180.192 92.114 180.058 92.1331 180.045Z" fill="#FF9A6C"/>
<path d="M75.8024 181.547C75.5979 181.547 75.6554 182.908 74.531 183.93C73.4065 184.959 71.9497 184.869 71.9433 185.061C71.9306 185.15 72.282 185.31 72.8953 185.297C73.4959 185.291 74.3712 185.054 75.0549 184.428C75.7385 183.802 76.0132 182.997 76.0324 182.435C76.058 181.86 75.8918 181.528 75.796 181.54L75.8024 181.547Z" fill="#263238"/>
<path d="M47.7411 160.284C47.8114 159.926 48.0478 159.625 48.3481 159.421C49.0062 158.98 49.792 158.98 50.546 158.923C52.4308 158.776 54.2708 158.175 55.8937 157.223C55.2867 156.961 54.7181 156.635 54.2261 156.201C53.2039 155.3 52.5649 153.869 52.9227 152.559C52.993 152.316 53.1144 152.054 53.3508 151.965C53.7278 151.824 54.092 152.182 54.3795 152.463C55.3251 153.396 56.1684 153.773 57.4782 153.556C58.2896 153.422 59.0755 153.192 59.6953 152.751C59.7208 152.725 59.74 152.693 59.7656 152.661C60.0531 152.323 60.3406 152.003 60.6153 151.69C62.711 149.339 64.5383 147.684 66.4678 146.764C69.2982 145.416 74.1157 144.643 77.1889 145.25C80.2621 145.857 83.1308 148.144 83.7378 151.211C85.3415 149.671 87.8907 149.524 90.0056 150.227L90.0567 150.201C92.4079 150.879 93.8646 153.23 94.6888 155.53C94.7336 155.658 94.7719 155.786 94.8166 155.913C95.6728 157.095 96.7909 158.086 98.1007 158.744C98.3307 158.859 98.5926 158.999 98.6374 159.255C98.6821 159.504 98.4776 159.728 98.2796 159.894C97.7556 160.322 97.1295 160.622 96.465 160.782C96.7078 161.325 96.989 161.855 97.3276 162.354C97.6151 162.775 97.9537 163.286 97.7557 163.759C97.6023 164.123 97.1615 164.296 96.7653 164.264C96.3692 164.232 96.0114 164.034 95.6664 163.849C95.9603 164.449 96.2542 165.043 96.5481 165.644C95.7239 165.842 94.8613 165.829 94.0371 165.631C93.6857 167.855 93.5707 171.937 93.0979 173.458C91.5262 173.586 91.1301 173.432 90.3506 173.746C89.3411 174.148 89.8458 175.95 88.4786 175.515C87.7821 175.292 86.5746 172.774 86.3062 172.097C84.5109 167.586 83.6994 162.679 83.9486 157.83C82.9327 156.872 81.7316 156.118 80.4346 155.607L80.5432 155.696C78.0642 155.006 75.2657 154.342 73.0295 155.626C71.298 156.623 70.3588 158.539 69.1193 160.105C66.7617 163.069 63.9888 164.743 60.2192 165.139C60.0403 167.784 60.2064 172.078 60.2256 174.531L57.836 169.765V169.784C57.6507 169.51 57.491 169.228 57.3377 168.947L57.2865 168.864V168.851C57.0438 168.398 56.8137 167.944 56.5135 167.503C56.5071 167.51 56.5007 167.516 56.4943 167.529C55.242 168.781 53.1783 167.114 54.1367 165.625C54.3284 165.331 54.5584 165.063 54.8267 164.839C54.2581 165.446 53.37 165.772 52.5585 165.58C51.7471 165.382 51.0826 164.622 51.1018 163.785C51.1146 163.216 51.4852 162.686 51.9835 162.43C50.9165 162.577 49.8112 162.411 48.84 161.938C48.2075 161.625 47.5686 161.089 47.7283 160.309L47.7411 160.284Z" fill="#263238"/>
<path d="M81.0799 152.374C81.0799 152.374 81.4569 152.578 81.9999 153.115C82.5366 153.651 83.1628 154.597 83.5142 155.92C83.6931 156.578 83.8209 157.312 83.872 158.118C83.9231 158.916 83.9167 159.779 83.9103 160.686C83.9103 161.593 83.9039 162.552 84.0189 163.542C84.0764 164.034 84.1723 164.539 84.3064 165.031C84.447 165.516 84.6067 166.047 85.0092 166.449C85.3287 166.775 85.8335 166.903 86.2615 166.788C86.6896 166.685 87.0602 166.43 87.3285 166.098C87.846 165.408 87.9355 164.577 88.0313 163.836L87.8524 163.868C88.1911 164.507 88.5361 165.133 89.0217 165.625C89.5008 166.117 90.1398 166.423 90.7723 166.443C91.0854 166.449 91.3984 166.379 91.6604 166.232C91.9287 166.078 92.114 165.842 92.2354 165.593C92.3504 165.344 92.4015 165.069 92.3696 164.813C92.3376 164.558 92.2226 164.315 92.0501 164.155L91.9607 164.245C92.6763 164.967 93.411 165.331 93.9158 165.529C94.1713 165.625 94.3694 165.682 94.51 165.721C94.6441 165.753 94.7208 165.765 94.7208 165.759C94.7208 165.759 94.6505 165.727 94.5227 165.689C94.3886 165.644 94.1905 165.58 93.9477 165.471C93.4557 165.261 92.7465 164.877 92.0565 164.162L91.9671 164.251C92.2801 164.545 92.3312 165.088 92.1076 165.542C91.9926 165.765 91.8265 165.976 91.5901 166.104C91.3601 166.238 91.0726 166.296 90.7851 166.289C90.2036 166.27 89.6095 165.983 89.1622 165.51C88.7022 165.043 88.37 164.43 88.0313 163.791L87.8908 163.523L87.8524 163.829C87.7566 164.564 87.6608 165.369 87.188 165.989C86.9516 166.289 86.6129 166.519 86.236 166.609C85.859 166.705 85.4501 166.609 85.169 166.321C84.8176 165.976 84.6514 165.471 84.5173 164.992C84.3831 164.507 84.2937 164.015 84.2298 163.529C84.1084 162.558 84.1084 161.606 84.1084 160.699C84.1084 159.792 84.1084 158.929 84.0509 158.118C83.9934 157.306 83.8528 156.559 83.6611 155.894C83.2906 154.559 82.6325 153.6 82.0638 153.076C81.4952 152.546 81.0863 152.386 81.0863 152.386L81.0799 152.374Z" fill="#455A64"/>
<path d="M54.7117 162.494C54.7117 162.494 54.7372 162.513 54.782 162.552C54.8459 162.59 54.9161 162.641 55.012 162.699C55.1142 162.763 55.2356 162.839 55.3953 162.91C55.5487 162.986 55.7276 163.082 55.9384 163.152C56.769 163.485 58.0852 163.785 59.7016 163.593C61.2989 163.401 63.1901 162.718 64.8258 161.331C66.487 159.977 67.8926 158.041 69.0107 155.856C69.5793 154.763 70.0266 153.652 70.5313 152.623C71.0361 151.588 71.5983 150.63 72.3075 149.856C73.0103 149.077 73.8409 148.483 74.7162 148.182C75.1507 148.023 75.5979 147.965 76.026 147.946C76.4541 147.946 76.8694 148.004 77.2527 148.106C78.0194 148.31 78.6456 148.687 79.1312 149.083C79.6167 149.486 79.9554 149.92 80.1918 150.297C80.639 151.07 80.6901 151.581 80.7221 151.575C80.7221 151.575 80.7221 151.543 80.7093 151.486C80.6965 151.415 80.6773 151.326 80.6518 151.224C80.5943 150.994 80.4729 150.661 80.262 150.265C80.032 149.876 79.6998 149.422 79.2078 149.007C78.7159 148.591 78.0769 148.195 77.2911 147.978C76.9013 147.869 76.4733 147.805 76.026 147.805C75.5852 147.818 75.1124 147.876 74.6587 148.035C73.7451 148.342 72.8825 148.949 72.1669 149.741C71.4386 150.534 70.8572 151.505 70.346 152.546C69.8349 153.588 69.3813 154.693 68.819 155.773C67.7137 157.939 66.3208 159.849 64.698 161.197C63.0879 162.571 61.2478 163.255 59.6761 163.459C58.0916 163.67 56.7882 163.395 55.9576 163.088C55.1206 162.775 54.7117 162.475 54.6989 162.501L54.7117 162.494Z" fill="#455A64"/>
<path d="M53.683 158.725C53.683 158.725 53.7917 158.808 54.0089 158.923C54.2197 159.044 54.5456 159.185 54.9609 159.332C55.3698 159.485 55.8809 159.619 56.4496 159.721C57.0246 159.817 57.6635 159.868 58.3344 159.855C59.0052 159.83 59.6378 159.74 60.2064 159.613C60.7687 159.478 61.267 159.312 61.6695 159.133C62.072 158.961 62.3915 158.795 62.596 158.667C62.8068 158.539 62.9154 158.463 62.909 158.45C62.8899 158.418 62.4235 158.693 61.6184 158.999C61.2159 159.159 60.7239 159.306 60.1681 159.427C59.6122 159.542 58.9861 159.625 58.328 159.651C57.6699 159.664 57.0438 159.619 56.4815 159.536C55.9193 159.447 55.4145 159.325 55.0056 159.197C54.1814 158.935 53.7022 158.693 53.683 158.725Z" fill="#455A64"/>
<path d="M118.495 270.42L119.096 267.545C111.863 264.344 105.295 259.808 99.7363 254.185L67.7584 221.831L68.589 212.547L84.332 197.807C84.332 197.807 91.8393 192.83 101.57 196.683C112.623 201.066 117.3 207.27 130.206 222.31C135.318 228.271 132.449 223.294 137.445 226.52C137.445 226.52 134.308 243.56 128.379 254.121C124.034 261.852 118.495 270.42 118.495 270.42Z" fill="#B9D7FF"/>
<path d="M71.068 225.268C71.0297 225.293 70.5633 224.674 69.886 223.626C69.2088 222.572 68.3398 221.077 67.5029 219.364C66.6659 217.646 66.0206 216.042 65.6053 214.866C65.19 213.684 64.9919 212.937 65.0302 212.924C65.0814 212.905 65.3561 213.627 65.8289 214.777C66.3017 215.927 66.9789 217.505 67.8095 219.211C68.6401 220.917 69.4707 222.418 70.0905 223.498C70.7102 224.578 71.1064 225.242 71.0616 225.268H71.068Z" fill="#263238"/>
<g opacity="0.3">
<path d="M126.75 246.627C126.75 246.627 127.689 241.375 125.683 236.155C123.677 230.935 118.495 223.588 118.495 223.588L116.712 225.268L126.75 246.627Z" fill="black"/>
</g>
<path d="M99.0782 278.758L110.598 248.633L104.528 241.049L93.0788 226.98C93.0788 226.98 84.907 222.738 80.9905 216.476C79.7701 214.521 79.5337 211.218 80.8116 208.803C84.3895 202.037 91.7946 199.36 99.1741 201.379L105.666 205.634C105.666 205.634 127.088 239.209 126.743 245.681C126.501 250.25 108.432 281.186 108.432 281.186L99.0782 278.752V278.758Z" fill="#FFBF9D"/>
<path d="M99.8897 277.474L87.1049 278.573C85.7568 278.688 84.5428 279.429 83.8209 280.566L78.1025 289.594C78.1025 289.594 80.3835 290.648 81.8913 288.962C83.4439 287.224 85.8398 283.729 85.8398 283.729L84.7537 293.786C84.7537 293.786 87.6991 294.073 88.1975 291.83C88.7661 289.256 88.8108 285.882 88.8108 285.882L91.6859 295.44C91.6859 295.44 94.8103 294.412 93.8072 290.795C93.1746 288.514 92.491 286.163 92.491 286.163L95.9986 292.386C95.9986 292.386 98.5479 292.163 97.8835 289.85C97.4426 288.31 96.0881 285.256 96.0881 285.256C96.0881 285.256 103.448 285.812 104.912 285.282C106.905 284.56 108.943 280.33 108.943 280.33L99.8833 277.461L99.8897 277.474Z" fill="#FFBF9D"/>
<path d="M88.5552 199.628C88.5552 199.628 77.8278 205.398 79.0034 213.461C80.179 221.524 89.405 225.728 89.405 225.728L101.398 238.583L120.246 222.207L103.097 200.9" fill="#B9D7FF"/>
<path d="M103.091 200.9C103.091 200.9 103.123 200.925 103.18 200.989C103.244 201.066 103.327 201.155 103.423 201.277C103.647 201.545 103.96 201.922 104.362 202.408C105.186 203.417 106.381 204.874 107.889 206.72C110.917 210.458 115.217 215.767 120.354 222.112L120.444 222.227L120.335 222.323C114.834 227.108 108.419 232.692 101.596 238.628L101.5 238.711L101.372 238.82L101.257 238.698C97.0273 234.162 92.9766 229.811 89.2708 225.837L89.322 225.875C87.041 224.738 85.0412 223.3 83.3608 221.671C81.6997 220.035 80.3452 218.195 79.5912 216.215C79.4315 215.71 79.227 215.231 79.1184 214.732C79.0226 214.228 78.8884 213.742 78.8373 213.25C78.7223 212.26 78.7862 211.289 78.9779 210.388C79.3676 208.573 80.2429 207.065 81.1502 205.839C83.0158 203.392 85.0029 201.922 86.351 200.964C87.0346 200.491 87.5841 200.159 87.9547 199.941C88.1336 199.846 88.2741 199.762 88.3828 199.705C88.4786 199.654 88.5297 199.635 88.5361 199.635C88.5361 199.635 88.4914 199.667 88.3955 199.731C88.2869 199.794 88.1527 199.884 87.9802 199.992C87.616 200.223 87.0794 200.568 86.4085 201.053C85.0859 202.031 83.1244 203.519 81.3035 205.96C80.4154 207.18 79.5721 208.669 79.2015 210.439C79.0162 211.321 78.9651 212.266 79.0801 213.225C79.1312 213.704 79.2718 214.183 79.3676 214.675C79.4762 215.167 79.6807 215.633 79.8404 216.125C81.393 219.984 85.0093 223.358 89.4497 225.594L89.4817 225.613L89.5009 225.632C93.2066 229.606 97.2701 233.951 101.5 238.481L101.263 238.468L101.359 238.385C108.189 232.462 114.617 226.885 120.124 222.112L120.105 222.323C115.006 215.946 110.739 210.611 107.736 206.854C106.253 204.989 105.084 203.513 104.279 202.491C103.889 201.992 103.589 201.609 103.378 201.334C103.282 201.213 103.212 201.111 103.148 201.034C103.097 200.964 103.071 200.932 103.078 200.925L103.091 200.9Z" fill="#263238"/>
<path d="M89.8969 279.947C89.8969 280.004 89.4753 279.991 88.8491 280.17C88.2294 280.343 87.3924 280.752 86.7599 281.506C86.1337 282.259 85.8782 283.16 85.827 283.799C85.7631 284.451 85.8526 284.86 85.7951 284.866C85.7631 284.879 85.5906 284.477 85.5906 283.787C85.5906 283.103 85.8206 282.119 86.5043 281.288C87.1943 280.464 88.1208 280.062 88.7916 279.94C89.4753 279.812 89.897 279.908 89.8906 279.947H89.8969Z" fill="#FF9A6C"/>
<path d="M91.0726 281.448C91.0918 281.493 90.817 281.678 90.3889 281.991C90.1781 282.151 89.9225 282.336 89.6606 282.566C89.4114 282.803 89.1303 283.058 89.0153 283.403C88.7725 284.132 88.8236 284.885 88.8619 285.403C88.913 285.927 88.9961 286.246 88.9514 286.265C88.913 286.285 88.7469 285.978 88.6319 285.441C88.5297 284.911 88.4275 284.132 88.7022 283.288C88.8555 282.847 89.1942 282.56 89.4625 282.33C89.75 282.1 90.0248 281.927 90.2548 281.793C90.7276 281.525 91.047 281.41 91.0662 281.448H91.0726Z" fill="#FF9A6C"/>
<path d="M96.4203 282.649C96.433 282.694 96.0369 282.809 95.3916 282.886C94.7719 282.975 93.8199 283.026 93.2385 283.767C92.6762 284.502 92.5612 285.429 92.6826 286.023C92.804 286.63 93.0084 286.987 92.9573 287.013C92.9318 287.032 92.6506 286.719 92.4526 286.074C92.2673 285.428 92.3312 284.406 92.9765 283.563C93.3023 283.141 93.7879 282.892 94.216 282.79C94.6505 282.681 95.0466 282.668 95.3661 282.656C96.0114 282.643 96.4011 282.611 96.4139 282.656L96.4203 282.649Z" fill="#FF9A6C"/>
<path d="M106.355 279.94C106.324 280.023 104.79 279.512 102.924 278.797C101.992 278.439 101.155 278.106 100.554 277.851C99.9535 277.595 99.5829 277.423 99.5957 277.404C99.6277 277.27 101.18 277.774 103.046 278.483C104.912 279.193 106.394 279.851 106.355 279.94Z" fill="#FF9A6C"/>
<g opacity="0.3">
<path d="M135.081 223.051C135.081 223.051 132.788 243.119 128.29 251.297C123.798 259.476 120.099 266.478 120.099 266.478L119.779 268.024C119.779 268.024 128.903 253.63 130.558 250.052C132.206 246.467 135.215 239.273 136.87 232.283C138.519 225.332 138.781 224.124 138.73 224.124C138.73 224.124 136.116 222.214 135.081 223.051Z" fill="black"/>
</g>
</g>
<path d="M321.412 57.7318C321.668 51.3246 317.467 45.9543 312.03 45.7368C306.592 45.5194 301.976 50.5371 301.72 56.9443C301.464 63.3515 305.664 68.7218 311.102 68.9393C316.54 69.1567 321.155 64.1389 321.412 57.7318Z" fill="#EBEBEB"/>
<path d="M251.305 434.399C251.561 427.992 247.36 422.621 241.923 422.404C236.485 422.186 231.869 427.204 231.613 433.611C231.357 440.018 235.557 445.389 240.995 445.606C246.433 445.824 251.048 440.806 251.305 434.399Z" fill="#EBEBEB"/>
<path d="M318.354 57.5061C318.086 63.2905 314.348 67.8875 309.736 68.4501C310.224 68.5714 310.724 68.6491 311.236 68.677C316.456 68.9537 320.926 64.0302 321.221 57.6864C321.516 51.3394 317.525 45.9746 312.305 45.698C311.845 45.6731 311.387 45.6917 310.938 45.7446C315.399 46.8604 318.619 51.787 318.351 57.5061H318.354Z" fill="#E0E0E0"/>
<path d="M248.247 434.173C247.979 439.958 244.241 444.555 239.629 445.117C240.117 445.238 240.617 445.316 241.129 445.344C246.349 445.621 250.819 440.697 251.114 434.353C251.409 428.006 247.418 422.642 242.198 422.365C241.738 422.34 241.28 422.359 240.831 422.412C245.292 423.527 248.512 428.454 248.244 434.173H248.247Z" fill="#E0E0E0"/>
<path d="M243.749 37.4899L246.433 39.0872C246.778 39.2917 246.752 39.8092 246.382 39.9945L243.532 41.4193C243.443 41.464 243.366 41.5343 243.315 41.6173L241.647 44.3327C241.43 44.6841 240.919 44.6714 240.74 44.3072L239.379 41.4959C239.334 41.4065 239.271 41.3362 239.187 41.2851L236.504 39.6878C236.159 39.4834 236.185 38.9658 236.555 38.7805L239.405 37.3558C239.494 37.311 239.571 37.2407 239.622 37.1577L241.289 34.4423C241.507 34.0909 242.018 34.1037 242.197 34.4678L243.558 37.2791C243.602 37.3685 243.666 37.4388 243.749 37.4899Z" fill="#E0E0E0"/>
<path d="M184.969 61.1299L187.652 62.7272C187.997 62.9317 187.972 63.4492 187.601 63.6345L184.752 65.0593C184.662 65.104 184.585 65.1743 184.534 65.2574L182.867 67.9728C182.65 68.3242 182.138 68.3114 181.96 67.9472L180.599 65.136C180.554 65.0465 180.49 64.9762 180.407 64.9251L177.723 63.3278C177.378 63.1234 177.404 62.6058 177.775 62.4206L180.624 60.9958C180.714 60.951 180.79 60.8808 180.841 60.7977L182.509 58.0823C182.726 57.7309 183.237 57.7437 183.416 58.1079L184.777 60.9191C184.822 61.0085 184.886 61.0788 184.969 61.1299Z" fill="#E0E0E0"/>
<path d="M291.029 432.363L293.713 433.96C294.058 434.165 294.032 434.682 293.662 434.868L290.812 436.292C290.723 436.337 290.646 436.407 290.595 436.491L288.927 439.206C288.71 439.557 288.199 439.545 288.02 439.18L286.659 436.369C286.614 436.28 286.55 436.209 286.467 436.158L283.784 434.561C283.439 434.357 283.465 433.839 283.835 433.654L286.685 432.229C286.774 432.184 286.851 432.114 286.902 432.031L288.569 429.315C288.787 428.964 289.298 428.977 289.477 429.341L290.838 432.152C290.882 432.242 290.946 432.312 291.029 432.363Z" fill="#E0E0E0"/>
<path d="M307.002 416.02L308.363 416.831C308.542 416.933 308.523 417.195 308.338 417.291L306.894 418.013C306.849 418.039 306.811 418.07 306.785 418.115L305.942 419.495C305.833 419.674 305.571 419.668 305.482 419.482L304.792 418.058C304.772 418.013 304.734 417.975 304.696 417.949L303.335 417.138C303.156 417.035 303.175 416.773 303.36 416.678L304.804 415.956C304.849 415.93 304.887 415.898 304.913 415.853L305.756 414.473C305.865 414.294 306.127 414.301 306.216 414.486L306.906 415.911C306.926 415.956 306.964 415.994 307.002 416.02Z" fill="#E0E0E0"/>
<path d="M355.897 415.934C356.419 402.885 347.864 391.948 336.789 391.505C325.715 391.062 316.314 401.281 315.792 414.331C315.27 427.38 323.825 438.317 334.9 438.76C345.974 439.203 355.375 428.983 355.897 415.934Z" fill="#EBEBEB"/>
<path d="M349.804 415.786C349.235 427.677 341.306 437.126 331.524 438.283C332.56 438.532 333.62 438.692 334.706 438.749C345.779 439.318 355.26 429.197 355.886 416.157C356.513 403.11 348.047 392.082 336.974 391.514C335.997 391.463 335.026 391.501 334.074 391.61C343.536 393.903 350.366 404.03 349.798 415.786H349.804Z" fill="#E0E0E0"/>
<path d="M178.324 422.223C191.318 420.951 201.351 414.81 200.734 408.506C200.117 402.202 189.084 398.123 176.09 399.395C163.096 400.667 153.062 406.808 153.679 413.112C154.296 419.416 165.33 423.495 178.324 422.223Z" fill="#EBEBEB"/>
<path d="M235.141 58.7788C235.663 45.7297 227.109 34.7923 216.034 34.3495C204.959 33.9066 195.558 44.1259 195.037 57.1751C194.515 70.2242 203.07 81.1616 214.144 81.6044C225.219 82.0473 234.62 71.8279 235.141 58.7788Z" fill="#EBEBEB"/>
<path d="M229.048 58.6307C228.48 70.521 220.551 79.9706 210.769 81.127C211.804 81.3762 212.865 81.5359 213.951 81.5934C225.023 82.1621 234.505 72.0416 235.131 59.0013C235.757 45.9546 227.291 34.9268 216.219 34.3582C215.241 34.3071 214.27 34.3454 213.318 34.454C222.781 36.7477 229.611 46.8746 229.042 58.6307H229.048Z" fill="#E0E0E0"/>
<defs>
<clipPath id="clip0_13_132">
<rect width="463.465" height="278.786" fill="white" transform="translate(12 92.967)"/>
</clipPath>
</defs>
</svg>
