<svg width="487" height="480" viewBox="0 0 487 480" fill="none" xmlns="http://www.w3.org/2000/svg">
<g clip-path="url(#clip0_1_2)">
<path d="M312.56 240.6C264.52 240.14 221.05 239.73 189.54 239.43C173.82 239.36 161.09 239.29 152.26 239.25C147.88 239.26 144.48 239.27 142.12 239.27C140.98 239.29 140.11 239.3 139.48 239.31C138.89 239.32 138.58 239.34 138.58 239.36C138.58 239.38 138.88 239.4 139.48 239.42C140.11 239.43 140.98 239.46 142.12 239.48C144.47 239.51 147.88 239.55 152.26 239.61C161.1 239.66 173.82 239.73 189.54 239.81C221.05 239.83 264.53 239.86 312.57 239.89C360.59 239.89 404.07 239.95 435.55 240.18C451.29 240.29 464.03 240.44 472.83 240.61C477.23 240.69 480.65 240.78 482.97 240.87C485.29 240.96 486.5 241.05 486.5 241.13C486.5 241.22 485.28 241.29 482.96 241.36C480.64 241.43 477.22 241.48 472.82 241.52C464.02 241.6 451.28 241.62 435.54 241.57C404.06 241.48 360.58 241.1 312.57 240.61L312.56 240.6Z" fill="#EBEBEB"/>
<path d="M311.61 251.29C264.23 243.47 221.35 236.4 190.27 231.27C174.75 228.79 162.19 226.78 153.47 225.38C149.14 224.72 145.78 224.21 143.45 223.85C142.33 223.69 141.46 223.57 140.84 223.48C140.25 223.4 139.95 223.37 139.94 223.39C139.94 223.41 140.23 223.48 140.82 223.59C141.44 223.7 142.3 223.86 143.41 224.06C145.73 224.45 149.09 225.01 153.4 225.74C162.12 227.14 174.68 229.16 190.2 231.65C221.33 236.5 264.27 243.18 311.72 250.57C359.16 257.92 402.1 264.64 433.16 269.69C448.69 272.21 461.25 274.31 469.92 275.83C474.25 276.59 477.62 277.2 479.89 277.64C482.16 278.08 483.35 278.36 483.34 278.45C483.33 278.54 482.11 278.43 479.81 278.14C477.51 277.85 474.12 277.38 469.77 276.75C461.06 275.48 448.47 273.55 432.93 271.09C401.85 266.18 358.96 259.14 311.6 251.29H311.61Z" fill="#EBEBEB"/>
<path d="M308.96 261.7C263.42 246.62 222.2 232.97 192.33 223.08C177.4 218.22 165.32 214.28 156.93 211.55C152.76 210.23 149.52 209.2 147.28 208.49C146.2 208.16 145.36 207.91 144.76 207.72C144.19 207.55 143.9 207.48 143.89 207.49C143.89 207.51 144.17 207.62 144.72 207.82C145.31 208.03 146.14 208.31 147.21 208.68C149.44 209.43 152.66 210.51 156.81 211.89C165.2 214.63 177.28 218.57 192.2 223.44C222.17 233.06 263.51 246.33 309.19 260.99C354.86 275.61 396.2 288.91 426.06 298.73C440.99 303.63 453.06 307.66 461.38 310.5C465.54 311.92 468.76 313.05 470.94 313.84C473.12 314.63 474.24 315.09 474.22 315.17C474.19 315.25 473.01 314.96 470.78 314.32C468.55 313.68 465.29 312.69 461.09 311.39C452.69 308.78 440.57 304.92 425.62 300.08C395.71 290.4 354.48 276.79 308.97 261.68L308.96 261.7Z" fill="#EBEBEB"/>
<path d="M304.69 271.56C262.12 249.6 223.59 229.74 195.67 215.33C181.7 208.21 170.4 202.45 162.55 198.45C158.65 196.5 155.61 194.98 153.51 193.93C152.49 193.43 151.71 193.05 151.15 192.78C150.61 192.53 150.34 192.41 150.33 192.42C150.33 192.44 150.58 192.59 151.1 192.88C151.65 193.17 152.42 193.59 153.42 194.12C155.5 195.2 158.51 196.77 162.39 198.78C170.24 202.79 181.54 208.56 195.5 215.68C223.56 229.83 262.26 249.35 305.03 270.93C347.8 292.46 386.49 312.02 414.42 326.34C428.39 333.5 439.66 339.34 447.42 343.44C451.3 345.49 454.3 347.1 456.33 348.22C458.35 349.34 459.39 349.97 459.35 350.04C459.31 350.12 458.19 349.64 456.09 348.66C454 347.68 450.93 346.19 446.99 344.25C439.11 340.37 427.76 334.68 413.76 327.57C385.77 313.37 347.22 293.53 304.69 271.55V271.56Z" fill="#EBEBEB"/>
<path d="M298.91 280.64C260.34 252.39 225.44 226.83 200.14 208.3C187.47 199.12 177.22 191.68 170.1 186.52C166.55 183.99 163.79 182.02 161.89 180.66C160.96 180.01 160.25 179.52 159.74 179.16C159.25 178.83 159 178.66 158.98 178.68C158.97 178.69 159.2 178.89 159.67 179.25C160.17 179.63 160.86 180.15 161.76 180.83C163.64 182.22 166.37 184.23 169.88 186.82C177 191.99 187.24 199.43 199.9 208.62C225.37 226.92 260.5 252.17 299.33 280.07C338.16 307.93 373.28 333.21 398.59 351.66C411.25 360.88 421.46 368.4 428.48 373.64C431.99 376.26 434.7 378.32 436.52 379.73C438.34 381.15 439.27 381.93 439.22 382C439.17 382.07 438.14 381.43 436.22 380.13C434.31 378.84 431.51 376.9 427.93 374.38C420.76 369.34 410.45 361.96 397.76 352.79C372.36 334.45 337.43 308.91 298.91 280.65V280.64Z" fill="#EBEBEB"/>
<path d="M291.76 288.72C258.12 254.9 227.67 224.3 205.6 202.11C194.54 191.1 185.58 182.18 179.36 175.99C176.26 172.95 173.84 170.58 172.17 168.94C171.36 168.16 170.73 167.56 170.28 167.13C169.85 166.73 169.62 166.53 169.61 166.54C169.6 166.55 169.8 166.78 170.2 167.21C170.63 167.66 171.24 168.28 172.02 169.09C173.66 170.75 176.04 173.16 179.1 176.25C185.31 182.45 194.26 191.37 205.32 202.39C227.59 224.38 258.32 254.71 292.27 288.22C326.23 321.69 356.94 352.05 379.03 374.17C390.08 385.22 398.98 394.21 405.09 400.47C408.14 403.6 410.5 406.04 412.07 407.72C413.64 409.4 414.44 410.31 414.38 410.37C414.32 410.43 413.4 409.64 411.71 408.07C410.02 406.5 407.57 404.16 404.43 401.11C398.15 395.03 389.12 386.16 378.03 375.15C355.83 353.14 325.36 322.55 291.76 288.72Z" fill="#EBEBEB"/>
<path d="M283.42 295.6C255.52 257.03 230.27 222.13 211.97 196.83C202.78 184.25 195.34 174.07 190.17 167C187.58 163.52 185.57 160.81 184.18 158.93C183.5 158.03 182.97 157.34 182.6 156.85C182.24 156.39 182.05 156.15 182.03 156.16C182.01 156.17 182.18 156.43 182.51 156.91C182.87 157.42 183.36 158.13 184.01 159.05C185.37 160.94 187.34 163.68 189.87 167.21C195.03 174.28 202.47 184.47 211.65 197.05C230.18 222.18 255.75 256.86 284.01 295.18C312.28 333.46 337.83 368.16 356.16 393.39C365.33 406 372.71 416.25 377.75 423.36C380.27 426.92 382.21 429.7 383.5 431.6C384.79 433.5 385.43 434.52 385.36 434.57C385.29 434.62 384.51 433.7 383.09 431.89C381.67 430.08 379.61 427.39 376.99 423.9C371.74 416.93 364.23 406.78 355 394.21C336.54 369.06 311.26 334.17 283.41 295.6H283.42Z" fill="#EBEBEB"/>
<path d="M274.1 301.12C252.66 258.72 233.26 220.36 219.19 192.55C212.1 178.71 206.37 167.51 202.39 159.73C200.39 155.89 198.83 152.9 197.75 150.84C197.22 149.85 196.81 149.09 196.52 148.54C196.24 148.03 196.08 147.77 196.07 147.77C196.05 147.77 196.17 148.05 196.42 148.59C196.69 149.15 197.07 149.92 197.56 150.93C198.6 153.01 200.11 156.02 202.05 159.89C206.03 167.67 211.75 178.88 218.83 192.72C233.15 220.4 252.91 258.59 274.74 300.79C296.6 342.95 316.33 381.17 330.44 408.91C337.5 422.78 343.16 434.04 347.01 441.84C348.94 445.74 350.41 448.79 351.38 450.86C352.35 452.94 352.82 454.05 352.75 454.08C352.67 454.12 352.05 453.09 350.93 451.08C349.82 449.07 348.21 446.1 346.17 442.25C342.09 434.55 336.28 423.38 329.16 409.53C314.92 381.85 295.48 343.49 274.09 301.1L274.1 301.12Z" fill="#EBEBEB"/>
<path d="M264.02 305.12C249.61 259.92 236.57 219.03 227.12 189.38C222.33 174.61 218.45 162.66 215.76 154.36C214.39 150.26 213.33 147.07 212.6 144.86C212.23 143.8 211.95 142.98 211.75 142.4C211.55 141.85 211.44 141.57 211.42 141.57C211.4 141.57 211.48 141.87 211.64 142.43C211.82 143.02 212.07 143.85 212.39 144.92C213.09 147.14 214.1 150.34 215.4 154.47C218.09 162.77 221.95 174.73 226.73 189.5C236.46 219.06 249.88 259.84 264.71 304.9C279.57 349.93 292.96 390.73 302.47 420.32C307.23 435.12 311.02 447.11 313.58 455.42C314.86 459.57 315.83 462.81 316.46 465.01C317.09 467.21 317.38 468.38 317.29 468.41C317.21 468.44 316.75 467.32 315.97 465.17C315.19 463.02 314.08 459.83 312.68 455.71C309.88 447.48 305.92 435.54 301.1 420.76C291.45 391.21 278.38 350.31 264.01 305.13L264.02 305.12Z" fill="#EBEBEB"/>
<path d="M253.42 307.51C246.4 260.64 240.05 218.23 235.44 187.49C233.07 172.17 231.15 159.76 229.81 151.14C229.12 146.88 228.58 143.56 228.21 141.27C228.02 140.17 227.87 139.32 227.76 138.71C227.65 138.13 227.59 137.84 227.57 137.84C227.55 137.84 227.57 138.14 227.65 138.72C227.73 139.33 227.85 140.19 228 141.3C228.34 143.6 228.82 146.92 229.45 151.19C230.78 159.81 232.69 172.21 235.05 187.54C239.94 218.24 246.68 260.59 254.14 307.4C261.63 354.17 268.34 396.54 273.01 427.24C275.35 442.59 277.18 455.02 278.38 463.62C278.98 467.92 279.42 471.26 279.69 473.53C279.96 475.8 280.06 477 279.97 477.01C279.88 477.02 279.62 475.85 279.19 473.6C278.76 471.35 278.18 468.03 277.45 463.75C276 455.19 274 442.78 271.59 427.44C266.78 396.76 260.39 354.35 253.41 307.5L253.42 307.51Z" fill="#EBEBEB"/>
<path d="M242.56 308.24C242.99 260.87 243.38 217.99 243.67 186.92C243.74 171.42 243.79 158.87 243.83 150.15C243.82 145.83 243.81 142.47 243.8 140.15C243.78 139.03 243.77 138.17 243.76 137.55C243.75 136.96 243.73 136.66 243.71 136.66C243.69 136.66 243.67 136.96 243.65 137.55C243.64 138.17 243.62 139.03 243.59 140.15C243.56 142.47 243.52 145.83 243.47 150.15C243.43 158.86 243.37 171.41 243.29 186.92C243.29 218 243.29 260.87 243.29 308.25C243.32 355.6 243.29 398.48 243.07 429.53C242.97 445.05 242.82 457.61 242.66 466.29C242.58 470.63 242.49 474 242.4 476.29C242.31 478.58 242.22 479.78 242.13 479.77C242.04 479.77 241.96 478.57 241.9 476.28C241.83 473.99 241.78 470.62 241.73 466.28C241.65 457.6 241.62 445.04 241.66 429.51C241.73 398.47 242.09 355.59 242.55 308.24H242.56Z" fill="#EBEBEB"/>
<path d="M231.72 307.3C239.62 260.57 246.76 218.28 251.94 187.62C254.45 172.32 256.48 159.93 257.89 151.32C258.56 147.05 259.07 143.73 259.43 141.44C259.59 140.33 259.71 139.48 259.8 138.87C259.88 138.29 259.91 137.99 259.89 137.99C259.87 137.99 259.8 138.28 259.69 138.86C259.58 139.47 259.42 140.32 259.22 141.42C258.83 143.71 258.26 147.02 257.52 151.28C256.1 159.88 254.07 172.27 251.55 187.57C246.66 218.27 239.9 260.62 232.44 307.42C225.02 354.2 218.23 396.56 213.13 427.19C210.58 442.51 208.46 454.89 206.93 463.44C206.16 467.72 205.55 471.03 205.1 473.27C204.65 475.51 204.37 476.68 204.28 476.67C204.19 476.66 204.3 475.46 204.59 473.19C204.88 470.92 205.36 467.58 206 463.29C207.28 454.7 209.23 442.29 211.72 426.96C216.68 396.3 223.79 354 231.72 307.3Z" fill="#EBEBEB"/>
<path d="M221.17 304.7C236.43 259.78 250.24 219.13 260.25 189.66C265.17 174.94 269.15 163.02 271.92 154.74C273.26 150.63 274.3 147.43 275.02 145.22C275.35 144.15 275.61 143.33 275.8 142.73C275.97 142.17 276.05 141.88 276.03 141.87C276.01 141.87 275.9 142.14 275.7 142.69C275.49 143.27 275.2 144.09 274.82 145.14C274.07 147.34 272.97 150.52 271.57 154.61C268.8 162.89 264.81 174.8 259.88 189.52C250.15 219.08 236.72 259.85 221.88 304.91C207.08 349.96 193.62 390.73 183.69 420.19C178.73 434.92 174.65 446.82 171.78 455.03C170.34 459.13 169.2 462.31 168.4 464.46C167.6 466.61 167.13 467.72 167.05 467.69C166.97 467.66 167.26 466.5 167.91 464.3C168.56 462.1 169.56 458.88 170.88 454.74C173.52 446.46 177.43 434.5 182.33 419.75C192.12 390.25 205.9 349.58 221.2 304.69L221.17 304.7Z" fill="#EBEBEB"/>
<path d="M211.17 300.5C233.41 258.5 253.53 220.5 268.11 192.95C275.32 179.17 281.15 168.02 285.2 160.28C287.18 156.43 288.72 153.43 289.78 151.36C290.28 150.35 290.67 149.58 290.94 149.03C291.2 148.5 291.32 148.23 291.3 148.22C291.28 148.22 291.13 148.47 290.84 148.98C290.54 149.52 290.13 150.28 289.59 151.27C288.49 153.32 286.91 156.3 284.87 160.12C280.81 167.86 274.97 179.01 267.75 192.78C253.42 220.46 233.65 258.64 211.8 300.83C190 343.02 170.19 381.19 155.68 408.74C148.43 422.52 142.51 433.64 138.36 441.3C136.28 445.13 134.65 448.09 133.52 450.09C132.39 452.08 131.75 453.11 131.67 453.07C131.59 453.03 132.07 451.93 133.07 449.86C134.06 447.79 135.57 444.77 137.53 440.88C141.46 433.11 147.23 421.91 154.42 408.1C168.8 380.49 188.9 342.46 211.15 300.5H211.17Z" fill="#EBEBEB"/>
<path d="M201.95 294.8C230.57 256.75 256.47 222.31 275.24 197.35C284.54 184.85 292.07 174.74 297.3 167.71C299.87 164.21 301.86 161.49 303.24 159.61C303.89 158.69 304.4 157.99 304.76 157.49C305.1 157.01 305.26 156.75 305.25 156.74C305.23 156.73 305.04 156.96 304.67 157.42C304.29 157.91 303.76 158.6 303.07 159.49C301.66 161.35 299.62 164.04 297.01 167.5C291.78 174.52 284.24 184.63 274.93 197.12C256.39 222.25 230.81 256.91 202.54 295.22C174.32 333.53 148.7 368.18 130.01 393.16C120.67 405.65 113.05 415.72 107.74 422.65C105.08 426.11 103 428.79 101.57 430.58C100.13 432.38 99.34 433.29 99.27 433.24C99.2 433.19 99.85 432.17 101.16 430.28C102.47 428.39 104.43 425.63 106.99 422.1C112.1 415.03 119.57 404.86 128.87 392.33C147.45 367.27 173.33 332.81 201.96 294.8H201.95Z" fill="#EBEBEB"/>
<path d="M193.76 287.75C228.03 254.55 259.05 224.51 281.53 202.73C292.69 191.81 301.73 182.98 308 176.84C311.09 173.78 313.49 171.39 315.14 169.75C315.93 168.95 316.54 168.33 316.98 167.88C317.39 167.46 317.59 167.23 317.58 167.22C317.57 167.21 317.34 167.41 316.9 167.81C316.45 168.24 315.81 168.83 314.99 169.6C313.31 171.22 310.87 173.57 307.74 176.58C301.46 182.71 292.42 191.54 281.25 202.45C258.97 224.43 228.23 254.75 194.27 288.25C160.35 321.76 129.58 352.06 107.17 373.87C95.97 384.77 86.86 393.56 80.52 399.58C77.35 402.59 74.87 404.91 73.17 406.47C71.47 408.02 70.54 408.81 70.48 408.75C70.42 408.69 71.22 407.78 72.81 406.12C74.4 404.46 76.78 402.03 79.86 398.93C86.02 392.73 95.01 383.83 106.17 372.88C128.48 350.98 159.47 320.9 193.75 287.75H193.76Z" fill="#EBEBEB"/>
<path d="M186.77 279.54C225.86 252 261.24 227.08 286.88 209.02C299.63 199.95 309.95 192.6 317.11 187.5C320.64 184.95 323.39 182.96 325.29 181.59C326.2 180.92 326.9 180.4 327.4 180.03C327.87 179.67 328.11 179.48 328.1 179.47C328.09 179.46 327.83 179.62 327.34 179.94C326.82 180.29 326.11 180.78 325.17 181.42C323.25 182.76 320.47 184.71 316.9 187.2C309.73 192.3 299.41 199.63 286.65 208.7C261.18 226.99 226.03 252.23 187.19 280.12C148.39 308.02 113.22 333.24 87.65 351.34C74.87 360.39 64.48 367.67 57.27 372.65C53.66 375.14 50.85 377.05 48.92 378.33C46.99 379.6 45.96 380.24 45.91 380.17C45.86 380.1 46.8 379.33 48.63 377.93C50.46 376.53 53.19 374.5 56.73 371.91C63.8 366.73 74.08 359.31 86.82 350.21C112.31 331.99 147.67 307.04 186.77 279.55V279.54Z" fill="#EBEBEB"/>
<path d="M181.17 270.35C224.15 249.18 263.04 230.02 291.23 216.13C305.26 209.13 316.61 203.47 324.5 199.54C328.39 197.56 331.42 196.02 333.51 194.96C334.51 194.44 335.29 194.03 335.84 193.74C336.36 193.46 336.62 193.31 336.62 193.29C336.62 193.27 336.33 193.39 335.79 193.64C335.23 193.91 334.44 194.28 333.41 194.77C331.3 195.8 328.25 197.29 324.33 199.21C316.44 203.14 305.08 208.79 291.05 215.78C262.99 229.92 224.28 249.43 181.5 270.99C138.76 292.57 100.02 312.05 71.89 325.99C57.83 332.96 46.42 338.55 38.5 342.35C34.54 344.25 31.46 345.71 29.35 346.67C27.25 347.63 26.12 348.1 26.08 348.02C26.04 347.94 27.09 347.33 29.12 346.23C31.15 345.13 34.17 343.55 38.07 341.53C45.87 337.5 57.2 331.76 71.23 324.74C99.29 310.68 138.18 291.49 181.15 270.36L181.17 270.35Z" fill="#EBEBEB"/>
<path d="M177.11 260.41C222.93 246.17 264.4 233.29 294.45 223.95C309.42 219.22 321.54 215.39 329.95 212.73C334.11 211.38 337.34 210.33 339.58 209.61C340.65 209.25 341.48 208.97 342.07 208.77C342.63 208.57 342.91 208.47 342.91 208.45C342.91 208.43 342.61 208.51 342.04 208.67C341.44 208.85 340.6 209.09 339.51 209.41C337.26 210.1 334.01 211.1 329.83 212.38C321.41 215.03 309.29 218.86 294.32 223.58C264.35 233.19 223.01 246.45 177.32 261.1C131.67 275.78 90.31 289.01 60.31 298.41C45.31 303.11 33.15 306.86 24.73 309.39C20.52 310.65 17.24 311.61 15.01 312.24C12.78 312.86 11.59 313.15 11.57 313.06C11.54 312.98 12.68 312.53 14.86 311.76C17.04 310.99 20.28 309.89 24.45 308.51C32.8 305.74 44.9 301.83 59.88 297.07C89.84 287.54 131.3 274.62 177.11 260.42V260.41Z" fill="#EBEBEB"/>
<path d="M174.67 249.95C222.19 243 265.2 236.71 296.37 232.15C311.91 229.8 324.49 227.9 333.22 226.58C337.54 225.89 340.91 225.36 343.23 224.99C344.35 224.8 345.21 224.65 345.83 224.55C346.41 224.44 346.71 224.38 346.71 224.36C346.71 224.34 346.4 224.36 345.81 224.44C345.19 224.52 344.32 224.64 343.2 224.78C340.87 225.11 337.5 225.6 333.17 226.22C324.43 227.53 311.85 229.43 296.31 231.77C265.18 236.61 222.24 243.29 174.78 250.67C127.35 258.08 84.4 264.73 53.27 269.35C37.71 271.67 25.1 273.48 16.38 274.67C12.02 275.27 8.63 275.7 6.33 275.97C4.03 276.24 2.81 276.34 2.8 276.25C2.79 276.16 3.98 275.9 6.26 275.48C8.54 275.06 11.91 274.48 16.25 273.76C24.93 272.32 37.51 270.34 53.07 267.96C84.18 263.2 127.18 256.87 174.68 249.96L174.67 249.95Z" fill="#EBEBEB"/>
<path d="M173.93 239.25C221.97 239.65 265.44 240.01 296.95 240.27C312.67 240.33 325.4 240.37 334.23 240.4C338.61 240.38 342.01 240.37 344.37 240.36C345.51 240.34 346.38 240.33 347.01 240.32C347.6 240.31 347.91 240.29 347.91 240.27C347.91 240.25 347.61 240.23 347.01 240.21C346.38 240.2 345.51 240.18 344.37 240.15C342.02 240.12 338.61 240.09 334.23 240.04C325.39 240 312.67 239.95 296.95 239.89C265.44 239.91 221.96 239.93 173.92 239.96C125.9 240.02 82.42 240.01 50.94 239.82C35.2 239.73 22.46 239.6 13.66 239.44C9.26 239.36 5.84 239.28 3.52 239.19C1.22 239.12 0 239.03 0 238.94C0 238.85 1.22 238.78 3.54 238.71C5.86 238.64 9.28 238.58 13.68 238.54C22.48 238.45 35.22 238.42 50.96 238.44C82.44 238.49 125.92 238.81 173.93 239.25Z" fill="#EBEBEB"/>
<path d="M174.87 228.56C222.26 236.32 265.15 243.34 296.24 248.42C311.76 250.88 324.32 252.88 333.05 254.26C337.38 254.91 340.74 255.42 343.07 255.77C344.19 255.93 345.06 256.05 345.68 256.13C346.27 256.21 346.57 256.24 346.58 256.22C346.58 256.2 346.29 256.14 345.7 256.02C345.08 255.91 344.22 255.76 343.11 255.56C340.79 255.17 337.43 254.61 333.12 253.89C324.4 252.5 311.83 250.5 296.32 248.02C265.19 243.21 222.24 236.58 174.77 229.25C127.33 221.96 84.37 215.29 53.31 210.28C37.78 207.78 25.21 205.69 16.54 204.19C12.2 203.44 8.84 202.83 6.57 202.39C4.29 201.95 3.11 201.67 3.12 201.59C3.13 201.5 4.35 201.61 6.65 201.9C8.95 202.19 12.34 202.65 16.69 203.28C25.4 204.54 37.99 206.46 53.53 208.9C84.62 213.77 127.52 220.76 174.88 228.55L174.87 228.56Z" fill="#EBEBEB"/>
<path d="M177.5 218.15C223.06 233.17 264.29 246.77 294.18 256.62C309.11 261.46 321.2 265.38 329.6 268.1C333.77 269.42 337.01 270.44 339.25 271.15C340.34 271.48 341.17 271.73 341.77 271.91C342.34 272.08 342.63 272.15 342.64 272.13C342.64 272.11 342.36 272 341.8 271.8C341.21 271.59 340.38 271.31 339.31 270.94C337.08 270.2 333.85 269.12 329.71 267.74C321.32 265.01 309.23 261.08 294.3 256.23C264.32 246.65 222.97 233.43 177.26 218.83C131.57 204.27 90.22 191.01 60.34 181.24C45.4 176.36 33.33 172.35 25.01 169.51C20.85 168.09 17.63 166.97 15.45 166.18C13.27 165.39 12.14 164.93 12.17 164.85C12.2 164.77 13.38 165.06 15.61 165.7C17.84 166.34 21.11 167.32 25.31 168.62C33.71 171.22 45.84 175.06 60.8 179.89C90.72 189.53 131.97 203.09 177.5 218.14V218.15Z" fill="#EBEBEB"/>
<path d="M181.76 208.28C224.36 230.18 262.91 250 290.85 264.37C304.83 271.47 316.14 277.22 323.99 281.21C327.9 283.16 330.94 284.68 333.04 285.72C334.06 286.21 334.84 286.59 335.41 286.87C335.95 287.12 336.22 287.24 336.23 287.23C336.23 287.21 335.98 287.06 335.46 286.78C334.91 286.49 334.14 286.08 333.14 285.54C331.06 284.46 328.04 282.9 324.17 280.89C316.32 276.89 305.01 271.14 291.04 264.03C262.97 249.91 224.23 230.44 181.44 208.92C138.65 187.44 99.92 167.94 71.98 153.65C58.01 146.51 46.72 140.68 38.96 136.59C35.08 134.55 32.07 132.94 30.05 131.82C28.03 130.7 26.98 130.08 27.02 130C27.06 129.92 28.18 130.4 30.28 131.38C32.38 132.36 35.45 133.84 39.39 135.77C47.27 139.64 58.63 145.32 72.64 152.41C100.65 166.57 139.22 186.37 181.78 208.29L181.76 208.28Z" fill="#EBEBEB"/>
<path d="M187.54 199.2C226.14 227.4 261.08 252.92 286.4 271.42C299.08 280.59 309.34 288.01 316.47 293.16C320.02 295.69 322.78 297.65 324.69 299.01C325.62 299.65 326.33 300.15 326.85 300.51C327.34 300.84 327.6 301.01 327.61 300.99C327.62 300.98 327.39 300.78 326.92 300.42C326.42 300.04 325.73 299.52 324.82 298.84C322.93 297.45 320.2 295.45 316.69 292.86C309.57 287.7 299.31 280.27 286.64 271.1C261.15 252.83 225.98 227.63 187.12 199.77C148.26 171.96 113.1 146.72 87.76 128.3C75.09 119.09 64.87 111.59 57.85 106.36C54.34 103.74 51.63 101.69 49.8 100.28C47.98 98.87 47.05 98.09 47.1 98.02C47.15 97.95 48.18 98.59 50.1 99.88C52.02 101.17 54.81 103.11 58.4 105.62C65.57 110.66 75.89 118.02 88.6 127.18C114.02 145.49 148.98 170.98 187.55 199.2H187.54Z" fill="#EBEBEB"/>
<path d="M194.68 191.11C228.37 224.89 258.85 255.45 280.95 277.61C292.03 288.61 300.99 297.51 307.22 303.7C310.33 306.74 312.75 309.11 314.42 310.74C315.24 311.52 315.86 312.12 316.31 312.55C316.74 312.95 316.97 313.15 316.98 313.14C316.99 313.13 316.79 312.9 316.39 312.47C315.96 312.02 315.35 311.4 314.57 310.59C312.93 308.93 310.54 306.53 307.49 303.44C301.27 297.25 292.31 288.34 281.24 277.34C258.94 255.38 228.18 225.09 194.18 191.61C160.17 158.18 129.43 127.86 107.31 105.77C96.25 94.73 87.33 85.76 81.22 79.51C78.16 76.39 75.81 73.94 74.23 72.27C72.65 70.59 71.86 69.68 71.92 69.62C71.98 69.56 72.9 70.35 74.59 71.92C76.28 73.49 78.74 75.83 81.88 78.87C88.17 84.94 97.2 93.8 108.31 104.8C130.54 126.78 161.05 157.33 194.69 191.12L194.68 191.11Z" fill="#EBEBEB"/>
<path d="M203 184.22C230.95 222.75 256.24 257.63 274.57 282.9C283.78 295.46 291.23 305.64 296.41 312.7C299 316.18 301.02 318.89 302.41 320.76C303.09 321.66 303.62 322.34 303.99 322.84C304.35 323.3 304.55 323.54 304.56 323.53C304.58 323.52 304.41 323.27 304.08 322.78C303.72 322.27 303.22 321.56 302.58 320.64C301.22 318.75 299.24 316.01 296.71 312.49C291.54 305.42 284.09 295.25 274.89 282.68C256.32 257.57 230.71 222.93 202.41 184.64C174.09 146.4 148.5 111.73 130.13 86.52C120.94 73.92 113.55 63.68 108.5 56.57C105.97 53.01 104.03 50.24 102.74 48.34C101.45 46.44 100.8 45.42 100.88 45.37C100.95 45.32 101.73 46.24 103.15 48.05C104.57 49.86 106.63 52.55 109.26 56.03C114.52 63 122.04 73.13 131.28 85.7C149.77 110.83 175.09 145.68 203 184.22Z" fill="#EBEBEB"/>
<path d="M212.31 178.69C233.8 221.06 253.26 259.4 267.36 287.19C274.46 301.02 280.21 312.22 284.21 319.99C286.22 323.83 287.78 326.81 288.86 328.87C289.39 329.86 289.8 330.62 290.1 331.17C290.38 331.68 290.54 331.94 290.56 331.94C290.58 331.94 290.46 331.66 290.2 331.12C289.93 330.56 289.55 329.79 289.06 328.78C288.01 326.7 286.5 323.69 284.55 319.83C280.56 312.05 274.82 300.85 267.73 287.02C253.37 259.36 233.57 221.19 211.68 179.02C189.77 136.88 169.99 98.7 155.84 70.97C148.76 57.11 143.09 45.86 139.23 38.06C137.3 34.16 135.82 31.12 134.84 29.04C133.86 26.97 133.39 25.86 133.47 25.82C133.55 25.78 134.17 26.81 135.29 28.82C136.41 30.82 138.02 33.8 140.06 37.64C144.15 45.33 149.98 56.5 157.11 70.34C171.39 98.01 190.87 136.34 212.32 178.71L212.31 178.69Z" fill="#EBEBEB"/>
<path d="M222.39 174.67C236.86 219.85 249.95 260.73 259.44 290.36C264.25 305.12 268.14 317.07 270.84 325.36C272.21 329.46 273.28 332.65 274.01 334.85C274.38 335.91 274.66 336.73 274.86 337.31C275.06 337.86 275.17 338.14 275.19 338.14C275.21 338.14 275.13 337.84 274.97 337.28C274.79 336.69 274.54 335.86 274.21 334.79C273.51 332.58 272.49 329.37 271.19 325.25C268.49 316.95 264.61 305 259.81 290.24C250.04 260.69 236.57 219.93 221.69 174.89C206.77 129.88 193.33 89.1 183.78 59.52C179 44.73 175.19 32.74 172.62 24.44C171.34 20.29 170.36 17.06 169.73 14.86C169.1 12.66 168.81 11.49 168.89 11.46C168.97 11.43 169.43 12.55 170.21 14.7C170.99 16.85 172.11 20.04 173.51 24.15C176.32 32.38 180.29 44.31 185.13 59.08C194.82 88.62 207.94 129.5 222.37 174.66L222.39 174.67Z" fill="#EBEBEB"/>
<path d="M232.99 172.27C240.07 219.13 246.48 261.53 251.12 292.27C253.51 307.59 255.45 320 256.8 328.61C257.5 332.87 258.04 336.19 258.42 338.48C258.61 339.58 258.76 340.43 258.87 341.04C258.98 341.62 259.04 341.91 259.06 341.91C259.08 341.91 259.06 341.61 258.98 341.03C258.9 340.42 258.78 339.56 258.63 338.45C258.29 336.15 257.8 332.83 257.17 328.56C255.83 319.95 253.9 307.54 251.52 292.22C246.59 261.53 239.79 219.18 232.28 172.39C224.73 125.63 217.97 83.27 213.26 52.57C210.9 37.22 209.05 24.79 207.84 16.19C207.23 11.89 206.79 8.55 206.51 6.28C206.24 4.01 206.14 2.81 206.22 2.8C206.31 2.79 206.58 3.96 207.01 6.21C207.44 8.46 208.03 11.78 208.76 16.06C210.22 24.62 212.24 37.03 214.66 52.36C219.51 83.03 225.95 125.44 232.99 172.28V172.27Z" fill="#EBEBEB"/>
<path d="M243.84 171.53C243.47 218.9 243.13 261.78 242.89 292.85C242.84 308.35 242.81 320.9 242.78 329.62C242.8 333.94 242.81 337.3 242.82 339.62C242.84 340.74 242.85 341.6 242.86 342.22C242.88 342.81 242.89 343.11 242.91 343.11C242.93 343.11 242.95 342.81 242.97 342.22C242.98 341.6 243 340.74 243.03 339.62C243.06 337.3 243.09 333.94 243.14 329.62C243.17 320.91 243.22 308.36 243.27 292.85C243.23 261.77 243.18 218.9 243.12 171.52C243.03 124.17 243.01 81.29 243.18 50.24C243.26 34.72 243.39 22.16 243.54 13.48C243.62 9.14 243.7 5.77 243.78 3.48C243.87 1.2 243.96 0 244.04 0C244.13 0 244.21 1.2 244.28 3.49C244.35 5.78 244.41 9.15 244.46 13.49C244.56 22.17 244.6 34.73 244.58 50.26C244.55 81.3 244.25 124.18 243.84 171.53Z" fill="#EBEBEB"/>
<path d="M254.68 172.45C246.85 219.19 239.76 261.49 234.62 292.15C232.13 307.46 230.12 319.85 228.72 328.45C228.06 332.72 227.55 336.04 227.19 338.33C227.03 339.44 226.91 340.29 226.82 340.9C226.74 341.48 226.71 341.78 226.73 341.78C226.75 341.78 226.82 341.49 226.93 340.91C227.04 340.3 227.2 339.45 227.4 338.35C227.79 336.06 228.36 332.75 229.09 328.49C230.49 319.89 232.52 307.5 235.02 292.19C239.87 261.48 246.57 219.12 253.97 172.31C261.33 125.52 268.06 83.15 273.12 52.51C275.65 37.19 277.75 24.8 279.27 16.25C280.03 11.97 280.64 8.66 281.09 6.41C281.54 4.17 281.81 2.99 281.9 3.01C281.99 3.02 281.88 4.22 281.59 6.49C281.3 8.76 280.83 12.1 280.2 16.39C278.93 24.98 276.99 37.4 274.53 52.73C269.61 83.39 262.55 125.7 254.68 172.42V172.45Z" fill="#EBEBEB"/>
<path d="M265.24 175.04C250.04 219.98 236.28 260.65 226.31 290.13C221.41 304.86 217.44 316.78 214.69 325.07C213.36 329.18 212.32 332.38 211.6 334.59C211.27 335.66 211.01 336.48 210.83 337.08C210.66 337.64 210.59 337.93 210.6 337.94C210.62 337.94 210.73 337.67 210.93 337.12C211.14 336.54 211.43 335.72 211.8 334.67C212.55 332.47 213.64 329.29 215.04 325.2C217.8 316.92 221.78 305 226.69 290.27C236.39 260.7 249.76 219.91 264.54 174.83C279.28 129.76 292.69 88.97 302.58 59.5C307.52 44.76 311.58 32.86 314.45 24.65C315.88 20.55 317.02 17.37 317.82 15.22C318.62 13.07 319.08 11.96 319.17 11.99C319.25 12.02 318.96 13.18 318.31 15.38C317.66 17.58 316.67 20.8 315.35 24.94C312.72 33.23 308.83 45.19 303.95 59.95C294.19 89.46 280.47 130.15 265.24 175.06V175.04Z" fill="#EBEBEB"/>
<path d="M275.25 179.23C253.07 221.25 232.99 259.28 218.45 286.85C211.26 300.64 205.44 311.8 201.4 319.55C199.43 323.4 197.89 326.4 196.83 328.47C196.33 329.48 195.94 330.25 195.67 330.8C195.41 331.33 195.29 331.6 195.31 331.61C195.33 331.62 195.48 331.36 195.77 330.85C196.07 330.31 196.48 329.55 197.02 328.56C198.11 326.51 199.7 323.53 201.73 319.71C205.78 311.96 211.61 300.81 218.81 287.03C233.1 259.34 252.83 221.13 274.62 178.91C296.37 136.69 316.13 98.49 330.6 70.93C337.83 57.14 343.74 46.01 347.88 38.35C349.95 34.52 351.58 31.55 352.71 29.56C353.84 27.56 354.47 26.53 354.55 26.57C354.63 26.61 354.15 27.72 353.16 29.78C352.17 31.85 350.67 34.88 348.71 38.76C344.79 46.54 339.04 57.74 331.86 71.56C317.52 99.19 297.47 137.24 275.27 179.23H275.25Z" fill="#EBEBEB"/>
<path d="M284.47 184.92C255.9 223.01 230.04 257.47 211.3 282.46C202.01 294.97 194.5 305.09 189.27 312.12C186.71 315.62 184.72 318.35 183.34 320.23C182.69 321.15 182.18 321.85 181.82 322.36C181.48 322.84 181.32 323.1 181.33 323.11C181.34 323.12 181.54 322.89 181.91 322.43C182.29 321.94 182.82 321.25 183.51 320.36C184.92 318.5 186.95 315.8 189.56 312.34C194.79 305.31 202.31 295.19 211.61 282.69C230.12 257.54 255.66 222.84 283.87 184.5C312.04 146.16 337.61 111.47 356.28 86.47C365.61 73.97 373.21 63.89 378.51 56.96C381.16 53.5 383.24 50.82 384.67 49.02C386.1 47.22 386.89 46.3 386.96 46.36C387.03 46.41 386.38 47.43 385.07 49.32C383.76 51.21 381.8 53.97 379.25 57.51C374.15 64.59 366.69 74.77 357.41 87.31C338.86 112.39 313.03 146.89 284.44 184.93L284.47 184.92Z" fill="#EBEBEB"/>
<path d="M292.67 191.95C258.44 225.19 227.46 255.27 205.01 277.08C193.86 288.01 184.84 296.86 178.57 303.01C175.49 306.08 173.09 308.46 171.44 310.11C170.65 310.91 170.04 311.53 169.61 311.98C169.2 312.41 169 312.63 169.01 312.64C169.02 312.65 169.25 312.45 169.69 312.05C170.14 311.62 170.78 311.03 171.6 310.25C173.28 308.63 175.72 306.28 178.84 303.26C185.11 297.12 194.14 288.28 205.29 277.35C227.54 255.34 258.24 224.99 292.16 191.44C326.04 157.88 356.77 127.54 379.15 105.71C390.34 94.79 399.43 86 405.77 79.96C408.94 76.94 411.41 74.62 413.11 73.06C414.81 71.5 415.73 70.72 415.79 70.78C415.85 70.84 415.05 71.75 413.46 73.41C411.87 75.08 409.5 77.5 406.42 80.61C400.26 86.82 391.29 95.73 380.15 106.7C357.87 128.63 326.91 158.74 292.68 191.94L292.67 191.95Z" fill="#EBEBEB"/>
<path d="M299.67 200.16C260.61 227.75 225.27 252.71 199.65 270.81C186.92 279.9 176.61 287.26 169.45 292.37C165.92 294.93 163.18 296.92 161.28 298.29C160.37 298.96 159.67 299.48 159.17 299.85C158.7 300.21 158.46 300.4 158.47 300.41C158.48 300.43 158.74 300.26 159.23 299.94C159.74 299.59 160.46 299.1 161.4 298.46C163.32 297.12 166.09 295.17 169.66 292.66C176.82 287.56 187.14 280.21 199.88 271.13C225.33 252.81 260.44 227.52 299.24 199.59C338 171.64 373.14 146.38 398.69 128.25C411.46 119.18 421.83 111.89 429.04 106.9C432.64 104.41 435.46 102.49 437.38 101.21C439.3 99.93 440.34 99.3 440.39 99.37C440.44 99.44 439.51 100.21 437.67 101.61C435.84 103.01 433.11 105.05 429.58 107.64C422.52 112.83 412.25 120.26 399.51 129.38C374.04 147.63 338.71 172.62 299.66 200.17L299.67 200.16Z" fill="#EBEBEB"/>
<path d="M305.28 209.34C262.33 230.56 223.46 249.77 195.29 263.69C181.27 270.7 169.92 276.38 162.04 280.32C158.15 282.3 155.12 283.84 153.03 284.91C152.03 285.44 151.25 285.84 150.7 286.13C150.18 286.41 149.92 286.56 149.92 286.58C149.92 286.6 150.21 286.48 150.75 286.23C151.31 285.96 152.1 285.59 153.12 285.1C155.23 284.07 158.28 282.57 162.2 280.65C170.08 276.71 181.44 271.04 195.46 264.04C223.5 249.86 262.19 230.31 304.94 208.7C347.65 187.07 386.36 167.54 414.47 153.56C428.52 146.57 439.92 140.97 447.83 137.15C451.78 135.24 454.87 133.78 456.97 132.82C459.07 131.86 460.2 131.39 460.24 131.47C460.28 131.55 459.23 132.17 457.2 133.27C455.17 134.37 452.15 135.96 448.25 137.98C440.45 142.02 429.13 147.77 415.11 154.82C387.06 168.92 348.21 188.16 305.26 209.34H305.28Z" fill="#EBEBEB"/>
<path d="M309.36 219.28C263.56 233.58 222.11 246.51 192.07 255.89C177.11 260.64 164.99 264.49 156.58 267.16C152.42 268.51 149.19 269.57 146.95 270.3C145.88 270.66 145.05 270.94 144.46 271.14C143.9 271.34 143.62 271.45 143.62 271.46C143.62 271.48 143.92 271.4 144.49 271.24C145.09 271.06 145.93 270.81 147.02 270.49C149.26 269.8 152.52 268.79 156.69 267.5C165.1 264.84 177.22 261 192.19 256.26C222.15 246.61 263.47 233.3 309.14 218.59C354.77 203.85 396.12 190.57 426.1 181.13C441.09 176.41 453.25 172.64 461.67 170.1C465.88 168.83 469.16 167.87 471.39 167.24C473.62 166.62 474.81 166.33 474.83 166.41C474.86 166.49 473.72 166.94 471.54 167.72C469.36 168.49 466.13 169.59 461.96 170.98C453.62 173.76 441.52 177.68 426.54 182.46C396.59 192.03 355.15 205 309.36 219.26V219.28Z" fill="#EBEBEB"/>
<path d="M311.81 229.73C264.3 236.74 221.3 243.09 190.14 247.69C174.6 250.06 162.03 251.98 153.3 253.31C148.98 254 145.62 254.54 143.29 254.91C142.17 255.1 141.31 255.25 140.69 255.36C140.11 255.47 139.81 255.53 139.81 255.55C139.81 255.57 140.12 255.55 140.71 255.47C141.33 255.39 142.2 255.27 143.32 255.12C145.65 254.78 149.02 254.3 153.35 253.67C162.08 252.34 174.66 250.43 190.2 248.08C221.32 243.2 264.26 236.47 311.7 229.03C359.12 221.56 402.06 214.86 433.18 210.19C448.74 207.85 461.34 206.02 470.06 204.82C474.42 204.22 477.81 203.78 480.11 203.51C482.41 203.24 483.63 203.14 483.64 203.23C483.65 203.32 482.46 203.58 480.19 204.01C477.91 204.44 474.55 205.02 470.2 205.74C461.52 207.19 448.94 209.19 433.39 211.59C402.29 216.39 359.29 222.77 311.8 229.75L311.81 229.73Z" fill="#EBEBEB"/>
<path d="M373.92 361.28C368.26 354.62 360.44 350.61 355 349.08C349.91 347.65 342.19 346.34 334.32 348.26C329.44 349.45 325.16 351.75 321.61 355.1C317.4 359.06 314.19 364.53 312.07 371.35C311.75 372.37 311.86 373.46 312.37 374.4C312.88 375.35 313.74 376.03 314.78 376.32L328.13 380.08C330.01 380.61 332.03 379.66 332.82 377.87C334.59 373.85 339.06 367.5 349.1 370.14C356.75 372.16 358.34 378.55 358.67 381.2C359.2 385.52 357.5 389.99 354.12 393.15C348.92 398.01 342.13 397.07 338.54 396.07C334.42 394.93 330.13 397.33 328.98 401.42L324.94 415.79C324.35 417.89 325.58 420.08 327.67 420.67L340.68 424.33C342.78 424.92 344.97 423.69 345.56 421.6L346.41 418.58C346.43 418.51 346.49 418.46 346.57 418.45C349.81 418.25 356.22 417.35 362.81 413.69C371.22 409.01 376.92 401.52 379.76 391.42C383.83 376.97 378.83 367.06 373.92 361.28Z" fill="#E0E0E0"/>
<path d="M333.81 426.3L332.67 425.98C327.23 424.45 321.56 427.63 320.02 433.07C318.49 438.51 321.67 444.18 327.11 445.72L328.25 446.04C333.69 447.57 339.36 444.39 340.9 438.95C342.43 433.51 339.25 427.84 333.81 426.3Z" fill="#E0E0E0"/>
<path d="M402.6 281.69C398.67 279.54 394.19 279.05 391.3 279.32C388.6 279.57 384.66 280.36 381.25 282.71C379.13 284.17 377.5 286.06 376.42 288.31C375.13 290.98 374.6 294.18 374.83 297.84C374.86 298.39 375.11 298.89 375.53 299.25C375.95 299.61 376.48 299.78 377.04 299.73L384.12 299.08C385.12 298.99 385.91 298.16 385.96 297.16C386.07 294.91 387.05 291.05 392.34 290.47C396.37 290.03 398.31 292.8 398.95 294.02C400 295.99 400 298.44 398.95 300.58C397.35 303.86 393.92 304.65 392.03 304.83C389.85 305.04 388.23 306.97 388.43 309.14L389.13 316.76C389.23 317.87 390.22 318.7 391.33 318.59L398.23 317.96C399.34 317.86 400.17 316.87 400.06 315.76L399.91 314.16C399.91 314.16 399.93 314.09 399.96 314.07C401.47 313.38 404.38 311.78 406.86 308.81C410.03 305.03 411.39 300.39 410.9 295.04C410.2 287.38 405.99 283.54 402.58 281.68L402.6 281.69Z" fill="#F5F5F5"/>
<path d="M395.3 320.18L394.7 320.24C391.81 320.5 389.68 323.07 389.94 325.95C390.2 328.83 392.77 330.97 395.65 330.71L396.25 330.65C399.14 330.39 401.27 327.82 401.01 324.94C400.75 322.05 398.18 319.92 395.3 320.18Z" fill="#F5F5F5"/>
<path d="M118.92 118.95C116.26 116.33 112.77 114.92 110.4 114.47C108.18 114.05 104.84 113.79 101.56 114.9C99.53 115.59 97.79 116.73 96.4 118.29C94.76 120.14 93.6 122.59 92.95 125.57C92.85 126.02 92.94 126.47 93.19 126.86C93.44 127.24 93.84 127.5 94.29 127.59L100.12 128.69C100.94 128.84 101.77 128.36 102.03 127.57C102.63 125.79 104.3 122.91 108.67 123.66C112.01 124.23 112.92 126.89 113.16 128.01C113.55 129.83 113 131.8 111.67 133.28C109.64 135.55 106.71 135.4 105.14 135.11C103.34 134.78 101.6 135.96 101.27 137.75L100.09 144.03C99.92 144.95 100.52 145.83 101.44 146L107.12 147.07C108.04 147.24 108.92 146.64 109.09 145.72L109.34 144.4C109.34 144.4 109.37 144.34 109.4 144.34C110.77 144.13 113.47 143.51 116.14 141.7C119.54 139.39 121.69 135.98 122.52 131.57C123.71 125.26 121.2 121.23 118.89 118.95H118.92Z" fill="#F5F5F5"/>
<path d="M104.29 148.17L103.79 148.08C101.41 147.63 99.12 149.2 98.67 151.58C98.22 153.96 99.79 156.25 102.17 156.7L102.67 156.79C105.05 157.24 107.34 155.67 107.79 153.29C108.24 150.91 106.67 148.62 104.29 148.17Z" fill="#F5F5F5"/>
<path d="M392.05 120.96C388.13 118.79 383.65 118.29 380.76 118.54C378.06 118.78 374.12 119.55 370.7 121.89C368.57 123.35 366.94 125.23 365.85 127.47C364.55 130.13 364 133.34 364.22 136.99C364.25 137.54 364.5 138.04 364.92 138.4C365.34 138.76 365.87 138.93 366.42 138.89L373.51 138.27C374.51 138.18 375.3 137.36 375.36 136.36C375.48 134.11 376.47 130.25 381.77 129.7C385.81 129.28 387.73 132.06 388.37 133.27C389.41 135.25 389.4 137.7 388.35 139.83C386.74 143.1 383.31 143.88 381.41 144.06C379.23 144.26 377.6 146.19 377.79 148.36L378.46 155.99C378.56 157.1 379.54 157.93 380.66 157.83L387.56 157.23C388.67 157.13 389.5 156.15 389.4 155.03L389.26 153.43C389.26 153.43 389.28 153.36 389.31 153.34C390.83 152.65 393.74 151.06 396.24 148.11C399.42 144.34 400.8 139.71 400.33 134.36C399.66 126.69 395.47 122.84 392.06 120.96H392.05Z" fill="#EBEBEB"/>
<path d="M384.6 159.42L384 159.47C381.11 159.72 378.97 162.28 379.22 165.16C379.47 168.05 382.03 170.19 384.91 169.94L385.51 169.89C388.4 169.64 390.54 167.08 390.29 164.2C390.04 161.31 387.48 159.17 384.6 159.42Z" fill="#EBEBEB"/>
<path d="M179 351.39C174.09 349.08 168.64 348.82 165.17 349.35C161.92 349.85 157.22 351.09 153.27 354.19C150.82 356.12 148.99 358.51 147.84 361.32C146.48 364.64 146.07 368.55 146.62 372.95C146.7 373.61 147.04 374.19 147.57 374.6C148.1 375 148.76 375.17 149.42 375.07L157.93 373.77C159.13 373.59 160.03 372.53 160.01 371.32C159.98 368.59 160.87 363.86 167.23 362.77C172.07 361.95 174.61 365.15 175.48 366.57C176.89 368.88 177.08 371.84 175.98 374.5C174.29 378.58 170.21 379.79 167.93 380.15C165.31 380.56 163.5 383.02 163.9 385.63L165.3 394.79C165.5 396.13 166.76 397.05 168.1 396.84L176.39 395.57C177.73 395.37 178.65 394.11 178.44 392.77L178.15 390.85C178.15 390.85 178.17 390.76 178.21 390.74C179.99 389.79 183.39 387.64 186.17 383.88C189.72 379.08 191.02 373.38 190.03 366.94C188.62 357.73 183.25 353.41 178.99 351.4L179 351.39Z" fill="#EBEBEB"/>
<path d="M173.01 398.44L172.28 398.55C168.81 399.08 166.42 402.34 166.95 405.8C167.48 409.27 170.74 411.66 174.2 411.13L174.93 411.02C178.4 410.49 180.79 407.23 180.26 403.77C179.73 400.3 176.47 397.91 173.01 398.44Z" fill="#EBEBEB"/>
<path d="M104.35 178.05C97.45 174.82 89.79 174.47 84.92 175.22C80.36 175.93 73.76 177.69 68.22 182.05C64.78 184.76 62.22 188.14 60.61 192.08C58.71 196.75 58.14 202.25 58.92 208.43C59.04 209.36 59.51 210.18 60.26 210.74C61.01 211.31 61.94 211.54 62.87 211.39L74.83 209.54C76.52 209.28 77.77 207.8 77.75 206.09C77.7 202.26 78.95 195.6 87.87 194.06C94.67 192.89 98.25 197.39 99.47 199.37C101.46 202.61 101.73 206.77 100.19 210.5C97.82 216.24 92.09 217.95 88.89 218.46C85.21 219.04 82.67 222.5 83.24 226.17L85.23 239.04C85.52 240.92 87.29 242.21 89.17 241.92L100.82 240.11C102.7 239.82 103.99 238.05 103.7 236.17L103.28 233.47C103.27 233.41 103.3 233.34 103.36 233.31C105.86 231.98 110.62 228.95 114.52 223.65C119.5 216.89 121.31 208.88 119.91 199.84C117.91 186.91 110.35 180.85 104.36 178.04L104.35 178.05Z" fill="#EBEBEB"/>
<path d="M96.06 244.16L95.04 244.32C90.17 245.08 86.82 249.65 87.57 254.53C88.32 259.4 92.9 262.75 97.78 262L98.8 261.84C103.67 261.08 107.02 256.51 106.27 251.63C105.51 246.76 100.94 243.41 96.06 244.16Z" fill="#EBEBEB"/>
<path d="M272.76 96.55L281.77 98.05C286.2 103.35 292.27 107.4 299.54 109.34C316.7 113.91 334.85 104.49 341.03 87.84C348.17 68.61 337.27 47.37 317.29 42.07C300.33 37.57 282.39 46.7 276.02 63.06C272.86 71.18 272.96 79.67 275.6 87.21V87.19L272.75 96.56L272.76 96.55Z" fill="white"/>
<path d="M272.76 96.55C272.76 96.55 272.81 96.35 272.92 95.95C273.04 95.53 273.21 94.93 273.44 94.16C273.91 92.55 274.6 90.19 275.5 87.15L275.56 86.94L275.69 87.12V87.14L275.51 87.24C274.07 83.17 272.84 77.36 273.87 70.52C274.37 67.11 275.46 63.51 277.22 59.93C279.01 56.37 281.56 52.89 284.86 49.88C288.17 46.88 292.24 44.38 296.85 42.75C301.44 41.13 306.59 40.32 311.81 40.88C317.03 41.39 322.29 43.13 327 46.04C331.74 48.92 335.78 53.14 338.68 58.12C340.21 60.61 341.24 63.34 342.11 66.06C342.31 66.75 342.44 67.45 342.6 68.14C342.74 68.84 342.96 69.52 343.02 70.23C343.11 70.93 343.19 71.63 343.27 72.33L343.39 73.38L343.41 74.43C343.61 80.03 342.42 85.5 340.24 90.32C338.08 95.17 334.74 99.24 330.99 102.4C327.22 105.57 322.95 107.82 318.66 109.15C314.35 110.47 310.04 110.89 306.04 110.62C305.05 110.5 304.07 110.39 303.11 110.28C302.15 110.15 301.23 109.89 300.32 109.71C298.49 109.31 296.79 108.71 295.19 108.07C288.77 105.44 284.42 101.42 281.69 98.14L281.75 98.18C278.85 97.67 276.59 97.27 275.04 97C274.3 96.87 273.73 96.76 273.32 96.69C272.94 96.62 272.75 96.58 272.75 96.58C272.75 96.58 272.97 96.6 273.36 96.66C273.77 96.72 274.35 96.81 275.11 96.93C276.65 97.17 278.89 97.53 281.78 97.98H281.82L281.85 98.02C284.6 101.25 288.95 105.2 295.32 107.77C296.91 108.4 298.6 108.99 300.4 109.37C301.31 109.55 302.22 109.79 303.17 109.92C304.12 110.03 305.09 110.14 306.07 110.25C310.02 110.5 314.29 110.07 318.54 108.75C322.78 107.42 326.98 105.19 330.7 102.05C334.4 98.91 337.69 94.9 339.8 90.12C341.93 85.36 343.11 79.97 342.9 74.46L342.88 73.42L342.76 72.39C342.68 71.7 342.59 71.01 342.51 70.32C342.45 69.62 342.23 68.95 342.09 68.27C341.93 67.59 341.8 66.89 341.6 66.22C340.74 63.54 339.73 60.85 338.22 58.4C335.37 53.49 331.38 49.33 326.72 46.49C322.08 43.62 316.89 41.91 311.76 41.39C306.61 40.83 301.54 41.62 297 43.21C292.45 44.81 288.43 47.27 285.15 50.22C281.88 53.19 279.35 56.61 277.56 60.12C275.8 63.65 274.7 67.22 274.19 70.59C273.14 77.37 274.31 83.13 275.7 87.19L275.95 87.93L275.51 87.28V87.26L275.69 87.23C274.75 90.23 274.03 92.55 273.53 94.14C273.28 94.92 273.09 95.52 272.96 95.94C272.83 96.35 272.75 96.56 272.75 96.56L272.76 96.55Z" fill="#263238"/>
<path d="M315.8 59.66C313.13 57.89 309.97 57.28 307.9 57.29C305.96 57.3 303.11 57.63 300.54 59.1C298.94 60.01 297.67 61.26 296.76 62.8C295.68 64.62 295.11 66.87 295.05 69.49C295.05 69.88 295.19 70.25 295.46 70.53C295.74 70.81 296.11 70.96 296.5 70.96L301.58 70.93C302.3 70.93 302.91 70.39 303 69.68C303.21 68.09 304.14 65.4 307.94 65.31C310.84 65.24 312.04 67.33 312.43 68.23C313.06 69.7 312.91 71.44 312.04 72.9C310.7 75.14 308.22 75.5 306.86 75.51C305.29 75.53 304.03 76.81 304.04 78.36L304.08 83.83C304.08 84.63 304.74 85.27 305.54 85.27L310.49 85.24C311.29 85.24 311.93 84.58 311.93 83.78V82.63C311.93 82.63 311.93 82.58 311.97 82.57C313.09 82.17 315.26 81.2 317.2 79.24C319.68 76.74 320.93 73.52 320.9 69.68C320.86 64.18 318.1 61.2 315.78 59.67L315.8 59.66Z" fill="#3498DB"/>
<path d="M308.29 86.61H307.86C305.79 86.63 304.12 88.32 304.13 90.39C304.14 92.46 305.84 94.13 307.91 94.12H308.34C310.41 94.1 312.08 92.41 312.07 90.34C312.06 88.27 310.36 86.6 308.29 86.61Z" fill="#3498DB"/>
<path d="M322.09 141.63C298.48 125.75 270.41 120.09 252.01 120.09C234.78 120.09 209.42 122.81 186.47 135.75C172.22 143.79 160.84 154.78 152.67 168.4C142.99 184.54 137.74 204.51 137.09 227.75C136.99 231.24 138.28 234.54 140.72 237.04C143.17 239.56 146.45 240.95 149.97 240.95H195.15C201.53 240.95 207.01 236.19 207.9 229.89C209.9 215.72 218.31 191.87 252.12 191.28C277.88 190.84 288.5 209.48 291.88 217.52C297.37 230.6 295.98 246.11 288.15 259.02C276.13 278.84 254.01 281.88 241.9 281.92C227.97 281.97 216.64 293.28 216.64 307.13V355.75C216.64 362.85 222.42 368.63 229.52 368.63H273.54C280.64 368.63 286.42 362.85 286.42 355.75V345.54C286.42 345.29 286.57 345.08 286.81 345C296.78 341.5 316.11 333.05 333.52 315.74C355.75 293.64 367.01 265.12 367.01 230.97C367.01 182.1 342.59 155.41 322.11 141.64L322.09 141.63Z" fill="#B9D7FF"/>
<path d="M250.4 391.31H253.95C271.43 391.31 285.65 405.53 285.65 423.01C285.65 440.49 271.43 454.71 253.95 454.71H250.4C232.92 454.71 218.69 440.49 218.69 423.01C218.69 405.53 232.91 391.31 250.4 391.31Z" fill="#263238"/>
<path d="M229.33 378.03H273.33C280.43 378.03 286.2 372.44 286.2 365.56V345.68C286.2 345.44 286.35 345.24 286.59 345.16C291.79 343.39 299.07 340.15 307.3 335.09C279.19 334.89 227.94 334.61 216.46 335.02V365.56C216.46 372.44 222.23 378.03 229.33 378.03Z" fill="#263238"/>
<path d="M265.57 157.78L237.33 75.78C231.37 55.25 214.45 41.61 194.09 48.13L192.24 48.84C173.66 56.02 163.7 76.26 169.36 95.35C174.63 113.12 180.68 132.68 184.36 141.88C191.99 160.92 211.96 155.58 211.96 155.58C212 155.57 216.41 168.27 218.33 173.98L228.67 184.2L232.94 179.53L265.55 157.77L265.57 157.78Z" fill="#FFBF9D"/>
<path d="M211.97 155.59C211.97 155.59 224.31 151.64 234.04 138.6C234.04 138.6 233.6 155.3 213.84 160.96L211.97 155.6V155.59Z" fill="#FF9A6C"/>
<path d="M183.18 108.31C183.69 109.77 185.34 110.55 186.88 110.05C188.41 109.55 189.25 107.96 188.74 106.5C188.23 105.04 186.58 104.26 185.04 104.76C183.5 105.26 182.67 106.85 183.17 108.32L183.18 108.31Z" fill="#263238"/>
<path d="M176.39 101.31C176.87 101.54 178.34 99.2 181.29 98.07C184.21 96.9 186.96 97.58 187.14 97.1C187.24 96.88 186.64 96.37 185.44 96.05C184.25 95.73 182.42 95.67 180.59 96.39C178.76 97.11 177.48 98.38 176.86 99.41C176.22 100.45 176.17 101.22 176.4 101.31H176.39Z" fill="#263238"/>
<path d="M207.77 98.56C208.25 98.79 209.73 96.45 212.67 95.33C215.59 94.16 218.34 94.84 218.52 94.36C218.61 94.14 218.02 93.63 216.82 93.31C215.63 92.99 213.8 92.93 211.97 93.65C210.14 94.37 208.86 95.64 208.24 96.67C207.61 97.71 207.55 98.48 207.77 98.57V98.56Z" fill="#263238"/>
<path d="M203.66 117.53C203.61 117.36 201.66 117.75 198.55 118.51C197.77 118.72 197 118.85 196.68 118.38C196.29 117.91 196.29 116.98 196.32 115.96C196.32 113.87 196.32 111.68 196.33 109.38C196.27 100.05 195.92 92.49 195.54 92.5C195.16 92.5 194.91 100.08 194.97 109.41C195 111.7 195.03 113.89 195.07 115.98C195.12 116.94 195 118.1 195.82 119.08C196.24 119.56 196.95 119.76 197.48 119.7C198.02 119.66 198.44 119.51 198.82 119.38C201.86 118.39 203.72 117.69 203.66 117.52V117.53Z" fill="#263238"/>
<path d="M200.97 82.03C201.66 82.63 204.21 80.73 207.65 79.32C211.07 77.83 214.2 77.32 214.25 76.41C214.26 75.98 213.41 75.53 211.96 75.4C210.51 75.26 208.46 75.5 206.4 76.37C204.34 77.24 202.74 78.54 201.83 79.68C200.91 80.82 200.64 81.74 200.96 82.03H200.97Z" fill="#263238"/>
<path d="M172.91 92.72C173.77 93.16 175.92 91.58 178.81 90.48C181.66 89.29 184.32 88.96 184.63 88.05C184.75 87.62 184.12 87.09 182.81 86.85C181.52 86.61 179.56 86.74 177.59 87.53C175.62 88.32 174.12 89.56 173.37 90.62C172.6 91.69 172.52 92.5 172.91 92.73V92.72Z" fill="#263238"/>
<path d="M240.93 89.63C241.2 89.36 252.58 80.66 257.21 93.91C261.85 107.15 247.59 109.08 247.44 108.71C247.28 108.34 240.93 89.64 240.93 89.64V89.63Z" fill="#FFBF9D"/>
<path d="M249.73 102.27C249.77 102.21 250.02 102.35 250.47 102.39C250.91 102.43 251.61 102.32 252.21 101.82C253.43 100.82 253.83 98.18 253.06 95.77C252.67 94.55 252.02 93.49 251.26 92.69C250.52 91.86 249.65 91.41 248.9 91.53C248.14 91.61 247.79 92.21 247.76 92.64C247.71 93.07 247.89 93.31 247.83 93.35C247.8 93.4 247.47 93.23 247.38 92.64C247.34 92.36 247.38 91.99 247.61 91.63C247.84 91.26 248.26 90.96 248.77 90.85C249.82 90.56 251.06 91.18 251.9 92.06C252.79 92.92 253.56 94.1 253.99 95.47C254.84 98.17 254.35 101.14 252.63 102.37C251.78 102.94 250.91 102.93 250.4 102.76C249.88 102.58 249.7 102.31 249.74 102.26L249.73 102.27Z" fill="#FF9A6C"/>
<path d="M213.65 116.2C213.18 116.33 214.2 119.38 212.31 122.43C210.43 125.48 207.06 126.23 207.17 126.66C207.19 126.87 208.09 127.01 209.48 126.59C210.84 126.19 212.67 125.09 213.82 123.23C214.97 121.37 215.06 119.36 214.75 118.07C214.44 116.75 213.84 116.11 213.64 116.2H213.65Z" fill="#263238"/>
<path d="M136.3 86.06C136.24 85.21 136.58 84.37 137.13 83.71C138.33 82.28 140.12 81.78 141.8 81.16C145.98 79.61 149.76 77.07 152.84 73.85C151.3 73.65 149.8 73.27 148.4 72.61C145.51 71.23 143.13 68.4 143.1 65.19C143.1 64.59 143.21 63.92 143.69 63.56C144.46 62.99 145.51 63.57 146.34 64.03C149.09 65.54 151.24 65.84 154.08 64.51C155.84 63.68 157.47 62.65 158.59 61.25C158.63 61.17 158.65 61.09 158.69 61.01C159.13 60.06 159.56 59.14 159.99 58.25C163.23 51.56 166.31 46.63 170.09 43.3C175.63 38.42 186.07 33.56 193.43 32.95C200.79 32.34 208.77 35.68 212.14 42.25C214.79 37.72 220.47 35.75 225.73 35.98L225.83 35.89C231.6 35.91 236.42 40.3 239.77 44.99C239.95 45.25 240.13 45.51 240.31 45.77C243.01 47.91 246.2 49.43 249.58 50.08C250.18 50.19 250.87 50.35 251.13 50.9C251.39 51.44 251.08 52.08 250.73 52.57C249.81 53.88 248.58 54.97 247.19 55.76C248.1 56.84 249.07 57.85 250.16 58.76C251.08 59.54 252.18 60.47 252.04 61.66C251.93 62.59 251.04 63.26 250.12 63.44C249.2 63.62 248.26 63.41 247.35 63.2C248.4 64.37 249.46 65.53 250.51 66.7C248.77 67.68 246.8 68.2 244.8 68.29C245.43 73.56 247.8 82.9 247.71 86.66C244.22 87.96 243.23 87.88 241.67 89.09C239.65 90.66 241.95 94.41 238.56 94.31C236.83 94.26 232.48 89.32 231.42 87.96C224.43 78.89 219.44 68.29 216.88 57.12C213.96 55.61 210.75 54.66 207.47 54.35L207.77 54.48C201.7 54.51 194.92 54.82 190.68 59.16C187.39 62.53 186.51 67.49 184.69 71.84C181.25 80.08 176.04 85.67 167.75 88.99C169.05 95.1 172.19 104.73 173.83 110.29L165.33 101.02V101.07C164.74 100.56 164.2 100.03 163.68 99.49L163.51 99.33V99.31C162.66 98.44 161.84 97.56 160.88 96.75C160.87 96.77 160.86 96.79 160.84 96.82C158.8 100.47 153.05 98.02 154.26 94.02C154.5 93.23 154.85 92.47 155.32 91.78C154.42 93.52 152.62 94.84 150.66 94.92C148.7 95 146.69 93.69 146.2 91.79C145.86 90.49 146.36 89.05 147.33 88.15C145.01 89.17 142.39 89.51 139.89 89.06C138.25 88.76 136.46 87.95 136.32 86.08L136.3 86.06Z" fill="#263238"/>
<path d="M206.82 46.62C206.8 46.68 207.81 46.85 209.39 47.71C210.95 48.57 212.98 50.32 214.63 53.09C215.46 54.46 216.23 56.05 216.86 57.84C217.5 59.62 218.03 61.58 218.6 63.64C219.18 65.7 219.78 67.88 220.69 70.04C221.14 71.12 221.67 72.2 222.31 73.24C222.94 74.26 223.65 75.35 224.82 76.01C225.76 76.55 226.99 76.5 227.88 75.97C228.79 75.46 229.47 74.64 229.85 73.71C230.58 71.82 230.24 69.86 229.98 68.13L229.59 68.32C230.77 69.55 231.96 70.75 233.38 71.55C234.78 72.36 236.43 72.64 237.87 72.27C238.59 72.09 239.25 71.73 239.74 71.22C240.25 70.71 240.51 70.05 240.63 69.41C240.73 68.76 240.67 68.11 240.44 67.55C240.2 66.99 239.79 66.52 239.29 66.26L239.15 66.52C241.24 67.69 243.14 68.05 244.41 68.18C245.05 68.24 245.54 68.24 245.88 68.23C246.21 68.21 246.38 68.2 246.38 68.18C246.38 68.17 246.21 68.16 245.88 68.15C245.55 68.13 245.06 68.11 244.43 68.03C243.18 67.86 241.32 67.46 239.3 66.28L239.16 66.54C240.06 67 240.52 68.2 240.3 69.37C240.19 69.95 239.94 70.54 239.49 70.99C239.05 71.44 238.44 71.76 237.78 71.92C236.45 72.24 234.91 71.98 233.6 71.2C232.26 70.43 231.1 69.26 229.93 68.03L229.43 67.51L229.54 68.23C229.8 69.96 230.1 71.85 229.42 73.56C229.08 74.39 228.45 75.13 227.66 75.58C226.87 76.04 225.87 76.08 225.06 75.62C224.04 75.06 223.35 74.03 222.73 73.02C222.11 72.01 221.59 70.95 221.14 69.89C220.24 67.76 219.63 65.6 219.04 63.55C218.46 61.49 217.91 59.53 217.25 57.73C216.6 55.93 215.79 54.32 214.94 52.94C213.23 50.15 211.12 48.4 209.5 47.57C207.87 46.74 206.84 46.64 206.84 46.64L206.82 46.62Z" fill="#455A64"/>
<path d="M153.54 86.58C153.54 86.58 153.61 86.61 153.74 86.66C153.9 86.71 154.1 86.77 154.35 86.84C154.62 86.92 154.95 87.01 155.36 87.08C155.76 87.15 156.23 87.25 156.76 87.29C158.86 87.51 162.04 87.34 165.58 85.86C169.08 84.4 172.92 81.62 175.75 77.42C178.64 73.27 180.59 67.98 181.71 62.31C182.29 59.47 182.59 56.66 183.08 53.99C183.55 51.32 184.22 48.78 185.33 46.57C186.42 44.35 187.92 42.47 189.72 41.22C190.61 40.58 191.58 40.16 192.54 39.84C193.51 39.55 194.49 39.43 195.42 39.41C197.29 39.38 198.96 39.83 200.32 40.42C201.68 41.02 202.73 41.78 203.51 42.48C205.02 43.95 205.47 45.08 205.53 45.03C205.53 45.03 205.51 44.96 205.44 44.83C205.36 44.68 205.26 44.49 205.14 44.27C204.86 43.78 204.37 43.11 203.63 42.34C202.86 41.61 201.81 40.8 200.43 40.16C199.05 39.53 197.35 39.05 195.42 39.06C194.46 39.06 193.45 39.19 192.44 39.48C191.44 39.79 190.41 40.23 189.49 40.88C187.62 42.17 186.06 44.1 184.93 46.36C183.78 48.62 183.1 51.21 182.61 53.9C182.12 56.59 181.81 59.39 181.23 62.21C180.12 67.84 178.2 73.07 175.37 77.17C172.61 81.32 168.87 84.06 165.43 85.54C161.97 87.04 158.84 87.26 156.76 87.1C154.66 86.93 153.55 86.52 153.53 86.58H153.54Z" fill="#455A64"/>
<path d="M148.77 78.69C148.77 78.69 149.07 78.81 149.64 78.93C150.2 79.06 151.03 79.18 152.07 79.25C153.1 79.33 154.34 79.31 155.7 79.17C157.06 79.01 158.55 78.73 160.06 78.26C161.57 77.77 162.95 77.15 164.15 76.5C165.34 75.82 166.37 75.13 167.17 74.47C167.97 73.82 168.59 73.24 168.97 72.81C169.36 72.38 169.56 72.14 169.54 72.12C169.48 72.06 168.6 72.98 166.96 74.2C166.15 74.82 165.12 75.47 163.94 76.11C162.75 76.73 161.39 77.33 159.91 77.8C158.43 78.26 156.98 78.55 155.64 78.73C154.3 78.89 153.09 78.94 152.07 78.91C150.03 78.85 148.78 78.6 148.76 78.69H148.77Z" fill="#455A64"/>
<path d="M185.04 217.31C184.87 217.36 187.13 228.71 189.35 240.49H190.05C187.83 228.72 185.21 217.26 185.03 217.31H185.04Z" fill="#263238"/>
<path d="M194.62 241.05C201.04 241.05 206.95 236.43 207.84 230.13C209.86 215.98 217.93 192.04 251.96 191.45C277.89 191.01 288.8 209.36 291.86 217.52C296.71 230.48 296.11 246.2 288.23 259.09C276.13 278.88 253.87 281.91 241.67 281.96C227.65 282.01 216.24 293.3 216.24 307.13V359.99L286.47 358.67V345.48C286.47 345.24 286.62 345.02 286.86 344.94C295.41 341.96 308.98 336.32 324.24 324.01L319.67 263.13C319.67 263.13 333.04 237.44 332.37 231.66C326.32 178.86 308.36 148.98 301.06 146.19C292.87 143.06 261.23 144.59 261.23 144.59C261.23 144.59 247.56 169.91 228.39 172.71C217.72 174.27 213.83 160.95 213.83 160.95L189.05 175.48C171.42 184.38 167.99 218.98 167.67 241.05H194.6H194.62Z" fill="#455A64"/>
<g opacity="0.3">
<path d="M276.01 272.16C290.17 275.76 304.12 280.32 318.28 283.93C319.33 284.2 320.45 284.51 321.16 285.33C322.2 286.54 321.97 288.37 321.5 289.89C320.01 294.76 316.8 298.96 312.98 302.32C309.9 305.03 306.21 307.31 302.12 307.63C297.57 307.99 293.19 305.87 289.34 303.42C279.5 297.14 271.1 287.96 265.82 277.55C265.82 277.55 269.14 276.18 271.68 274.83C274.04 273.57 276.01 272.17 276.01 272.17V272.16Z" fill="black"/>
</g>
<path d="M291.58 217.89C297.24 230.95 295.81 246.44 287.74 259.33C283.26 266.48 277.56 271.58 271.35 275.01C278.05 282.29 284.84 288.71 291.56 293.48C298.79 298.61 315.46 297.15 321.78 285.92C329.58 272.06 330.23 236.65 330.23 236.65L331.71 215.3L288.11 208.62L287.76 209.82C289.63 212.62 290.73 215.93 291.59 217.89H291.58Z" fill="#FFBF9D"/>
<path d="M215.66 208.92L213.18 212.83C211.29 214.13 209.5 213.42 208.33 211L181.49 170.15L188.03 165.99L217.67 205.16C217.67 205.16 218.09 207.24 215.66 208.91V208.92Z" fill="#455A64"/>
<path d="M153.66 169.46C148.41 166.49 144 161.92 141.27 156.04C137.91 148.8 137.57 140.69 140.32 133.19C143.06 125.7 148.56 119.72 155.8 116.36C170.74 109.43 188.54 115.94 195.48 130.89C198.84 138.13 199.18 146.24 196.43 153.74C193.69 161.23 188.19 167.21 180.95 170.57C171.88 174.78 161.76 174.03 153.66 169.46ZM182.1 119.22C174.54 114.95 165.1 114.26 156.64 118.18C149.89 121.31 144.76 126.89 142.2 133.88C139.64 140.87 139.96 148.44 143.09 155.2C146.22 161.95 151.8 167.08 158.79 169.64C165.78 172.2 173.35 171.88 180.11 168.75C186.86 165.62 191.99 160.04 194.55 153.05C197.11 146.06 196.79 138.49 193.66 131.73C191.12 126.25 187 121.98 182.1 119.21V119.22Z" fill="#263238"/>
<path d="M154.93 168.2C149.68 165.23 145.27 160.66 142.54 154.78C139.18 147.54 138.84 139.43 141.59 131.93C144.33 124.44 149.83 118.46 157.07 115.1C172.01 108.17 189.81 114.68 196.75 129.63C200.11 136.87 200.45 144.98 197.7 152.48C194.96 159.97 189.46 165.95 182.22 169.31C173.15 173.52 163.03 172.77 154.93 168.2ZM183.37 117.96C175.81 113.69 166.37 113 157.91 116.92C151.16 120.05 146.03 125.63 143.47 132.62C140.91 139.61 141.23 147.18 144.36 153.94C147.49 160.69 153.07 165.82 160.06 168.38C167.05 170.94 174.62 170.62 181.38 167.49C188.13 164.36 193.26 158.78 195.82 151.79C198.38 144.8 198.06 137.23 194.93 130.47C192.39 124.99 188.27 120.72 183.37 117.95V117.96Z" fill="#455A64"/>
<path d="M194.49 142.63C194.49 142.63 194.47 142.46 194.46 142.14C194.44 141.82 194.47 141.34 194.4 140.74C194.33 139.53 194.06 137.77 193.41 135.7C193.09 134.66 192.64 133.56 192.1 132.4C191.52 131.26 190.88 130.05 190.06 128.87C189.25 127.68 188.33 126.48 187.25 125.35C186.18 124.21 185 123.1 183.66 122.12C182.33 121.13 180.93 120.31 179.52 119.64C178.1 118.99 176.67 118.5 175.29 118.12C172.5 117.42 169.9 117.23 167.73 117.35C165.56 117.47 163.82 117.81 162.65 118.14C162.05 118.27 161.61 118.45 161.3 118.53C160.99 118.62 160.83 118.67 160.82 118.66C160.82 118.65 160.97 118.59 161.27 118.47C161.58 118.37 162.01 118.17 162.61 118.02C163.78 117.65 165.52 117.28 167.71 117.13C169.9 116.97 172.54 117.14 175.36 117.84C176.76 118.21 178.21 118.7 179.65 119.36C181.08 120.03 182.5 120.87 183.85 121.87C185.2 122.86 186.4 123.99 187.47 125.15C188.55 126.3 189.48 127.51 190.29 128.72C191.12 129.91 191.75 131.14 192.33 132.3C192.86 133.48 193.31 134.6 193.61 135.65C194.24 137.75 194.48 139.53 194.51 140.75C194.56 141.36 194.51 141.84 194.51 142.16C194.5 142.48 194.49 142.65 194.48 142.65L194.49 142.63Z" fill="white"/>
<path d="M163.32 166.95C163.34 166.88 164.71 167.38 167.01 167.7C167.3 167.73 167.6 167.77 167.91 167.81C168.22 167.85 168.55 167.85 168.89 167.87C169.57 167.93 170.3 167.89 171.06 167.87C172.59 167.78 174.26 167.55 175.97 167.1C177.68 166.63 179.24 165.99 180.61 165.3C181.28 164.93 181.93 164.59 182.49 164.2C182.77 164.01 183.06 163.84 183.31 163.66C183.56 163.47 183.8 163.29 184.04 163.11C185.87 161.68 186.8 160.56 186.85 160.61C186.87 160.62 186.63 160.9 186.2 161.39C185.99 161.64 185.71 161.93 185.37 162.24C185.03 162.55 184.66 162.94 184.18 163.28C183.95 163.46 183.71 163.65 183.46 163.85C183.21 164.05 182.92 164.22 182.64 164.42C182.08 164.82 181.43 165.17 180.75 165.56C179.37 166.27 177.79 166.93 176.06 167.41C174.33 167.87 172.63 168.09 171.08 168.17C170.3 168.17 169.57 168.2 168.88 168.14C168.54 168.11 168.2 168.11 167.89 168.06C167.57 168.01 167.27 167.97 166.98 167.93C166.4 167.86 165.88 167.72 165.43 167.62C164.97 167.53 164.59 167.41 164.28 167.3C163.66 167.1 163.32 166.97 163.33 166.95H163.32Z" fill="white"/>
<path d="M183.87 147.82C183.81 147.88 179.91 143.98 175.17 139.11C170.43 134.24 166.64 130.24 166.7 130.18C166.76 130.12 170.66 134.02 175.4 138.89C180.14 143.76 183.93 147.76 183.87 147.82Z" fill="white"/>
<path d="M179.27 155.64C179.27 155.64 179.16 155.55 178.99 155.36C178.79 155.14 178.54 154.87 178.22 154.53C177.54 153.77 176.59 152.72 175.44 151.43C173.09 148.81 169.84 145.2 166.2 141.26C162.56 137.31 159.23 133.78 156.81 131.22C155.62 129.96 154.65 128.94 153.95 128.19C153.63 127.85 153.38 127.57 153.18 127.36C153.01 127.17 152.92 127.06 152.93 127.05C152.93 127.05 153.04 127.13 153.23 127.31C153.44 127.51 153.71 127.78 154.04 128.1C154.74 128.79 155.75 129.8 156.98 131.06C159.44 133.57 162.8 137.09 166.44 141.04C170.08 144.99 173.31 148.62 175.61 151.28C176.76 152.61 177.69 153.69 178.32 154.45C178.62 154.81 178.85 155.1 179.04 155.32C179.2 155.52 179.28 155.63 179.27 155.64Z" fill="white"/>
<g opacity="0.3">
<path d="M154.91 119.05L191.59 158.9C191.59 158.9 188.62 163.05 185.9 164.86L148.44 124.08C148.44 124.08 151.14 120.83 154.9 119.05H154.91Z" fill="white"/>
</g>
<g opacity="0.3">
<path d="M145.3 128.67L181.38 167.49C181.38 167.49 181.71 167.67 179.23 168.3L144.28 130.64C144.28 130.64 144.46 129.7 145.3 128.67Z" fill="white"/>
</g>
<path d="M240.27 192.73C232.56 186.54 213.68 171.41 212.82 171C211.73 170.49 195.11 164.59 191.93 166.48C188.75 168.38 180.21 179.09 180.21 179.09C180.21 179.09 181.02 185.75 188.47 180.98C194.15 177.34 195.03 176.78 195.13 176.71H195.12L203.04 178.56C203.04 178.56 193.39 182.59 191.34 184.71C189.3 186.83 186.07 194.95 188.08 196.82C190.09 198.69 192.43 198.85 192.43 198.85C192.43 198.85 188.44 204.51 195.51 207.93C195.51 207.93 196.54 212.69 200.03 214.55C203.52 216.41 210.01 215.76 210.01 215.76C210.01 215.76 213.02 213.98 210.78 211.02C208.54 208.07 204.41 207.66 204.41 207.66L209.53 204.67C209.53 204.67 212.19 205.49 216.14 208.53C216.14 208.53 220.81 202.55 225.48 199.17C230.72 195.38 240.27 192.71 240.27 192.71V192.73Z" fill="#FFBF9D"/>
<path d="M207.51 195.24C207.51 195.24 207.24 195.22 206.75 195.28C206.26 195.34 205.57 195.48 204.73 195.75C203.06 196.27 200.83 197.43 198.99 199.42C197.16 201.41 196.19 203.74 195.81 205.44C195.61 206.3 195.53 207 195.51 207.49C195.49 207.98 195.51 208.25 195.53 208.25C195.6 208.25 195.62 207.17 196.07 205.5C196.51 203.84 197.49 201.6 199.27 199.67C201.05 197.73 203.2 196.57 204.82 196C206.44 195.41 207.53 195.3 207.51 195.23V195.24Z" fill="#FF9A6C"/>
<path d="M207.85 186.63C207.85 186.63 207.56 186.63 207.04 186.69C206.78 186.72 206.46 186.76 206.1 186.84C205.74 186.92 205.32 186.99 204.87 187.13C203.96 187.37 202.91 187.76 201.78 188.29C200.67 188.84 199.48 189.54 198.34 190.41C197.21 191.29 196.23 192.26 195.41 193.19C194.61 194.14 193.96 195.06 193.5 195.88C193.25 196.28 193.07 196.66 192.9 197C192.73 197.33 192.6 197.63 192.51 197.87C192.32 198.36 192.22 198.63 192.25 198.64C192.32 198.67 192.74 197.59 193.73 196.02C194.22 195.23 194.88 194.35 195.68 193.42C196.5 192.51 197.46 191.57 198.58 190.71C199.7 189.86 200.99 188.89 202.08 188.34C203.18 187.8 204.06 187.66 204.95 187.39C206.72 186.84 207.87 186.7 207.86 186.63H207.85Z" fill="#FF9A6C"/>
<path d="M209.3 176.74C209.3 176.74 208.91 176.54 208.22 176.5C207.54 176.45 206.57 176.56 205.6 176.97C204.28 177.53 203.82 178.08 203.44 178.53C203 179.06 202.83 179.45 202.87 179.47C202.96 179.55 203.88 178.09 205.75 177.31C207.6 176.5 209.3 176.85 209.3 176.74Z" fill="#FF9A6C"/>
<path d="M298.01 145.4C298.01 145.4 322.4 147.74 330.14 168.93C336.29 185.75 339.62 236.14 338.08 237.16L295.02 235.78C294.45 223.49 291.14 214.02 286.51 207.89L298.01 145.39V145.4Z" fill="#455A64"/>
<path d="M295.68 235.79C295.68 235.79 296 235.93 296.53 236.26C297.06 236.59 297.8 237.1 298.69 237.76C300.48 239.07 302.85 241.04 305.24 243.45C307.64 245.85 309.6 248.22 310.95 249.98C311.62 250.86 312.15 251.59 312.49 252.11C312.84 252.63 313.01 252.92 312.99 252.94C312.93 252.99 312.08 251.91 310.67 250.21C309.26 248.51 307.26 246.2 304.88 243.81C302.5 241.42 300.19 239.43 298.47 238.05C296.75 236.67 295.64 235.86 295.69 235.79H295.68Z" fill="#FF9A6C"/>
<path d="M290.55 183.96C290.69 183.98 289.9 189.36 288.79 195.97C287.67 202.58 286.65 207.92 286.51 207.9C286.37 207.88 287.16 202.5 288.28 195.89C289.4 189.28 290.42 183.94 290.56 183.96H290.55Z" fill="#263238"/>
<path d="M236.36 335.06C236.36 335.06 236.6 335.01 237.08 334.95C237.6 334.9 238.29 334.83 239.14 334.74C240.99 334.57 243.56 334.32 246.71 334.02C253.1 333.41 261.93 332.48 271.65 331.26C281.37 330.03 290.15 328.72 296.5 327.73C299.63 327.23 302.18 326.83 304.01 326.54C304.86 326.41 305.54 326.31 306.06 326.23C306.53 326.16 306.78 326.14 306.78 326.16C306.78 326.18 306.54 326.24 306.08 326.34C305.57 326.44 304.89 326.58 304.05 326.75C302.29 327.1 299.73 327.56 296.56 328.11C290.23 329.2 281.45 330.56 271.72 331.8C261.99 333.03 253.15 333.89 246.75 334.41C243.55 334.67 240.95 334.86 239.16 334.96C238.3 335.01 237.62 335.04 237.09 335.07C236.62 335.09 236.37 335.09 236.37 335.07L236.36 335.06Z" fill="#263238"/>
<path d="M232.55 328.62C232.55 328.62 233.18 328.53 234.32 328.46C235.55 328.39 237.18 328.31 239.16 328.2C243.33 327.99 248.94 327.7 255.14 327.38C261.34 327.02 266.95 326.7 271.12 326.45C273.1 326.34 274.73 326.25 275.96 326.18C277.1 326.12 277.74 326.11 277.74 326.15C277.74 326.19 277.11 326.27 275.97 326.39C274.83 326.51 273.18 326.66 271.14 326.83C267.06 327.17 261.41 327.57 255.16 327.91C248.92 328.25 243.26 328.47 239.16 328.58C237.11 328.64 235.45 328.67 234.31 328.67C233.16 328.67 232.53 328.67 232.53 328.63L232.55 328.62Z" fill="#263238"/>
<path d="M163.97 237.45C164.13 236.84 164.39 236.26 164.75 235.74C165.47 234.71 166.56 233.92 167.8 233.64C169.85 233.17 172.15 234.13 173.26 235.92C173.19 234.56 174.26 233.28 175.58 232.92C176.9 232.56 177.92 233.07 178.97 233.94C180.02 234.81 180.29 235.51 180.72 236.8C181.77 234.44 187.16 234.73 187.82 236.5C187.82 236.5 192.46 231.42 194.83 233.92C195.82 234.96 195.39 236.55 194.74 238.14C193.87 240.27 193.29 241.16 192.15 243.5L187.76 243.74C187.39 245.12 186.61 250.71 186.45 252.12C186.29 253.53 186 254.97 185.25 256.18C184.5 257.39 183.19 258.34 181.77 258.32C180.35 258.3 178.94 257.08 179.03 255.66C178.73 256.83 178.23 257.99 177.36 258.84C176.49 259.69 175.21 260.18 174.04 259.87C172.87 259.56 171.94 258.34 172.17 257.15C170.6 258.23 168.29 257.27 167.29 255.65C166.3 254.02 166.27 252 166.33 250.1C166.38 248.41 166.54 246.52 165.87 244.92C165.77 244.67 165.58 244.45 165.52 244.18C165.43 243.78 165.49 243.33 165.46 242.93C165.4 242.04 165.24 241.16 164.93 240.33C164.86 240.15 164.79 239.97 164.71 239.79C164.5 239.32 164.18 238.92 163.94 238.46C163.89 238.36 163.84 238.26 163.83 238.15C163.8 237.92 163.9 237.66 163.96 237.45H163.97Z" fill="#FFBF9D"/>
<path d="M159.02 235.01C157.85 234.97 156.57 235.21 155.78 236.09C154.85 237.13 154.64 239.61 154.74 241C156.37 241.31 157.24 240.94 158.86 241.25C159.2 241.31 159.49 241.23 159.77 241.43C160.52 241.96 160.4 243.76 160.7 244.63C161.22 246.14 163.16 246.88 164.65 246.32C166.15 245.77 167.11 244.17 167.19 242.58C167.27 240.98 166.56 239.42 165.54 238.2C163.93 236.29 161.5 235.1 159.01 235.01H159.02Z" fill="#FFBF9D"/>
<path d="M186.75 249.8C186.58 249.76 187.25 246.79 187.68 243.08C187.88 241.23 187.93 239.54 187.86 238.32C187.8 237.1 187.65 236.36 187.73 236.34C187.79 236.32 188.06 237.05 188.22 238.29C188.39 239.52 188.4 241.26 188.19 243.14C187.99 245.02 187.64 246.7 187.35 247.9C187.06 249.1 186.82 249.83 186.75 249.81V249.8Z" fill="#FF9A6C"/>
<path d="M178.82 256.2C178.75 256.18 178.93 255.1 179.26 253.36C179.58 251.62 180.02 249.21 180.36 246.54C180.7 243.87 180.82 241.43 180.78 239.67C180.75 237.91 180.63 236.82 180.71 236.81C180.77 236.8 181.03 237.88 181.15 239.66C181.28 241.44 181.22 243.91 180.88 246.61C180.54 249.31 180.03 251.71 179.62 253.44C179.21 255.17 178.89 256.22 178.82 256.2Z" fill="#FF9A6C"/>
<path d="M172.11 257.34C172.03 257.32 172.31 256.12 172.66 254.18C173.01 252.24 173.4 249.53 173.57 246.53C173.73 243.52 173.64 240.79 173.5 238.82C173.36 236.85 173.22 235.63 173.3 235.62C173.34 235.62 173.41 235.91 173.52 236.46C173.63 237.01 173.75 237.8 173.87 238.79C174.1 240.77 174.25 243.52 174.09 246.56C173.92 249.6 173.47 252.32 173.02 254.26C172.8 255.23 172.59 256.01 172.42 256.54C172.25 257.07 172.15 257.36 172.11 257.35V257.34Z" fill="#FF9A6C"/>
<path d="M163.27 237.76C163.29 237.71 163.87 237.87 164.64 238.45C165.4 239.02 166.32 240.04 166.86 241.42C167.4 242.79 167.44 244.19 167.16 245.13C166.87 246.1 166.26 246.43 166.24 246.37C166.18 246.31 166.63 245.92 166.8 245.04C166.97 244.18 166.88 242.89 166.38 241.61C165.88 240.33 165.07 239.34 164.4 238.73C163.73 238.11 163.23 237.83 163.27 237.76Z" fill="#FF9A6C"/>
</g>
<defs>
<clipPath id="clip0_1_2">
<rect width="486.49" height="479.77" fill="white"/>
</clipPath>
</defs>
</svg>
