<svg width="200" height="200" viewBox="0 0 200 200" fill="none" xmlns="http://www.w3.org/2000/svg">
<path d="M113.562 127.267C128.707 119.68 134.833 101.252 127.246 86.1079C119.659 70.9636 101.232 64.8371 86.0874 72.4242C70.943 80.0112 64.8165 98.4387 72.4036 113.583C79.9906 128.727 98.4181 134.854 113.562 127.267Z" fill="#F8CA4D"/>
<path d="M99.8201 57.51C97.7901 57.51 96.1401 55.86 96.1401 53.83V27.68C96.1401 25.65 97.7901 24 99.8201 24C101.85 24 103.5 25.65 103.5 27.68V53.83C103.5 55.86 101.85 57.51 99.8201 57.51Z" fill="#F8CA4D"/>
<path d="M99.8201 175.65C97.7901 175.65 96.1401 174 96.1401 171.97V145.82C96.1401 143.79 97.7901 142.14 99.8201 142.14C101.85 142.14 103.5 143.79 103.5 145.82V171.97C103.5 174 101.85 175.65 99.8201 175.65Z" fill="#F8CA4D"/>
<path d="M129.74 69.9C128.3 68.46 128.3 66.14 129.74 64.7L148.23 46.21C149.67 44.77 151.99 44.77 153.43 46.21C154.87 47.65 154.87 49.97 153.43 51.41L134.94 69.9C133.5 71.34 131.18 71.34 129.74 69.9Z" fill="#F8CA4D"/>
<path d="M46.2099 153.44C44.7699 152 44.7699 149.68 46.2099 148.24L64.6999 129.75C66.1399 128.31 68.4599 128.31 69.8999 129.75C71.3399 131.19 71.3399 133.51 69.8999 134.95L51.4099 153.44C49.9699 154.88 47.6499 154.88 46.2099 153.44Z" fill="#F8CA4D"/>
<path d="M142.14 99.82C142.14 97.79 143.79 96.14 145.82 96.14H171.97C174 96.14 175.65 97.79 175.65 99.82C175.65 101.85 174 103.5 171.97 103.5H145.82C143.79 103.5 142.14 101.85 142.14 99.82Z" fill="#F8CA4D"/>
<path d="M24 99.82C24 97.79 25.65 96.14 27.68 96.14H53.83C55.86 96.14 57.51 97.79 57.51 99.82C57.51 101.85 55.86 103.5 53.83 103.5H27.68C25.65 103.5 24 101.85 24 99.82Z" fill="#F8CA4D"/>
<path d="M129.74 129.75C131.18 128.31 133.5 128.31 134.94 129.75L153.43 148.24C154.87 149.68 154.87 152 153.43 153.44C151.99 154.88 149.67 154.88 148.23 153.44L129.74 134.95C128.3 133.51 128.3 131.19 129.74 129.75Z" fill="#F8CA4D"/>
<path d="M46.2099 46.21C47.6499 44.77 49.9699 44.77 51.4099 46.21L69.8999 64.7C71.3399 66.14 71.3399 68.46 69.8999 69.9C68.4599 71.34 66.1399 71.34 64.6999 69.9L46.2099 51.41C44.7699 49.97 44.7699 47.65 46.2099 46.21Z" fill="#F8CA4D"/>
</svg>
