<svg width="200" height="200" viewBox="0 0 200 200" fill="none" xmlns="http://www.w3.org/2000/svg">
<path d="M181.711 95.451C181.645 95.451 181.588 95.47 181.522 95.47C182.737 92.6592 183.421 89.5635 183.421 86.3063C183.421 73.5437 173.07 63.193 160.307 63.193C155.797 63.193 151.6 64.5035 148.038 66.7445C143.224 55.0454 131.734 46.8029 118.297 46.8029C100.539 46.8029 86.1434 61.1988 86.1434 78.9564C86.1434 80.2954 86.2478 81.6153 86.4092 82.9163C86.3238 82.9163 86.2288 82.9068 86.1434 82.9068C74.2354 82.9068 64.5779 92.5642 64.5779 104.472C64.5779 116.38 74.2354 126.038 86.1434 126.038H181.711C190.153 126.038 197 119.191 197 110.749C197 102.307 190.153 95.4605 181.711 95.4605V95.451Z" fill="#B9D7FF"/>
<path d="M143.395 115.564C143.319 115.564 143.243 115.583 143.167 115.583C144.629 112.192 145.455 108.461 145.455 104.539C145.455 89.1456 132.978 76.6679 117.585 76.6679C112.143 76.6679 107.082 78.2537 102.799 80.9411C96.9972 66.8395 83.133 56.9066 66.9423 56.9066C45.5288 56.9066 28.1701 74.2654 28.1701 95.6789C28.1701 97.2932 28.303 98.8791 28.4929 100.446C28.3884 100.446 28.2745 100.427 28.1701 100.427C13.8121 100.427 2.16992 112.069 2.16992 126.427C2.16992 140.785 13.8121 152.427 28.1701 152.427H143.404C153.584 152.427 161.846 144.175 161.846 133.995C161.846 123.816 153.594 115.554 143.404 115.554L143.395 115.564Z" fill="white"/>
</svg>
