<svg width="200" height="200" viewBox="0 0 200 200" fill="none" xmlns="http://www.w3.org/2000/svg">
<path d="M170.72 79.77C170.64 79.77 170.56 79.79 170.48 79.79C172.02 76.22 172.89 72.29 172.89 68.16C172.89 51.95 159.75 38.81 143.54 38.81C137.81 38.81 132.48 40.48 127.97 43.31C121.86 28.46 107.26 18 90.21 18C67.66 18 49.38 36.28 49.38 58.83C49.38 60.53 49.52 62.2 49.72 63.85C49.61 63.85 49.49 63.83 49.38 63.83C34.26 63.83 22 76.09 22 91.21C22 106.33 34.26 118.59 49.38 118.59H170.73C181.45 118.59 190.15 109.9 190.15 99.18C190.15 88.46 181.46 79.76 170.73 79.76L170.72 79.77Z" fill="#305588"/>
<path d="M157.72 86.77C157.64 86.77 157.56 86.79 157.48 86.79C159.02 83.22 159.89 79.29 159.89 75.16C159.89 58.95 146.75 45.81 130.54 45.81C124.81 45.81 119.48 47.48 114.97 50.31C108.86 35.46 94.26 25 77.21 25C54.66 25 36.38 43.28 36.38 65.83C36.38 67.53 36.52 69.2 36.72 70.85C36.61 70.85 36.49 70.83 36.38 70.83C21.26 70.83 9 83.09 9 98.21C9 113.33 21.26 125.59 36.38 125.59H157.73C168.45 125.59 177.15 116.9 177.15 106.18C177.15 95.46 168.46 86.76 157.73 86.76L157.72 86.77Z" fill="white"/>
<path d="M62.8001 173.43C59.5001 180.29 51.2701 183.18 44.4101 179.88C37.5501 176.58 34.6601 168.35 37.9601 161.49C41.2601 154.63 62.5901 142.08 62.5901 142.08C62.5901 142.08 66.1101 166.58 62.8101 173.44L62.8001 173.43Z" fill="#B9D7FF"/>
<path d="M97.0801 173.43C93.7801 180.29 85.5501 183.18 78.6901 179.88C71.8301 176.58 68.9401 168.35 72.2401 161.49C75.5401 154.63 96.8701 142.08 96.8701 142.08C96.8701 142.08 100.39 166.58 97.0901 173.44L97.0801 173.43Z" fill="#B9D7FF"/>
<path d="M131.84 173.43C128.54 180.29 120.31 183.18 113.45 179.88C106.59 176.58 103.7 168.35 107 161.49C110.3 154.63 131.63 142.08 131.63 142.08C131.63 142.08 135.15 166.58 131.85 173.44L131.84 173.43Z" fill="#B9D7FF"/>
</svg>
