<svg width="200" height="200" viewBox="0 0 200 200" fill="none" xmlns="http://www.w3.org/2000/svg">
<path d="M154.72 111.77C154.64 111.77 154.56 111.79 154.48 111.79C156.02 108.22 156.89 104.29 156.89 100.16C156.89 83.95 143.75 70.81 127.54 70.81C121.81 70.81 116.48 72.48 111.97 75.31C105.86 60.46 91.26 50 74.21 50C51.66 50 33.38 68.28 33.38 90.83C33.38 92.53 33.52 94.2 33.72 95.85C33.61 95.85 33.49 95.83 33.38 95.83C18.26 95.83 6 108.09 6 123.21C6 138.33 18.26 150.59 33.38 150.59H154.73C165.45 150.59 174.15 141.9 174.15 131.18C174.15 120.46 165.46 111.76 154.73 111.76L154.72 111.77Z" fill="white"/>
<path d="M139.62 56.7401H77.5599C75.6999 56.7401 74.1899 55.23 74.1899 53.37C74.1899 51.51 75.6999 50 77.5599 50H139.62C141.48 50 142.99 51.51 142.99 53.37C142.99 55.23 141.48 56.7401 139.62 56.7401Z" fill="white"/>
<path d="M189.85 56.7401H153.84C151.98 56.7401 150.47 55.23 150.47 53.37C150.47 51.51 151.98 50 153.84 50H189.85C191.71 50 193.22 51.51 193.22 53.37C193.22 55.23 191.71 56.7401 189.85 56.7401Z" fill="white"/>
<path d="M165.1 77.56H127.98C126.12 77.56 124.61 76.05 124.61 74.19C124.61 72.33 126.12 70.82 127.98 70.82H165.1C166.96 70.82 168.47 72.33 168.47 74.19C168.47 76.05 166.96 77.56 165.1 77.56Z" fill="white"/>
<path d="M189.66 77.56H179.81C177.95 77.56 176.44 76.05 176.44 74.19C176.44 72.33 177.95 70.82 179.81 70.82H189.66C191.52 70.82 193.03 72.33 193.03 74.19C193.03 76.05 191.52 77.56 189.66 77.56Z" fill="white"/>
<path d="M189.66 118.27H127.98C126.12 118.27 124.61 116.76 124.61 114.9C124.61 113.04 126.12 111.53 127.98 111.53H189.66C191.52 111.53 193.03 113.04 193.03 114.9C193.03 116.76 191.52 118.27 189.66 118.27Z" fill="white"/>
<path d="M189.66 150.6H127.98C126.12 150.6 124.61 149.09 124.61 147.23C124.61 145.37 126.12 143.86 127.98 143.86H189.66C191.52 143.86 193.03 145.37 193.03 147.23C193.03 149.09 191.52 150.6 189.66 150.6Z" fill="white"/>
</svg>
