<svg width="200" height="200" viewBox="0 0 200 200" fill="none" xmlns="http://www.w3.org/2000/svg">
<path d="M164.72 83.77C164.64 83.77 164.56 83.79 164.48 83.79C166.02 80.22 166.89 76.29 166.89 72.16C166.89 55.95 153.75 42.81 137.54 42.81C131.81 42.81 126.48 44.48 121.97 47.31C115.86 32.46 101.26 22 84.21 22C61.66 22 43.38 40.28 43.38 62.83C43.38 64.53 43.52 66.2 43.72 67.85C43.61 67.85 43.49 67.83 43.38 67.83C28.26 67.83 16 80.09 16 95.21C16 110.33 28.26 122.59 43.38 122.59H164.73C175.45 122.59 184.15 113.9 184.15 103.18C184.15 92.46 175.46 83.76 164.73 83.76L164.72 83.77Z" fill="white"/>
<path d="M69.8001 170.43C66.5001 177.29 58.2701 180.18 51.4101 176.88C44.5501 173.58 41.6601 165.35 44.9601 158.49C48.2601 151.63 69.5901 139.08 69.5901 139.08C69.5901 139.08 73.1101 163.58 69.8101 170.44L69.8001 170.43Z" fill="#B9D7FF"/>
<path d="M104.08 170.43C100.78 177.29 92.5501 180.18 85.6901 176.88C78.8301 173.58 75.9401 165.35 79.2401 158.49C82.5401 151.63 103.87 139.08 103.87 139.08C103.87 139.08 107.39 163.58 104.09 170.44L104.08 170.43Z" fill="#B9D7FF"/>
<path d="M138.84 170.43C135.54 177.29 127.31 180.18 120.45 176.88C113.59 173.58 110.7 165.35 114 158.49C117.3 151.63 138.63 139.08 138.63 139.08C138.63 139.08 142.15 163.58 138.85 170.44L138.84 170.43Z" fill="#B9D7FF"/>
</svg>
