<svg width="200" height="200" viewBox="0 0 200 200" fill="none" xmlns="http://www.w3.org/2000/svg">
<path d="M101.98 23H97.56C95.0305 23 92.98 25.0506 92.98 27.58V171.94C92.98 174.469 95.0305 176.52 97.56 176.52H101.98C104.509 176.52 106.56 174.469 106.56 171.94V27.58C106.56 25.0506 104.509 23 101.98 23Z" fill="white"/>
<path d="M126.47 34.15C128.26 35.94 128.26 38.84 126.47 40.63L99.89 67.2299L99.79 67.11L99.67 67.2299L73.07 40.63C71.28 38.84 71.28 35.94 73.07 34.15L76.19 31.03C77.98 29.24 80.88 29.24 82.67 31.03L96.54 44.9C98.33 46.69 101.23 46.69 103.02 44.9L116.87 31.0399C118.66 29.2499 121.56 29.2499 123.35 31.0399L126.46 34.15H126.47Z" fill="white"/>
<path d="M73.06 165.36C71.27 163.57 71.27 160.67 73.06 158.88L99.64 132.28L99.74 132.4L99.86 132.28L126.46 158.88C128.25 160.67 128.25 163.57 126.46 165.36L123.34 168.48C121.55 170.27 118.65 170.27 116.86 168.48L102.99 154.61C101.2 152.82 98.3 152.82 96.51 154.61L82.66 168.47C80.87 170.26 77.97 170.26 76.18 168.47L73.07 165.36H73.06Z" fill="white"/>
<path d="M176.52 101.97V97.55C176.52 95.0205 174.469 92.97 171.94 92.97L27.58 92.97C25.0506 92.97 23 95.0205 23 97.55V101.97C23 104.499 25.0506 106.55 27.58 106.55L171.94 106.55C174.469 106.55 176.52 104.499 176.52 101.97Z" fill="white"/>
<path d="M165.37 126.46C163.58 128.25 160.68 128.25 158.89 126.46L132.29 99.88L132.41 99.78L132.29 99.66L158.89 73.06C160.68 71.27 163.58 71.27 165.37 73.06L168.49 76.18C170.28 77.97 170.28 80.87 168.49 82.66L154.62 96.53C152.83 98.32 152.83 101.22 154.62 103.01L168.48 116.86C170.27 118.65 170.27 121.55 168.48 123.34L165.37 126.45V126.46Z" fill="white"/>
<path d="M34.16 73.05C35.95 71.26 38.85 71.26 40.64 73.05L67.24 99.63L67.12 99.73L67.24 99.8499L40.64 126.45C38.85 128.24 35.95 128.24 34.16 126.45L31.04 123.33C29.25 121.54 29.25 118.64 31.04 116.85L44.91 102.98C46.7 101.19 46.7 98.29 44.91 96.5L31.05 82.65C29.26 80.86 29.26 77.96 31.05 76.17L34.16 73.06V73.05Z" fill="white"/>
<path d="M63.1001 136.43C61.3101 134.63 61.3101 131.73 63.1001 129.94L129.95 63.09C131.74 61.3 134.64 61.3 136.43 63.09C138.22 64.89 138.22 67.79 136.43 69.58L69.5801 136.43C67.7901 138.22 64.8901 138.22 63.1001 136.43Z" fill="white"/>
<path d="M143.86 79.69C143.86 82.22 141.81 84.27 139.28 84.27H115.36V84.17H115.24V60.25C115.24 57.72 117.29 55.67 119.83 55.67C122.36 55.67 124.41 57.72 124.41 60.25V70.53C124.41 73.06 126.46 75.11 128.99 75.11H139.25C141.78 75.11 143.83 77.16 143.83 79.69H143.86Z" fill="white"/>
<path d="M55.6699 119.82C55.6699 117.29 57.7199 115.24 60.2499 115.24H84.1699V115.34H84.2899V139.26C84.2899 141.79 82.2399 143.84 79.6999 143.84C77.1699 143.84 75.1199 141.79 75.1199 139.26V128.98C75.1199 126.45 73.0699 124.4 70.5399 124.4H60.2799C57.7499 124.4 55.6999 122.35 55.6999 119.82H55.6699Z" fill="white"/>
<path d="M63.1001 63.0901C64.8901 61.2901 67.7901 61.2901 69.5801 63.0901L136.43 129.94C138.22 131.73 138.22 134.63 136.43 136.42C134.64 138.22 131.74 138.22 129.95 136.42L63.1001 69.57C61.3101 67.78 61.3101 64.8801 63.1001 63.0901Z" fill="white"/>
<path d="M119.84 143.85C117.31 143.85 115.26 141.8 115.26 139.27V115.35H115.36V115.23H139.28C141.81 115.23 143.86 117.28 143.86 119.82C143.86 122.36 141.81 124.41 139.28 124.41H129C126.47 124.41 124.42 126.46 124.42 128.99V139.25C124.42 141.78 122.37 143.83 119.84 143.83V143.85Z" fill="white"/>
<path d="M79.6999 55.66C82.2299 55.66 84.2799 57.71 84.2799 60.24V84.16H84.1799V84.28H60.2599C57.7299 84.28 55.6799 82.23 55.6799 79.69C55.6799 77.15 57.7299 75.1 60.2599 75.1H70.5399C73.0699 75.1 75.1199 73.05 75.1199 70.52V60.26C75.1199 57.73 77.1699 55.68 79.6999 55.68V55.66Z" fill="white"/>
</svg>
