<svg width="200" height="200" viewBox="0 0 200 200" fill="none" xmlns="http://www.w3.org/2000/svg">
<path d="M164.72 67.77C164.64 67.77 164.56 67.79 164.48 67.79C166.02 64.22 166.89 60.29 166.89 56.16C166.89 39.95 153.75 26.81 137.54 26.81C131.81 26.81 126.48 28.48 121.97 31.31C115.86 16.46 101.26 6 84.21 6C61.66 6 43.38 24.28 43.38 46.83C43.38 48.53 43.52 50.2 43.72 51.85C43.61 51.85 43.49 51.83 43.38 51.83C28.26 51.83 16 64.09 16 79.21C16 94.33 28.26 106.59 43.38 106.59H164.73C175.45 106.59 184.15 97.9 184.15 87.18C184.15 76.46 175.46 67.76 164.73 67.76L164.72 67.77Z" fill="#B9D7FF"/>
<path d="M52.3999 154.44C49.0999 161.3 40.8699 164.19 34.0099 160.89C27.1499 157.59 24.2599 149.36 27.5599 142.5C30.8599 135.64 52.1899 123.09 52.1899 123.09C52.1899 123.09 55.7099 147.59 52.4099 154.45L52.3999 154.44Z" fill="#B9D7FF"/>
<path d="M172.52 154.44C169.22 161.3 160.99 164.19 154.13 160.89C147.27 157.59 144.38 149.36 147.68 142.5C150.98 135.64 172.31 123.09 172.31 123.09C172.31 123.09 175.83 147.59 172.53 154.45L172.52 154.44Z" fill="#B9D7FF"/>
<path d="M89.1799 118.33L76.6899 156.37H93.9099L82.7499 194.97L123.43 140.47H102.43L110.37 118.33H89.1799Z" fill="#FFDC7B"/>
</svg>
